<svg width="83" height="98" viewBox="0 0 83 98" fill="none" xmlns="http://www.w3.org/2000/svg">
<path d="M30.0078 15.84H30.1998V16H26.7118V15.84H26.9198C27.1864 15.84 27.4158 15.7493 27.6078 15.568C27.8104 15.376 27.9224 15.1413 27.9438 14.864V10.704H21.7518V14.88C21.7518 16.3733 21.3891 17.376 20.6638 17.888C20.3331 18.1227 19.9064 18.2987 19.3838 18.416L19.3038 18.272C19.7838 18.016 20.1358 17.6213 20.3598 17.088C20.5944 16.5547 20.7118 15.8187 20.7118 14.88V5.952C20.7118 5.67467 20.6104 5.44 20.4078 5.248C20.2051 5.056 19.9651 4.96 19.6878 4.96H19.4958V4.8H22.9838V4.96H22.7758C22.4984 4.96 22.2584 5.056 22.0558 5.248C21.8638 5.44 21.7624 5.67467 21.7518 5.952V10.224H27.9438V6.24C27.9544 4.87467 28.2584 3.92533 28.8558 3.392C29.2184 3.072 29.7091 2.84267 30.3278 2.704L30.4078 2.848C29.9278 3.104 29.5704 3.49867 29.3358 4.032C29.1011 4.56533 28.9838 5.30133 28.9838 6.24V14.832C28.9838 15.1093 29.0798 15.3493 29.2718 15.552C29.4744 15.744 29.7198 15.84 30.0078 15.84ZM42.8154 15.84H42.9434V16H39.3434V15.84H39.4874C39.7114 15.84 39.8767 15.7707 39.9834 15.632C40.1007 15.4827 40.1594 15.344 40.1594 15.216C40.1594 15.088 40.138 14.96 40.0954 14.832L39.0714 12.112H34.7514L33.6794 14.848C33.6367 14.976 33.6154 15.104 33.6154 15.232C33.6154 15.3493 33.6687 15.4827 33.7754 15.632C33.8927 15.7707 34.0634 15.84 34.2874 15.84H34.4314V16H31.2154V15.84H31.3594C31.626 15.84 31.8874 15.7547 32.1434 15.584C32.3994 15.4133 32.6074 15.1627 32.7674 14.832L36.3834 6.224C36.778 5.36 36.9754 4.81067 36.9754 4.576H37.1194L41.4074 14.832C41.5567 15.1627 41.7594 15.4133 42.0154 15.584C42.2714 15.7547 42.538 15.84 42.8154 15.84ZM34.9434 11.632H38.8794L36.9594 6.496L34.9434 11.632ZM47.006 15.84H47.214V16H43.71V15.84H43.918C44.1953 15.84 44.43 15.744 44.622 15.552C44.8247 15.3493 44.9313 15.1093 44.942 14.832V5.952C44.9313 5.67467 44.8247 5.44 44.622 5.248C44.43 5.056 44.1953 4.96 43.918 4.96H43.71V4.8H47.214V4.96H47.006C46.7287 4.96 46.4887 5.056 46.286 5.248C46.094 5.44 45.9927 5.67467 45.982 5.952V14.832C45.982 15.1093 46.0833 15.3493 46.286 15.552C46.4887 15.744 46.7287 15.84 47.006 15.84ZM53.438 16H52.75C51.662 16 50.862 15.696 50.35 15.088L46.494 10.432L50.27 5.696C50.3553 5.58933 50.398 5.49333 50.398 5.408C50.398 5.32267 50.382 5.248 50.35 5.184C50.2647 5.024 50.11 4.944 49.886 4.944H49.726V4.8H53.102V4.944H53.038C52.334 4.944 51.758 5.19467 51.31 5.696L47.55 10.048L51.918 15.184C52.3447 15.6107 52.8513 15.8293 53.438 15.84V16ZM64.7216 15.84H64.8496V16H61.2496V15.84H61.3936C61.6176 15.84 61.783 15.7707 61.8896 15.632C62.007 15.4827 62.0656 15.344 62.0656 15.216C62.0656 15.088 62.0443 14.96 62.0016 14.832L60.9776 12.112H56.6576L55.5856 14.848C55.543 14.976 55.5216 15.104 55.5216 15.232C55.5216 15.3493 55.575 15.4827 55.6816 15.632C55.799 15.7707 55.9696 15.84 56.1936 15.84H56.3376V16H53.1216V15.84H53.2656C53.5323 15.84 53.7936 15.7547 54.0496 15.584C54.3056 15.4133 54.5136 15.1627 54.6736 14.832L58.2896 6.224C58.6843 5.36 58.8816 4.81067 58.8816 4.576H59.0256L63.3136 14.832C63.463 15.1627 63.6656 15.4133 63.9216 15.584C64.1776 15.7547 64.4443 15.84 64.7216 15.84ZM56.8496 11.632H60.7856L58.8656 6.496L56.8496 11.632Z" fill="white"/>
<path fill-rule="evenodd" clip-rule="evenodd" d="M41.5 43C45.6421 43 49 39.6426 49 35.5C49 31.3574 45.6421 28 41.5 28C37.3579 28 34 31.3574 34 35.5C34 39.6426 37.3579 43 41.5 43ZM41.5 43H42V98H41V43H41.5Z" fill="#627442"/>
</svg>
