<svg width="44" height="64" viewBox="0 0 44 64" fill="none" xmlns="http://www.w3.org/2000/svg">
<path d="M7.658 13.86C7.90067 13.86 8.106 13.776 8.274 13.608C8.45133 13.4307 8.54467 13.2253 8.554 12.992V9.366H2.828V12.992C2.828 13.2347 2.91667 13.44 3.094 13.608C3.27133 13.776 3.48133 13.86 3.724 13.86H3.906V14H0.84V13.86H1.022C1.26467 13.86 1.47 13.776 1.638 13.608C1.81533 13.44 1.90867 13.2347 1.918 12.992V5.208C1.90867 4.96533 1.81533 4.76 1.638 4.592C1.47 4.424 1.26467 4.34 1.022 4.34H0.84V4.2H3.906V4.34H3.724C3.48133 4.34 3.27133 4.424 3.094 4.592C2.926 4.76 2.83733 4.96533 2.828 5.208V8.946H8.554V5.208C8.54467 4.872 8.39533 4.62 8.106 4.452C7.966 4.37733 7.81667 4.34 7.658 4.34H7.476V4.2H10.542V4.34H10.36C10.1173 4.34 9.90733 4.42867 9.73 4.606C9.562 4.774 9.47333 4.97933 9.464 5.222V12.992C9.47333 13.2347 9.562 13.44 9.73 13.608C9.90733 13.776 10.1173 13.86 10.36 13.86H10.542V14H7.476V13.86H7.658ZM21.4127 13.86H21.5247V14H18.3747V13.86H18.5007C18.6967 13.86 18.8413 13.7993 18.9347 13.678C19.0373 13.5473 19.0887 13.426 19.0887 13.314C19.0887 13.202 19.07 13.09 19.0327 12.978L18.1367 10.598H14.3567L13.4187 12.992C13.3813 13.104 13.3627 13.216 13.3627 13.328C13.3627 13.4307 13.4093 13.5473 13.5027 13.678C13.6053 13.7993 13.7547 13.86 13.9507 13.86H14.0767V14H11.2627V13.86H11.3887C11.622 13.86 11.8507 13.7853 12.0747 13.636C12.2987 13.4867 12.4807 13.2673 12.6207 12.978L15.7847 5.446C16.13 4.69 16.3027 4.20933 16.3027 4.004H16.4287L20.1807 12.978C20.3113 13.2673 20.4887 13.4867 20.7127 13.636C20.9367 13.7853 21.17 13.86 21.4127 13.86ZM14.5247 10.178H17.9687L16.2887 5.684L14.5247 10.178ZM25.0795 13.86H25.2615V14H22.1955V13.86H22.3775C22.6201 13.86 22.8255 13.776 22.9935 13.608C23.1708 13.4307 23.2641 13.2207 23.2735 12.978V5.208C23.2641 4.96533 23.1708 4.76 22.9935 4.592C22.8255 4.424 22.6201 4.34 22.3775 4.34H22.1955V4.2H25.2615V4.34H25.0795C24.8368 4.34 24.6268 4.424 24.4495 4.592C24.2815 4.76 24.1928 4.96533 24.1835 5.208V12.978C24.1835 13.2207 24.2721 13.4307 24.4495 13.608C24.6268 13.776 24.8368 13.86 25.0795 13.86ZM30.7075 14H30.1055C29.1535 14 28.4535 13.734 28.0055 13.202L24.6315 9.128L27.9355 4.984C28.0101 4.89067 28.0475 4.80667 28.0475 4.732C28.0475 4.65733 28.0335 4.592 28.0055 4.536C27.9308 4.396 27.7955 4.326 27.5995 4.326H27.4595V4.2H30.4135V4.326H30.3575C29.7415 4.326 29.2375 4.54533 28.8455 4.984L25.5555 8.792L29.3775 13.286C29.7508 13.6593 30.1941 13.8507 30.7075 13.86V14ZM40.5806 13.86H40.6926V14H37.5426V13.86H37.6686C37.8646 13.86 38.0093 13.7993 38.1026 13.678C38.2053 13.5473 38.2566 13.426 38.2566 13.314C38.2566 13.202 38.238 13.09 38.2006 12.978L37.3046 10.598H33.5246L32.5866 12.992C32.5493 13.104 32.5306 13.216 32.5306 13.328C32.5306 13.4307 32.5773 13.5473 32.6706 13.678C32.7733 13.7993 32.9226 13.86 33.1186 13.86H33.2446V14H30.4306V13.86H30.5566C30.79 13.86 31.0186 13.7853 31.2426 13.636C31.4666 13.4867 31.6486 13.2673 31.7886 12.978L34.9526 5.446C35.298 4.69 35.4706 4.20933 35.4706 4.004H35.5966L39.3486 12.978C39.4793 13.2673 39.6566 13.4867 39.8806 13.636C40.1046 13.7853 40.338 13.86 40.5806 13.86ZM33.6926 10.178H37.1366L35.4566 5.684L33.6926 10.178Z" fill="white"/>
<path fill-rule="evenodd" clip-rule="evenodd" d="M20.4997 28.0085C18.5651 27.7466 17.0643 26.0991 17.0427 24.0889C17.0191 21.8799 18.7906 20.0693 20.9996 20.045C23.2086 20.0206 25.0186 21.7916 25.0422 24.0006C25.0644 26.0696 23.5117 27.789 21.4997 28.0187L21.5 62.9997L20.5 62.9997L20.4997 28.0085Z" fill="#8A9774"/>
</svg>
