<svg width="49" height="48" viewBox="0 0 49 48" fill="none" xmlns="http://www.w3.org/2000/svg">
<path fill-rule="evenodd" clip-rule="evenodd" d="M23.4995 26.0079C21.565 25.7459 20.0643 24.0984 20.0427 22.0883C20.0191 19.8793 21.7907 18.0688 23.9997 18.0444C26.2087 18.02 28.0186 19.791 28.0423 22C28.0644 24.0691 26.5116 25.7886 24.4995 26.0181L24.5 47L23.5 47.0001L23.4995 26.0079Z" fill="#6F989D"/>
<path d="M7.658 13.86C7.90067 13.86 8.106 13.776 8.274 13.608C8.45133 13.4307 8.54467 13.2253 8.554 12.992V9.366H2.828V12.992C2.828 13.2347 2.91667 13.44 3.094 13.608C3.27133 13.776 3.48133 13.86 3.724 13.86H3.906V14H0.84V13.86H1.022C1.26467 13.86 1.47 13.776 1.638 13.608C1.81533 13.44 1.90867 13.2347 1.918 12.992V5.208C1.90867 4.96533 1.81533 4.76 1.638 4.592C1.47 4.424 1.26467 4.34 1.022 4.34H0.84V4.2H3.906V4.34H3.724C3.48133 4.34 3.27133 4.424 3.094 4.592C2.926 4.76 2.83733 4.96533 2.828 5.208V8.946H8.554V5.208C8.54467 4.872 8.39533 4.62 8.106 4.452C7.966 4.37733 7.81667 4.34 7.658 4.34H7.476V4.2H10.542V4.34H10.36C10.1173 4.34 9.90733 4.42867 9.73 4.606C9.562 4.774 9.47333 4.97933 9.464 5.222V12.992C9.47333 13.2347 9.562 13.44 9.73 13.608C9.90733 13.776 10.1173 13.86 10.36 13.86H10.542V14H7.476V13.86H7.658ZM21.4127 13.86H21.5247V14H18.3747V13.86H18.5007C18.6967 13.86 18.8413 13.7993 18.9347 13.678C19.0373 13.5473 19.0887 13.426 19.0887 13.314C19.0887 13.202 19.07 13.09 19.0327 12.978L18.1367 10.598H14.3567L13.4187 12.992C13.3813 13.104 13.3627 13.216 13.3627 13.328C13.3627 13.4307 13.4093 13.5473 13.5027 13.678C13.6053 13.7993 13.7547 13.86 13.9507 13.86H14.0767V14H11.2627V13.86H11.3887C11.622 13.86 11.8507 13.7853 12.0747 13.636C12.2987 13.4867 12.4807 13.2673 12.6207 12.978L15.7847 5.446C16.13 4.69 16.3027 4.20933 16.3027 4.004H16.4287L20.1807 12.978C20.3113 13.2673 20.4887 13.4867 20.7127 13.636C20.9367 13.7853 21.17 13.86 21.4127 13.86ZM14.5247 10.178H17.9687L16.2887 5.684L14.5247 10.178ZM32.2475 4.34C32.0141 4.34 31.8135 4.424 31.6455 4.592C31.4775 4.75067 31.3888 4.94667 31.3795 5.18V12.404C31.3795 12.9453 31.4121 13.4587 31.4775 13.944L31.5055 14.196H31.3795L23.7495 6.048V13.02C23.7495 13.2533 23.8335 13.454 24.0015 13.622C24.1695 13.7807 24.3701 13.86 24.6035 13.86H24.8695V14H21.9855V13.86H22.2515C22.4848 13.86 22.6855 13.7807 22.8535 13.622C23.0215 13.454 23.1055 13.2487 23.1055 13.006V5.74C23.1055 5.17067 23.0728 4.662 23.0075 4.214L22.9795 3.99H23.1195L30.7495 12.138V5.194C30.7401 4.95133 30.6515 4.75067 30.4835 4.592C30.3155 4.424 30.1148 4.34 29.8815 4.34H29.6155V4.2H32.4995V4.34H32.2475ZM38.7195 14.196C37.2262 14.1867 36.0128 13.7153 35.0795 12.782C34.1555 11.8487 33.6935 10.6213 33.6935 9.1C33.6935 7.57867 34.1555 6.35133 35.0795 5.418C36.0128 4.47533 37.2262 4.004 38.7195 4.004C40.0075 4.004 41.1415 4.32133 42.1215 4.956L42.4015 6.93H42.2755C42.0702 6.12733 41.6548 5.51133 41.0295 5.082C40.4135 4.64333 39.6435 4.424 38.7195 4.424C37.5342 4.424 36.5728 4.85333 35.8355 5.712C35.1075 6.57067 34.7435 7.7 34.7435 9.1C34.7435 10.5 35.1075 11.6293 35.8355 12.488C36.5728 13.3373 37.5342 13.7667 38.7195 13.776C39.3262 13.776 39.9002 13.6687 40.4415 13.454C40.9922 13.2393 41.4728 12.9407 41.8835 12.558V10.08C41.8835 9.87467 41.8182 9.72067 41.6875 9.618C41.5662 9.506 41.3935 9.45 41.1695 9.45H40.9455V9.31H43.6895V9.45H43.4795C43.2462 9.45 43.0688 9.506 42.9475 9.618C42.8262 9.72067 42.7702 9.87467 42.7795 10.08V12.39C42.5368 12.7073 42.2475 12.992 41.9115 13.244C41.5755 13.496 41.1228 13.72 40.5535 13.916C39.9935 14.1027 39.3822 14.196 38.7195 14.196ZM44.69 13.86C44.9326 13.86 45.138 13.776 45.306 13.608C45.4833 13.4307 45.5766 13.2207 45.586 12.978V5.208C45.5766 4.96533 45.4833 4.76 45.306 4.592C45.138 4.424 44.9326 4.34 44.69 4.34H44.508V4.2H47.574V4.34H47.392C47.1493 4.34 46.9393 4.424 46.762 4.592C46.594 4.76 46.5053 4.96533 46.496 5.208V12.978C46.496 13.2207 46.5846 13.4307 46.762 13.608C46.9393 13.776 47.1493 13.86 47.392 13.86H47.574V14H44.508V13.86H44.69Z" fill="white"/>
</svg>
