<svg width="83" height="67" viewBox="0 0 83 67" fill="none" xmlns="http://www.w3.org/2000/svg">
<path d="M19.664 15.84H19.856V16H16.368V15.84H16.576C16.8427 15.84 17.072 15.7493 17.264 15.568C17.4667 15.376 17.5787 15.1413 17.6 14.864V10.704H11.408V14.88C11.408 16.3733 11.0453 17.376 10.32 17.888C9.98933 18.1227 9.56267 18.2987 9.04 18.416L8.96 18.272C9.44 18.016 9.792 17.6213 10.016 17.088C10.2507 16.5547 10.368 15.8187 10.368 14.88V5.952C10.368 5.67467 10.2667 5.44 10.064 5.248C9.86133 5.056 9.62133 4.96 9.344 4.96H9.152V4.8H12.64V4.96H12.432C12.1547 4.96 11.9147 5.056 11.712 5.248C11.52 5.44 11.4187 5.67467 11.408 5.952V10.224H17.6V6.24C17.6107 4.87467 17.9147 3.92533 18.512 3.392C18.8747 3.072 19.3653 2.84267 19.984 2.704L20.064 2.848C19.584 3.104 19.2267 3.49867 18.992 4.032C18.7573 4.56533 18.64 5.30133 18.64 6.24V14.832C18.64 15.1093 18.736 15.3493 18.928 15.552C19.1307 15.744 19.376 15.84 19.664 15.84ZM32.4716 15.84H32.5996V16H28.9996V15.84H29.1436C29.3676 15.84 29.533 15.7707 29.6396 15.632C29.757 15.4827 29.8156 15.344 29.8156 15.216C29.8156 15.088 29.7943 14.96 29.7516 14.832L28.7276 12.112H24.4076L23.3356 14.848C23.293 14.976 23.2716 15.104 23.2716 15.232C23.2716 15.3493 23.325 15.4827 23.4316 15.632C23.549 15.7707 23.7196 15.84 23.9436 15.84H24.0876V16H20.8716V15.84H21.0156C21.2823 15.84 21.5436 15.7547 21.7996 15.584C22.0556 15.4133 22.2636 15.1627 22.4236 14.832L26.0396 6.224C26.4343 5.36 26.6316 4.81067 26.6316 4.576H26.7756L31.0636 14.832C31.213 15.1627 31.4156 15.4133 31.6716 15.584C31.9276 15.7547 32.1943 15.84 32.4716 15.84ZM24.5996 11.632H28.5356L26.6156 6.496L24.5996 11.632ZM44.8543 4.96C44.5876 4.96 44.3583 5.056 44.1663 5.248C43.9743 5.42933 43.8729 5.65333 43.8623 5.92V14.176C43.8623 14.7947 43.8996 15.3813 43.9743 15.936L44.0063 16.224H43.8623L35.1423 6.912V14.88C35.1423 15.1467 35.2383 15.376 35.4303 15.568C35.6223 15.7493 35.8516 15.84 36.1183 15.84H36.4223V16H33.1263V15.84H33.4303C33.6969 15.84 33.9263 15.7493 34.1183 15.568C34.3103 15.376 34.4062 15.1413 34.4062 14.864V6.56C34.4062 5.90933 34.3689 5.328 34.2943 4.816L34.2623 4.56H34.4223L43.1423 13.872V5.936C43.1316 5.65867 43.0303 5.42933 42.8383 5.248C42.6463 5.056 42.4169 4.96 42.1503 4.96H41.8463V4.8H45.1423V4.96H44.8543ZM52.2509 16.224C50.5442 16.2133 49.1575 15.6747 48.0909 14.608C47.0349 13.5413 46.5069 12.1387 46.5069 10.4C46.5069 8.66133 47.0349 7.25867 48.0909 6.192C49.1575 5.11467 50.5442 4.576 52.2509 4.576C53.7229 4.576 55.0189 4.93867 56.1389 5.664L56.4589 7.92H56.3149C56.0802 7.00267 55.6055 6.29867 54.8909 5.808C54.1869 5.30667 53.3069 5.056 52.2509 5.056C50.8962 5.056 49.7975 5.54667 48.9549 6.528C48.1229 7.50933 47.7069 8.8 47.7069 10.4C47.7069 12 48.1229 13.2907 48.9549 14.272C49.7975 15.2427 50.8962 15.7333 52.2509 15.744C52.9442 15.744 53.6002 15.6213 54.2189 15.376C54.8482 15.1307 55.3975 14.7893 55.8669 14.352V11.52C55.8669 11.2853 55.7922 11.1093 55.6429 10.992C55.5042 10.864 55.3069 10.8 55.0509 10.8H54.7949V10.64H57.9309V10.8H57.6909C57.4242 10.8 57.2215 10.864 57.0829 10.992C56.9442 11.1093 56.8802 11.2853 56.8909 11.52V14.16C56.6135 14.5227 56.2829 14.848 55.8989 15.136C55.5149 15.424 54.9975 15.68 54.3469 15.904C53.7069 16.1173 53.0082 16.224 52.2509 16.224ZM59.0743 15.84C59.3516 15.84 59.5863 15.744 59.7783 15.552C59.9809 15.3493 60.0876 15.1093 60.0983 14.832V5.952C60.0876 5.67467 59.9809 5.44 59.7783 5.248C59.5863 5.056 59.3516 4.96 59.0743 4.96H58.8663V4.8H62.3703V4.96H62.1623C61.8849 4.96 61.6449 5.056 61.4423 5.248C61.2503 5.44 61.1489 5.67467 61.1383 5.952V14.832C61.1383 15.1093 61.2396 15.3493 61.4423 15.552C61.6449 15.744 61.8849 15.84 62.1623 15.84H62.3703V16H58.8663V15.84H59.0743Z" fill="white"/>
<path fill-rule="evenodd" clip-rule="evenodd" d="M41.5 43C45.6421 43 49 39.6426 49 35.5C49 31.3574 45.6421 28 41.5 28C37.3579 28 34 31.3574 34 35.5C34 39.6426 37.3579 43 41.5 43ZM41.5 43H42V66.5H41V43H41.5Z" fill="#416C72"/>
</svg>
