<svg width="83" height="73" viewBox="0 0 83 73" fill="none" xmlns="http://www.w3.org/2000/svg">
<path d="M24.5781 15.84H24.7701V16H21.2821V15.84H21.4901C21.7567 15.84 21.9861 15.7493 22.1781 15.568C22.3807 15.376 22.4927 15.1413 22.5141 14.864V10.704H16.3221V14.88C16.3221 16.3733 15.9594 17.376 15.2341 17.888C14.9034 18.1227 14.4767 18.2987 13.9541 18.416L13.8741 18.272C14.3541 18.016 14.7061 17.6213 14.9301 17.088C15.1647 16.5547 15.2821 15.8187 15.2821 14.88V5.952C15.2821 5.67467 15.1807 5.44 14.9781 5.248C14.7754 5.056 14.5354 4.96 14.2581 4.96H14.0661V4.8H17.5541V4.96H17.3461C17.0687 4.96 16.8287 5.056 16.6261 5.248C16.4341 5.44 16.3327 5.67467 16.3221 5.952V10.224H22.5141V6.24C22.5247 4.87467 22.8287 3.92533 23.4261 3.392C23.7887 3.072 24.2794 2.84267 24.8981 2.704L24.9781 2.848C24.4981 3.104 24.1407 3.49867 23.9061 4.032C23.6714 4.56533 23.5541 5.30133 23.5541 6.24V14.832C23.5541 15.1093 23.6501 15.3493 23.8421 15.552C24.0447 15.744 24.2901 15.84 24.5781 15.84ZM27.9692 6.192C29.1105 5.11467 30.5879 4.576 32.4012 4.576C34.2252 4.576 35.7079 5.11467 36.8492 6.192C37.9905 7.25867 38.5612 8.66133 38.5612 10.4C38.5612 12.1387 37.9905 13.5467 36.8492 14.624C35.7079 15.6907 34.2252 16.224 32.4012 16.224C30.5879 16.224 29.1105 15.6907 27.9692 14.624C26.8279 13.5467 26.2572 12.1387 26.2572 10.4C26.2572 8.66133 26.8279 7.25867 27.9692 6.192ZM28.8332 14.272C29.7399 15.2533 30.9292 15.744 32.4012 15.744C33.8732 15.744 35.0572 15.2533 35.9532 14.272C36.8599 13.2907 37.3132 12 37.3132 10.4C37.3132 8.8 36.8599 7.50933 35.9532 6.528C35.0572 5.54667 33.8732 5.056 32.4012 5.056C30.9292 5.056 29.7399 5.54667 28.8332 6.528C27.9372 7.50933 27.4892 8.8 27.4892 10.4C27.4892 12 27.9372 13.2907 28.8332 14.272ZM51.6277 4.96C51.361 4.96 51.1317 5.056 50.9397 5.248C50.7477 5.42933 50.6464 5.65333 50.6357 5.92V14.176C50.6357 14.7947 50.673 15.3813 50.7477 15.936L50.7797 16.224H50.6357L41.9157 6.912V14.88C41.9157 15.1467 42.0117 15.376 42.2037 15.568C42.3957 15.7493 42.625 15.84 42.8917 15.84H43.1957V16H39.8997V15.84H40.2037C40.4704 15.84 40.6997 15.7493 40.8917 15.568C41.0837 15.376 41.1797 15.1413 41.1797 14.864V6.56C41.1797 5.90933 41.1424 5.328 41.0677 4.816L41.0357 4.56H41.1957L49.9157 13.872V5.936C49.905 5.65867 49.8037 5.42933 49.6117 5.248C49.4197 5.056 49.1904 4.96 48.9237 4.96H48.6197V4.8H51.9157V4.96H51.6277ZM59.0243 16.224C57.3176 16.2133 55.931 15.6747 54.8643 14.608C53.8083 13.5413 53.2803 12.1387 53.2803 10.4C53.2803 8.66133 53.8083 7.25867 54.8643 6.192C55.931 5.11467 57.3176 4.576 59.0243 4.576C60.4963 4.576 61.7923 4.93867 62.9123 5.664L63.2323 7.92H63.0883C62.8536 7.00267 62.379 6.29867 61.6643 5.808C60.9603 5.30667 60.0803 5.056 59.0243 5.056C57.6696 5.056 56.571 5.54667 55.7283 6.528C54.8963 7.50933 54.4803 8.8 54.4803 10.4C54.4803 12 54.8963 13.2907 55.7283 14.272C56.571 15.2427 57.6696 15.7333 59.0243 15.744C59.7176 15.744 60.3736 15.6213 60.9923 15.376C61.6216 15.1307 62.171 14.7893 62.6403 14.352V11.52C62.6403 11.2853 62.5656 11.1093 62.4163 10.992C62.2776 10.864 62.0803 10.8 61.8243 10.8H61.5683V10.64H64.7043V10.8H64.4643C64.1976 10.8 63.995 10.864 63.8563 10.992C63.7176 11.1093 63.6536 11.2853 63.6643 11.52V14.16C63.387 14.5227 63.0563 14.848 62.6723 15.136C62.2883 15.424 61.771 15.68 61.1203 15.904C60.4803 16.1173 59.7816 16.224 59.0243 16.224ZM65.8477 15.84C66.125 15.84 66.3597 15.744 66.5517 15.552C66.7544 15.3493 66.861 15.1093 66.8717 14.832V5.952C66.861 5.67467 66.7544 5.44 66.5517 5.248C66.3597 5.056 66.125 4.96 65.8477 4.96H65.6397V4.8H69.1437V4.96H68.9357C68.6584 4.96 68.4184 5.056 68.2157 5.248C68.0237 5.44 67.9224 5.67467 67.9117 5.952V14.832C67.9117 15.1093 68.013 15.3493 68.2157 15.552C68.4184 15.744 68.6584 15.84 68.9357 15.84H69.1437V16H65.6397V15.84H65.8477Z" fill="white"/>
<path fill-rule="evenodd" clip-rule="evenodd" d="M41.5 39C45.6421 39 49 35.6426 49 31.5C49 27.3574 45.6421 24 41.5 24C37.3579 24 34 27.3574 34 31.5C34 35.6426 37.3579 39 41.5 39ZM41.5 39H42V72.5H41V39H41.5Z" fill="#B45F3F"/>
</svg>
