<svg width="51" height="55" viewBox="0 0 51 55" fill="none" xmlns="http://www.w3.org/2000/svg">
<path fill-rule="evenodd" clip-rule="evenodd" d="M24.2267 25.9611C22.4259 25.5882 21.0638 24.0027 21.0432 22.0883C21.0196 19.8793 22.7912 18.0687 25.0002 18.0444C27.2092 18.02 29.0191 19.791 29.0428 22C29.0659 24.1616 27.3701 25.9416 25.2275 26.0399L25.5 53.9918L24.5002 54.008L24.2267 25.9611Z" fill="#D3896B"/>
<path d="M7.658 13.86C7.90067 13.86 8.106 13.776 8.274 13.608C8.45133 13.4307 8.54467 13.2253 8.554 12.992V9.366H2.828V12.992C2.828 13.2347 2.91667 13.44 3.094 13.608C3.27133 13.776 3.48133 13.86 3.724 13.86H3.906V14H0.84V13.86H1.022C1.26467 13.86 1.47 13.776 1.638 13.608C1.81533 13.44 1.90867 13.2347 1.918 12.992V5.208C1.90867 4.96533 1.81533 4.76 1.638 4.592C1.47 4.424 1.26467 4.34 1.022 4.34H0.84V4.2H3.906V4.34H3.724C3.48133 4.34 3.27133 4.424 3.094 4.592C2.926 4.76 2.83733 4.96533 2.828 5.208V8.946H8.554V5.208C8.54467 4.872 8.39533 4.62 8.106 4.452C7.966 4.37733 7.81667 4.34 7.658 4.34H7.476V4.2H10.542V4.34H10.36C10.1173 4.34 9.90733 4.42867 9.73 4.606C9.562 4.774 9.47333 4.97933 9.464 5.222V12.992C9.47333 13.2347 9.562 13.44 9.73 13.608C9.90733 13.776 10.1173 13.86 10.36 13.86H10.542V14H7.476V13.86H7.658ZM13.1732 5.418C14.1719 4.47533 15.4646 4.004 17.0512 4.004C18.6472 4.004 19.9446 4.47533 20.9432 5.418C21.9419 6.35133 22.4412 7.57867 22.4412 9.1C22.4412 10.6213 21.9419 11.8533 20.9432 12.796C19.9446 13.7293 18.6472 14.196 17.0512 14.196C15.4646 14.196 14.1719 13.7293 13.1732 12.796C12.1746 11.8533 11.6752 10.6213 11.6752 9.1C11.6752 7.57867 12.1746 6.35133 13.1732 5.418ZM13.9292 12.488C14.7226 13.3467 15.7632 13.776 17.0512 13.776C18.3392 13.776 19.3752 13.3467 20.1592 12.488C20.9526 11.6293 21.3492 10.5 21.3492 9.1C21.3492 7.7 20.9526 6.57067 20.1592 5.712C19.3752 4.85333 18.3392 4.424 17.0512 4.424C15.7632 4.424 14.7226 4.85333 13.9292 5.712C13.1452 6.57067 12.7532 7.7 12.7532 9.1C12.7532 10.5 13.1452 11.6293 13.9292 12.488ZM33.8744 4.34C33.6411 4.34 33.4404 4.424 33.2724 4.592C33.1044 4.75067 33.0158 4.94667 33.0064 5.18V12.404C33.0064 12.9453 33.0391 13.4587 33.1044 13.944L33.1324 14.196H33.0064L25.3764 6.048V13.02C25.3764 13.2533 25.4604 13.454 25.6284 13.622C25.7964 13.7807 25.9971 13.86 26.2304 13.86H26.4964V14H23.6124V13.86H23.8784C24.1118 13.86 24.3124 13.7807 24.4804 13.622C24.6484 13.454 24.7324 13.2487 24.7324 13.006V5.74C24.7324 5.17067 24.6998 4.662 24.6344 4.214L24.6064 3.99H24.7464L32.3764 12.138V5.194C32.3671 4.95133 32.2784 4.75067 32.1104 4.592C31.9424 4.424 31.7418 4.34 31.5084 4.34H31.2424V4.2H34.1264V4.34H33.8744ZM40.3465 14.196C38.8531 14.1867 37.6398 13.7153 36.7065 12.782C35.7825 11.8487 35.3205 10.6213 35.3205 9.1C35.3205 7.57867 35.7825 6.35133 36.7065 5.418C37.6398 4.47533 38.8531 4.004 40.3465 4.004C41.6345 4.004 42.7685 4.32133 43.7485 4.956L44.0285 6.93H43.9025C43.6971 6.12733 43.2818 5.51133 42.6565 5.082C42.0405 4.64333 41.2705 4.424 40.3465 4.424C39.1611 4.424 38.1998 4.85333 37.4625 5.712C36.7345 6.57067 36.3705 7.7 36.3705 9.1C36.3705 10.5 36.7345 11.6293 37.4625 12.488C38.1998 13.3373 39.1611 13.7667 40.3465 13.776C40.9531 13.776 41.5271 13.6687 42.0685 13.454C42.6191 13.2393 43.0998 12.9407 43.5105 12.558V10.08C43.5105 9.87467 43.4451 9.72067 43.3145 9.618C43.1931 9.506 43.0205 9.45 42.7965 9.45H42.5725V9.31H45.3165V9.45H45.1065C44.8731 9.45 44.6958 9.506 44.5745 9.618C44.4531 9.72067 44.3971 9.87467 44.4065 10.08V12.39C44.1638 12.7073 43.8745 12.992 43.5385 13.244C43.2025 13.496 42.7498 13.72 42.1805 13.916C41.6205 14.1027 41.0091 14.196 40.3465 14.196ZM46.3169 13.86C46.5596 13.86 46.7649 13.776 46.9329 13.608C47.1103 13.4307 47.2036 13.2207 47.2129 12.978V5.208C47.2036 4.96533 47.1103 4.76 46.9329 4.592C46.7649 4.424 46.5596 4.34 46.3169 4.34H46.1349V4.2H49.2009V4.34H49.0189C48.7763 4.34 48.5663 4.424 48.3889 4.592C48.2209 4.76 48.1323 4.96533 48.1229 5.208V12.978C48.1229 13.2207 48.2116 13.4307 48.3889 13.608C48.5663 13.776 48.7763 13.86 49.0189 13.86H49.2009V14H46.1349V13.86H46.3169Z" fill="white"/>
</svg>
