<svg width="83" height="87" viewBox="0 0 83 87" fill="none" xmlns="http://www.w3.org/2000/svg">
<path d="M4.256 15.84H4.464V16H0.96V15.84H1.168C1.44533 15.84 1.68 15.744 1.872 15.552C2.07467 15.3493 2.18133 15.1093 2.192 14.832V5.952C2.18133 5.67467 2.07467 5.44 1.872 5.248C1.68 5.056 1.44533 4.96 1.168 4.96H0.96V4.8H4.464V4.96H4.256C3.97867 4.96 3.73867 5.056 3.536 5.248C3.344 5.44 3.24267 5.67467 3.232 5.952V14.832C3.232 15.1093 3.33333 15.3493 3.536 15.552C3.73867 15.744 3.97867 15.84 4.256 15.84ZM15.344 18.4V18.56C14.9387 18.656 14.5333 18.704 14.128 18.704C12.3787 18.704 10.6827 17.8293 9.04 16.08L3.744 10.432L7.52 5.696C7.60533 5.58933 7.648 5.49333 7.648 5.408C7.648 5.32267 7.632 5.248 7.6 5.184C7.51467 5.024 7.36 4.944 7.136 4.944H6.976V4.8H10.352V4.944H10.288C9.584 4.944 9.008 5.19467 8.56 5.696L4.832 10L10.272 15.808C10.976 16.5653 11.7653 17.184 12.64 17.664C13.5253 18.1547 14.4267 18.4 15.344 18.4ZM22.1591 15.84H22.2871V16H18.6871V15.84H18.8311C19.0551 15.84 19.2205 15.7707 19.3271 15.632C19.4445 15.4827 19.5031 15.344 19.5031 15.216C19.5031 15.088 19.4818 14.96 19.4391 14.832L18.4151 12.112H14.0951L13.0231 14.848C12.9805 14.976 12.9591 15.104 12.9591 15.232C12.9591 15.3493 13.0125 15.4827 13.1191 15.632C13.2365 15.7707 13.4071 15.84 13.6311 15.84H13.7751V16H10.5591V15.84H10.7031C10.9698 15.84 11.2311 15.7547 11.4871 15.584C11.7431 15.4133 11.9511 15.1627 12.1111 14.832L15.7271 6.224C16.1218 5.36 16.3191 4.81067 16.3191 4.576H16.4631L20.7511 14.832C20.9005 15.1627 21.1031 15.4133 21.3591 15.584C21.6151 15.7547 21.8818 15.84 22.1591 15.84ZM14.2871 11.632H18.2231L16.3031 6.496L14.2871 11.632ZM26.3498 5.296H25.3258V14.832C25.3258 15.1093 25.4218 15.3493 25.6138 15.552C25.8164 15.744 26.0618 15.84 26.3498 15.84H26.5418L26.5578 16H23.0538V15.84H23.2618C23.5391 15.84 23.7738 15.744 23.9658 15.552C24.1684 15.36 24.2751 15.1253 24.2858 14.848V5.968C24.2751 5.69067 24.1684 5.456 23.9658 5.264C23.7738 5.06133 23.5391 4.96 23.2618 4.96H23.0538V4.8H27.3738C28.3444 4.8 29.1071 5.072 29.6618 5.616C30.2164 6.14933 30.4938 6.848 30.4938 7.712C30.4938 8.56533 30.2271 9.30667 29.6938 9.936C29.1711 10.5547 28.5311 10.864 27.7738 10.864C27.9338 10.9387 28.1204 11.088 28.3338 11.312C28.5578 11.5253 28.7551 11.7493 28.9258 11.984C29.8431 13.296 30.4404 14.1067 30.7178 14.416C30.9951 14.7147 31.1924 14.9227 31.3098 15.04C31.4271 15.1467 31.5551 15.2533 31.6938 15.36C31.8324 15.4667 31.9711 15.552 32.1098 15.616C32.4191 15.7653 32.7498 15.84 33.1018 15.84V16H32.2218C31.7631 16 31.3364 15.92 30.9418 15.76C30.5471 15.5893 30.2484 15.4187 30.0458 15.248C29.8538 15.0667 29.6831 14.896 29.5338 14.736C29.3951 14.5653 29.0004 14.0107 28.3498 13.072C27.6991 12.1333 27.3204 11.6 27.2138 11.472C27.1071 11.3333 26.9951 11.2 26.8778 11.072C26.5364 10.7093 26.1951 10.528 25.8538 10.528V10.368C25.9391 10.3787 26.0511 10.384 26.1898 10.384C26.3284 10.384 26.4991 10.3787 26.7018 10.368C28.0244 10.336 28.8564 9.78133 29.1978 8.704C29.2618 8.49067 29.2938 8.29333 29.2938 8.112C29.2938 7.92 29.2938 7.79733 29.2938 7.744C29.2724 7.02933 29.0858 6.45333 28.7338 6.016C28.3818 5.57867 27.9071 5.344 27.3098 5.312C27.0538 5.30133 26.7338 5.296 26.3498 5.296ZM43.8935 15.84H44.0215V16H40.4215V15.84H40.5655C40.7895 15.84 40.9548 15.7707 41.0615 15.632C41.1788 15.4827 41.2375 15.344 41.2375 15.216C41.2375 15.088 41.2162 14.96 41.1735 14.832L40.1495 12.112H35.8295L34.7575 14.848C34.7148 14.976 34.6935 15.104 34.6935 15.232C34.6935 15.3493 34.7468 15.4827 34.8535 15.632C34.9708 15.7707 35.1415 15.84 35.3655 15.84H35.5095V16H32.2935V15.84H32.4375C32.7042 15.84 32.9655 15.7547 33.2215 15.584C33.4775 15.4133 33.6855 15.1627 33.8455 14.832L37.4615 6.224C37.8562 5.36 38.0535 4.81067 38.0535 4.576H38.1975L42.4855 14.832C42.6348 15.1627 42.8375 15.4133 43.0935 15.584C43.3495 15.7547 43.6162 15.84 43.8935 15.84ZM36.0215 11.632H39.9575L38.0375 6.496L36.0215 11.632ZM56.2761 4.96C56.0095 4.96 55.7801 5.056 55.5881 5.248C55.3961 5.42933 55.2948 5.65333 55.2841 5.92V14.176C55.2841 14.7947 55.3215 15.3813 55.3961 15.936L55.4281 16.224H55.2841L46.5641 6.912V14.88C46.5641 15.1467 46.6601 15.376 46.8521 15.568C47.0441 15.7493 47.2735 15.84 47.5401 15.84H47.8441V16H44.5481V15.84H44.8521C45.1188 15.84 45.3481 15.7493 45.5401 15.568C45.7321 15.376 45.8281 15.1413 45.8281 14.864V6.56C45.8281 5.90933 45.7908 5.328 45.7161 4.816L45.6841 4.56H45.8441L54.5641 13.872V5.936C54.5535 5.65867 54.4521 5.42933 54.2601 5.248C54.0681 5.056 53.8388 4.96 53.5721 4.96H53.2681V4.8H56.5641V4.96H56.2761ZM63.6728 16.224C61.9661 16.2133 60.5794 15.6747 59.5128 14.608C58.4568 13.5413 57.9288 12.1387 57.9288 10.4C57.9288 8.66133 58.4568 7.25867 59.5128 6.192C60.5794 5.11467 61.9661 4.576 63.6728 4.576C65.1448 4.576 66.4408 4.93867 67.5608 5.664L67.8808 7.92H67.7368C67.5021 7.00267 67.0274 6.29867 66.3128 5.808C65.6088 5.30667 64.7288 5.056 63.6728 5.056C62.3181 5.056 61.2194 5.54667 60.3768 6.528C59.5448 7.50933 59.1288 8.8 59.1288 10.4C59.1288 12 59.5448 13.2907 60.3768 14.272C61.2194 15.2427 62.3181 15.7333 63.6728 15.744C64.3661 15.744 65.0221 15.6213 65.6408 15.376C66.2701 15.1307 66.8194 14.7893 67.2888 14.352V11.52C67.2888 11.2853 67.2141 11.1093 67.0648 10.992C66.9261 10.864 66.7288 10.8 66.4728 10.8H66.2168V10.64H69.3528V10.8H69.1128C68.8461 10.8 68.6434 10.864 68.5048 10.992C68.3661 11.1093 68.3021 11.2853 68.3128 11.52V14.16C68.0354 14.5227 67.7048 14.848 67.3208 15.136C66.9368 15.424 66.4194 15.68 65.7688 15.904C65.1288 16.1173 64.4301 16.224 63.6728 16.224ZM81.1123 15.84H81.2403V16H77.6403V15.84H77.7843C78.0083 15.84 78.1736 15.7707 78.2803 15.632C78.3976 15.4827 78.4563 15.344 78.4563 15.216C78.4563 15.088 78.4349 14.96 78.3923 14.832L77.3683 12.112H73.0483L71.9763 14.848C71.9336 14.976 71.9123 15.104 71.9123 15.232C71.9123 15.3493 71.9656 15.4827 72.0723 15.632C72.1896 15.7707 72.3603 15.84 72.5843 15.84H72.7283V16H69.5122V15.84H69.6562C69.9229 15.84 70.1843 15.7547 70.4403 15.584C70.6963 15.4133 70.9043 15.1627 71.0643 14.832L74.6803 6.224C75.0749 5.36 75.2723 4.81067 75.2723 4.576H75.4163L79.7043 14.832C79.8536 15.1627 80.0563 15.4133 80.3123 15.584C80.5683 15.7547 80.8349 15.84 81.1123 15.84ZM73.2403 11.632H77.1763L75.2563 6.496L73.2403 11.632Z" fill="white"/>
<path fill-rule="evenodd" clip-rule="evenodd" d="M43 43.9834C46.9089 43.7266 50 40.4746 50 36.5C50 32.3574 46.6421 29 42.5 29C38.3579 29 35 32.3574 35 36.5C35 40.4746 38.0911 43.7266 42 43.9834V87.001H43V43.9834Z" fill="#72867B"/>
</svg>
