<svg width="72" height="64" viewBox="0 0 72 64" fill="none" xmlns="http://www.w3.org/2000/svg">
<path d="M3.724 13.86H3.906V14H0.84V13.86H1.022C1.26467 13.86 1.47 13.776 1.638 13.608C1.81533 13.4307 1.90867 13.2207 1.918 12.978V5.208C1.90867 4.96533 1.81533 4.76 1.638 4.592C1.47 4.424 1.26467 4.34 1.022 4.34H0.84V4.2H3.906V4.34H3.724C3.48133 4.34 3.27133 4.424 3.094 4.592C2.926 4.76 2.83733 4.96533 2.828 5.208V12.978C2.828 13.2207 2.91667 13.4307 3.094 13.608C3.27133 13.776 3.48133 13.86 3.724 13.86ZM9.352 14H8.75C7.798 14 7.098 13.734 6.65 13.202L3.276 9.128L6.58 4.984C6.65467 4.89067 6.692 4.80667 6.692 4.732C6.692 4.65733 6.678 4.592 6.65 4.536C6.57533 4.396 6.44 4.326 6.244 4.326H6.104V4.2H9.058V4.326H9.002C8.386 4.326 7.882 4.54533 7.49 4.984L4.2 8.792L8.022 13.286C8.39533 13.6593 8.83867 13.8507 9.352 13.86V14ZM19.2252 13.86H19.3372V14H16.1872V13.86H16.3132C16.5092 13.86 16.6538 13.7993 16.7472 13.678C16.8498 13.5473 16.9012 13.426 16.9012 13.314C16.9012 13.202 16.8825 13.09 16.8452 12.978L15.9492 10.598H12.1692L11.2312 12.992C11.1938 13.104 11.1752 13.216 11.1752 13.328C11.1752 13.4307 11.2218 13.5473 11.3152 13.678C11.4178 13.7993 11.5672 13.86 11.7632 13.86H11.8892V14H9.07517V13.86H9.20117C9.43451 13.86 9.66317 13.7853 9.88717 13.636C10.1112 13.4867 10.2932 13.2673 10.4332 12.978L13.5972 5.446C13.9425 4.69 14.1152 4.20933 14.1152 4.004H14.2412L17.9932 12.978C18.1238 13.2673 18.3012 13.4867 18.5252 13.636C18.7492 13.7853 18.9825 13.86 19.2252 13.86ZM12.3372 10.178H15.7812L14.1012 5.684L12.3372 10.178ZM22.892 4.634H21.996V12.978C21.996 13.2207 22.08 13.4307 22.248 13.608C22.4253 13.776 22.64 13.86 22.892 13.86H23.06L23.074 14H20.008V13.86H20.19C20.4326 13.86 20.638 13.776 20.806 13.608C20.9833 13.44 21.0766 13.2347 21.086 12.992V5.222C21.0766 4.97933 20.9833 4.774 20.806 4.606C20.638 4.42867 20.4326 4.34 20.19 4.34H20.008V4.2H23.788C24.6373 4.2 25.3046 4.438 25.79 4.914C26.2753 5.38067 26.518 5.992 26.518 6.748C26.518 7.49467 26.2846 8.14333 25.818 8.694C25.3606 9.23533 24.8006 9.506 24.138 9.506C24.278 9.57133 24.4413 9.702 24.628 9.898C24.824 10.0847 24.9966 10.2807 25.146 10.486C25.9486 11.634 26.4713 12.3433 26.714 12.614C26.9566 12.8753 27.1293 13.0573 27.232 13.16C27.3346 13.2533 27.4466 13.3467 27.568 13.44C27.6893 13.5333 27.8106 13.608 27.932 13.664C28.2026 13.7947 28.492 13.86 28.8 13.86V14H28.03C27.6286 14 27.2553 13.93 26.91 13.79C26.5646 13.6407 26.3033 13.4913 26.126 13.342C25.958 13.1833 25.8086 13.034 25.678 12.894C25.5566 12.7447 25.2113 12.2593 24.642 11.438C24.0726 10.6167 23.7413 10.15 23.648 10.038C23.5546 9.91667 23.4566 9.8 23.354 9.688C23.0553 9.37067 22.7566 9.212 22.458 9.212V9.072C22.5326 9.08133 22.6306 9.086 22.752 9.086C22.8733 9.086 23.0226 9.08133 23.2 9.072C24.3573 9.044 25.0853 8.55867 25.384 7.616C25.44 7.42933 25.468 7.25667 25.468 7.098C25.468 6.93 25.468 6.82267 25.468 6.776C25.4493 6.15067 25.286 5.64667 24.978 5.264C24.67 4.88133 24.2546 4.676 23.732 4.648C23.508 4.63867 23.228 4.634 22.892 4.634ZM38.2428 13.86H38.3548V14H35.2048V13.86H35.3308C35.5268 13.86 35.6714 13.7993 35.7648 13.678C35.8674 13.5473 35.9188 13.426 35.9188 13.314C35.9188 13.202 35.9001 13.09 35.8628 12.978L34.9668 10.598H31.1868L30.2488 12.992C30.2114 13.104 30.1928 13.216 30.1928 13.328C30.1928 13.4307 30.2394 13.5473 30.3328 13.678C30.4354 13.7993 30.5848 13.86 30.7808 13.86H30.9068V14H28.0927V13.86H28.2188C28.4521 13.86 28.6808 13.7853 28.9048 13.636C29.1288 13.4867 29.3108 13.2673 29.4508 12.978L32.6148 5.446C32.9601 4.69 33.1328 4.20933 33.1328 4.004H33.2588L37.0108 12.978C37.1414 13.2673 37.3188 13.4867 37.5428 13.636C37.7668 13.7853 38.0001 13.86 38.2428 13.86ZM31.3548 10.178H34.7988L33.1188 5.684L31.3548 10.178ZM49.0775 4.34C48.8442 4.34 48.6435 4.424 48.4755 4.592C48.3075 4.75067 48.2189 4.94667 48.2095 5.18V12.404C48.2095 12.9453 48.2422 13.4587 48.3075 13.944L48.3355 14.196H48.2095L40.5795 6.048V13.02C40.5795 13.2533 40.6635 13.454 40.8315 13.622C40.9995 13.7807 41.2002 13.86 41.4335 13.86H41.6995V14H38.8155V13.86H39.0815C39.3149 13.86 39.5155 13.7807 39.6835 13.622C39.8515 13.454 39.9355 13.2487 39.9355 13.006V5.74C39.9355 5.17067 39.9029 4.662 39.8375 4.214L39.8095 3.99H39.9495L47.5795 12.138V5.194C47.5702 4.95133 47.4815 4.75067 47.3135 4.592C47.1455 4.424 46.9449 4.34 46.7115 4.34H46.4455V4.2H49.3295V4.34H49.0775ZM55.5496 14.196C54.0563 14.1867 52.8429 13.7153 51.9096 12.782C50.9856 11.8487 50.5236 10.6213 50.5236 9.1C50.5236 7.57867 50.9856 6.35133 51.9096 5.418C52.8429 4.47533 54.0563 4.004 55.5496 4.004C56.8376 4.004 57.9716 4.32133 58.9516 4.956L59.2316 6.93H59.1056C58.9003 6.12733 58.4849 5.51133 57.8596 5.082C57.2436 4.64333 56.4736 4.424 55.5496 4.424C54.3643 4.424 53.4029 4.85333 52.6656 5.712C51.9376 6.57067 51.5736 7.7 51.5736 9.1C51.5736 10.5 51.9376 11.6293 52.6656 12.488C53.4029 13.3373 54.3643 13.7667 55.5496 13.776C56.1563 13.776 56.7303 13.6687 57.2716 13.454C57.8223 13.2393 58.3029 12.9407 58.7136 12.558V10.08C58.7136 9.87467 58.6483 9.72067 58.5176 9.618C58.3963 9.506 58.2236 9.45 57.9996 9.45H57.7756V9.31H60.5196V9.45H60.3096C60.0763 9.45 59.8989 9.506 59.7776 9.618C59.6563 9.72067 59.6003 9.87467 59.6096 10.08V12.39C59.3669 12.7073 59.0776 12.992 58.7416 13.244C58.4056 13.496 57.9529 13.72 57.3836 13.916C56.8236 14.1027 56.2123 14.196 55.5496 14.196ZM70.8092 13.86H70.9212V14H67.7712V13.86H67.8972C68.0932 13.86 68.2378 13.7993 68.3312 13.678C68.4338 13.5473 68.4852 13.426 68.4852 13.314C68.4852 13.202 68.4665 13.09 68.4292 12.978L67.5332 10.598H63.7532L62.8152 12.992C62.7778 13.104 62.7592 13.216 62.7592 13.328C62.7592 13.4307 62.8058 13.5473 62.8992 13.678C63.0018 13.7993 63.1512 13.86 63.3472 13.86H63.4732V14H60.6592V13.86H60.7852C61.0185 13.86 61.2472 13.7853 61.4712 13.636C61.6952 13.4867 61.8772 13.2673 62.0172 12.978L65.1812 5.446C65.5265 4.69 65.6992 4.20933 65.6992 4.004H65.8252L69.5772 12.978C69.7078 13.2673 69.8852 13.4867 70.1092 13.636C70.3332 13.7853 70.5665 13.86 70.8092 13.86ZM63.9212 10.178H67.3652L65.6852 5.684L63.9212 10.178Z" fill="white"/>
<path fill-rule="evenodd" clip-rule="evenodd" d="M35.5002 26.0075C33.5653 25.7458 32.0643 24.0982 32.0428 22.0878C32.0191 19.8788 33.7907 18.0683 35.9997 18.0439C38.2087 18.0195 40.0186 19.7905 40.0423 21.9996C40.0644 24.0684 38.512 25.7877 36.5002 26.0176L36.5002 63L35.5002 63L35.5002 26.0075Z" fill="#859F92"/>
</svg>
