<svg width="68" height="65" viewBox="0 0 68 65" fill="none" xmlns="http://www.w3.org/2000/svg">
<path d="M20.072 0.895999C20.1467 0.895999 20.216 0.895999 20.28 0.895999V1.056C19.7787 1.07733 19.304 1.19467 18.856 1.408C18.408 1.62133 18.0293 1.87733 17.72 2.176C17.4107 2.464 17.1227 2.816 16.856 3.232C16.4293 3.89333 16.0667 4.65067 15.768 5.504L12.696 14.416C12.4827 15.088 12.3653 15.68 12.344 16.192H12.2L8.936 7.056L6.36 15.12C5.976 16.3253 5.35733 17.264 4.504 17.936C3.88533 18.4373 3.192 18.688 2.424 18.688C2.15733 18.688 1.87467 18.656 1.576 18.592L1.608 18.432C1.768 18.464 1.94933 18.48 2.152 18.48C2.36533 18.48 2.64267 18.416 2.984 18.288C3.336 18.16 3.68267 17.9307 4.024 17.6C4.71733 16.928 5.25067 16.0853 5.624 15.072L2.392 5.936C2.264 5.616 2.06667 5.376 1.8 5.216C1.53333 5.04533 1.26133 4.96 0.984 4.96H0.856V4.8H4.408V4.96H4.264C4.04 4.96 3.86933 5.03467 3.752 5.184C3.64533 5.32267 3.592 5.456 3.592 5.584C3.592 5.712 3.608 5.82933 3.64 5.936L6.072 13.728L9.048 4.544L9.192 4.56L12.36 13.424L14.728 5.504C15.0053 4.576 15.432 3.73867 16.008 2.992C17.0747 1.59467 18.4293 0.895999 20.072 0.895999ZM17.4336 15.84C17.711 15.84 17.9456 15.744 18.1376 15.552C18.3403 15.3493 18.447 15.1093 18.4576 14.832V5.872C18.4576 5.616 18.3563 5.40267 18.1536 5.232C17.951 5.05067 17.711 4.96 17.4336 4.96H17.2416L17.2256 4.8H21.9136C22.2443 4.8 22.6016 4.768 22.9856 4.704C23.3803 4.64 23.6576 4.576 23.8176 4.512V6.528H23.6576V6.24C23.6576 5.984 23.567 5.76533 23.3856 5.584C23.215 5.40267 23.007 5.30667 22.7616 5.296H19.4976V10.24H22.2016C22.415 10.2293 22.5963 10.1493 22.7456 10C22.895 9.85067 22.9696 9.664 22.9696 9.44V9.216H23.1296V11.744H22.9696V11.504C22.9696 11.2907 22.895 11.1093 22.7456 10.96C22.607 10.8107 22.431 10.7307 22.2176 10.72H19.4976V15.504H21.7856C22.575 15.504 23.1776 15.328 23.5936 14.976C24.0096 14.624 24.3563 14.1013 24.6336 13.408H24.7936L23.8656 16H17.2256V15.84H17.4336ZM29.5998 5.296H28.5758V14.832C28.5758 15.1093 28.6718 15.3493 28.8638 15.552C29.0664 15.744 29.3118 15.84 29.5998 15.84H29.7918L29.8078 16H26.3038V15.84H26.5118C26.7891 15.84 27.0238 15.744 27.2158 15.552C27.4184 15.36 27.5251 15.1253 27.5358 14.848V5.968C27.5251 5.69067 27.4184 5.456 27.2158 5.264C27.0238 5.06133 26.7891 4.96 26.5118 4.96H26.3038V4.8H30.6238C31.5944 4.8 32.3571 5.072 32.9118 5.616C33.4664 6.14933 33.7438 6.848 33.7438 7.712C33.7438 8.56533 33.4771 9.30667 32.9438 9.936C32.4211 10.5547 31.7811 10.864 31.0238 10.864C31.1838 10.9387 31.3704 11.088 31.5838 11.312C31.8078 11.5253 32.0051 11.7493 32.1758 11.984C33.0931 13.296 33.6904 14.1067 33.9678 14.416C34.2451 14.7147 34.4424 14.9227 34.5598 15.04C34.6771 15.1467 34.8051 15.2533 34.9438 15.36C35.0824 15.4667 35.2211 15.552 35.3598 15.616C35.6691 15.7653 35.9998 15.84 36.3518 15.84V16H35.4718C35.0131 16 34.5864 15.92 34.1918 15.76C33.7971 15.5893 33.4984 15.4187 33.2958 15.248C33.1038 15.0667 32.9331 14.896 32.7838 14.736C32.6451 14.5653 32.2504 14.0107 31.5998 13.072C30.9491 12.1333 30.5704 11.6 30.4638 11.472C30.3571 11.3333 30.2451 11.2 30.1278 11.072C29.7864 10.7093 29.4451 10.528 29.1038 10.528V10.368C29.1891 10.3787 29.3011 10.384 29.4398 10.384C29.5784 10.384 29.7491 10.3787 29.9518 10.368C31.2744 10.336 32.1064 9.78133 32.4478 8.704C32.5118 8.49067 32.5438 8.29333 32.5438 8.112C32.5438 7.92 32.5438 7.79733 32.5438 7.744C32.5224 7.02933 32.3358 6.45333 31.9838 6.016C31.6318 5.57867 31.1571 5.344 30.5598 5.312C30.3038 5.30133 29.9838 5.296 29.5998 5.296ZM37.8051 6.192C38.9465 5.11467 40.4238 4.576 42.2371 4.576C44.0611 4.576 45.5438 5.11467 46.6851 6.192C47.8265 7.25867 48.3971 8.66133 48.3971 10.4C48.3971 12.1387 47.8265 13.5467 46.6851 14.624C45.5438 15.6907 44.0611 16.224 42.2371 16.224C40.4238 16.224 38.9465 15.6907 37.8051 14.624C36.6638 13.5467 36.0931 12.1387 36.0931 10.4C36.0931 8.66133 36.6638 7.25867 37.8051 6.192ZM38.6691 14.272C39.5758 15.2533 40.7651 15.744 42.2371 15.744C43.7091 15.744 44.8931 15.2533 45.7891 14.272C46.6958 13.2907 47.1491 12 47.1491 10.4C47.1491 8.8 46.6958 7.50933 45.7891 6.528C44.8931 5.54667 43.7091 5.056 42.2371 5.056C40.7651 5.056 39.5758 5.54667 38.6691 6.528C37.7731 7.50933 37.3251 8.8 37.3251 10.4C37.3251 12 37.7731 13.2907 38.6691 14.272Z" fill="white"/>
<path fill-rule="evenodd" clip-rule="evenodd" d="M34.5 39C38.6421 39 42 35.6426 42 31.5C42 27.3574 38.6421 24 34.5 24C30.3579 24 27 27.3574 27 31.5C27 35.6426 30.3579 39 34.5 39ZM34.5 39H35V65H34V39H34.5Z" fill="#9F1F21"/>
</svg>
