<svg width="54" height="43" viewBox="0 0 54 43" fill="none" xmlns="http://www.w3.org/2000/svg">
<path fill-rule="evenodd" clip-rule="evenodd" d="M20.5006 27.008C18.5655 26.7465 17.0643 25.0988 17.0428 23.0882C17.0191 20.8792 18.7907 19.0687 20.9997 19.0443C23.2087 19.02 25.0186 20.791 25.0423 23C25.0645 25.0687 23.5122 26.788 21.5006 27.018L21.5 42.0003L20.5 42.0003L20.5006 27.008Z" fill="#C55153"/>
<path d="M17.688 0.783999C17.7533 0.783999 17.814 0.783999 17.87 0.783999V0.924C17.4313 0.942666 17.016 1.04533 16.624 1.232C16.232 1.41867 15.9007 1.64267 15.63 1.904C15.3593 2.156 15.1073 2.464 14.874 2.828C14.5007 3.40667 14.1833 4.06933 13.922 4.816L11.234 12.614C11.0473 13.202 10.9447 13.72 10.926 14.168H10.8L7.944 6.174L5.69 13.23C5.354 14.2847 4.81267 15.106 4.066 15.694C3.52467 16.1327 2.918 16.352 2.246 16.352C2.01267 16.352 1.76533 16.324 1.504 16.268L1.532 16.128C1.672 16.156 1.83067 16.17 2.008 16.17C2.19467 16.17 2.43733 16.114 2.736 16.002C3.044 15.89 3.34733 15.6893 3.646 15.4C4.25267 14.812 4.71933 14.0747 5.046 13.188L2.218 5.194C2.106 4.914 1.93333 4.704 1.7 4.564C1.46667 4.41467 1.22867 4.34 0.986 4.34H0.874V4.2H3.982V4.34H3.856C3.66 4.34 3.51067 4.40533 3.408 4.536C3.31467 4.65733 3.268 4.774 3.268 4.886C3.268 4.998 3.282 5.10067 3.31 5.194L5.438 12.012L8.042 3.976L8.168 3.99L10.94 11.746L13.012 4.816C13.2547 4.004 13.628 3.27133 14.132 2.618C15.0653 1.39533 16.2507 0.783999 17.688 0.783999ZM15.3794 13.86C15.6221 13.86 15.8274 13.776 15.9954 13.608C16.1728 13.4307 16.2661 13.2207 16.2754 12.978V5.138C16.2754 4.914 16.1868 4.72733 16.0094 4.578C15.8321 4.41933 15.6221 4.34 15.3794 4.34H15.2114L15.1974 4.2H19.2994C19.5888 4.2 19.9014 4.172 20.2374 4.116C20.5828 4.06 20.8254 4.004 20.9654 3.948V5.712H20.8254V5.46C20.8254 5.236 20.7461 5.04467 20.5874 4.886C20.4381 4.72733 20.2561 4.64333 20.0414 4.634H17.1854V8.96H19.5514C19.7381 8.95067 19.8968 8.88067 20.0274 8.75C20.1581 8.61933 20.2234 8.456 20.2234 8.26V8.064H20.3634V10.276H20.2234V10.066C20.2234 9.87933 20.1581 9.72067 20.0274 9.59C19.9061 9.45933 19.7521 9.38933 19.5654 9.38H17.1854V13.566H19.1874C19.8781 13.566 20.4054 13.412 20.7694 13.104C21.1334 12.796 21.4368 12.3387 21.6794 11.732H21.8194L21.0074 14H15.1974V13.86H15.3794ZM26.0248 4.634H25.1288V12.978C25.1288 13.2207 25.2128 13.4307 25.3808 13.608C25.5581 13.776 25.7728 13.86 26.0248 13.86H26.1928L26.2068 14H23.1408V13.86H23.3228C23.5654 13.86 23.7708 13.776 23.9388 13.608C24.1161 13.44 24.2094 13.2347 24.2188 12.992V5.222C24.2094 4.97933 24.1161 4.774 23.9388 4.606C23.7708 4.42867 23.5654 4.34 23.3228 4.34H23.1408V4.2H26.9208C27.7701 4.2 28.4374 4.438 28.9228 4.914C29.4081 5.38067 29.6508 5.992 29.6508 6.748C29.6508 7.49467 29.4174 8.14333 28.9508 8.694C28.4934 9.23533 27.9334 9.506 27.2708 9.506C27.4108 9.57133 27.5741 9.702 27.7608 9.898C27.9568 10.0847 28.1294 10.2807 28.2788 10.486C29.0814 11.634 29.6041 12.3433 29.8468 12.614C30.0894 12.8753 30.2621 13.0573 30.3648 13.16C30.4674 13.2533 30.5794 13.3467 30.7008 13.44C30.8221 13.5333 30.9434 13.608 31.0648 13.664C31.3354 13.7947 31.6248 13.86 31.9328 13.86V14H31.1628C30.7614 14 30.3881 13.93 30.0428 13.79C29.6974 13.6407 29.4361 13.4913 29.2588 13.342C29.0908 13.1833 28.9414 13.034 28.8108 12.894C28.6894 12.7447 28.3441 12.2593 27.7748 11.438C27.2054 10.6167 26.8741 10.15 26.7808 10.038C26.6874 9.91667 26.5894 9.8 26.4868 9.688C26.1881 9.37067 25.8894 9.212 25.5908 9.212V9.072C25.6654 9.08133 25.7634 9.086 25.8848 9.086C26.0061 9.086 26.1554 9.08133 26.3328 9.072C27.4901 9.044 28.2181 8.55867 28.5168 7.616C28.5728 7.42933 28.6008 7.25667 28.6008 7.098C28.6008 6.93 28.6008 6.82267 28.6008 6.776C28.5821 6.15067 28.4188 5.64667 28.1108 5.264C27.8028 4.88133 27.3874 4.676 26.8648 4.648C26.6408 4.63867 26.3608 4.634 26.0248 4.634ZM33.2045 5.418C34.2032 4.47533 35.4958 4.004 37.0825 4.004C38.6785 4.004 39.9758 4.47533 40.9745 5.418C41.9732 6.35133 42.4725 7.57867 42.4725 9.1C42.4725 10.6213 41.9732 11.8533 40.9745 12.796C39.9758 13.7293 38.6785 14.196 37.0825 14.196C35.4958 14.196 34.2032 13.7293 33.2045 12.796C32.2058 11.8533 31.7065 10.6213 31.7065 9.1C31.7065 7.57867 32.2058 6.35133 33.2045 5.418ZM33.9605 12.488C34.7538 13.3467 35.7945 13.776 37.0825 13.776C38.3705 13.776 39.4065 13.3467 40.1905 12.488C40.9838 11.6293 41.3805 10.5 41.3805 9.1C41.3805 7.7 40.9838 6.57067 40.1905 5.712C39.4065 4.85333 38.3705 4.424 37.0825 4.424C35.7945 4.424 34.7538 4.85333 33.9605 5.712C33.1765 6.57067 32.7845 7.7 32.7845 9.1C32.7845 10.5 33.1765 11.6293 33.9605 12.488Z" fill="white"/>
</svg>
