<svg width="55" height="44" viewBox="0 0 55 44" fill="none" xmlns="http://www.w3.org/2000/svg">
<path d="M8.128 5.832C9.152 3.912 9.81333 3.63467 10.112 5C10.4533 6.536 10.2187 9.288 9.408 13.256C8.55467 17.1387 7.85067 21.2347 7.296 25.544C6.74133 29.8107 6.35733 32.584 6.144 33.864C5.67467 36.3813 5.93067 37.5973 6.912 37.512C7.38133 37.4693 7.936 37.128 8.576 36.488C8.91733 36.1467 9.728 35.848 11.008 35.592C12.3307 35.2933 13.7813 35.1227 15.36 35.08C19.072 34.8667 20.9707 35.272 21.056 36.296C21.1413 37.2773 19.52 38.2587 16.192 39.24C15.8933 39.368 15.5733 39.4747 15.232 39.56C11.4773 40.584 8.46933 41.4373 6.208 42.12C4.20267 42.76 2.64533 42.5893 1.536 41.608C0.426667 40.584 0.298667 39.24 1.152 37.576C1.83467 36.3813 2.73067 33.1813 3.84 27.976C4.94933 22.728 5.73867 18.12 6.208 14.152C6.67733 10.0987 7.31733 7.32533 8.128 5.832ZM28.0875 16.264C28.2155 15.752 28.3648 15.4533 28.5355 15.368C28.7062 15.24 28.9195 15.2827 29.1755 15.496C29.4315 15.6667 29.7942 16.072 30.2635 16.712C31.3302 18.12 31.5222 19.2507 30.8395 20.104C30.1995 20.9147 29.4102 23.752 28.4715 28.616C27.4048 34.4613 26.6795 37.64 26.2955 38.152C25.9968 38.536 25.4848 38.3653 24.7595 37.64C24.6742 37.5973 24.5888 37.512 24.5035 37.384C23.8208 36.7013 23.4155 36.0827 23.2875 35.528C23.2022 34.9733 23.3728 34.2907 23.7995 33.48C24.3968 32.3707 25.2075 29.3413 26.2315 24.392C27.2982 19.4 27.9168 16.6907 28.0875 16.264ZM26.8715 3.208C26.6155 2.26933 26.6795 1.544 27.0635 1.032C27.4475 0.477331 27.9808 0.327998 28.6635 0.584C29.3462 0.797333 29.9435 1.352 30.4555 2.248C30.8822 3.016 31.3302 3.42133 31.7995 3.464C32.2688 3.50667 33.1648 3.25067 34.4875 2.696C35.2982 2.312 36.0662 2.07733 36.7915 1.992C37.5595 1.864 38.0502 1.90667 38.2635 2.12C38.5622 2.376 38.4982 2.80266 38.0715 3.4C37.6875 3.95466 37.0688 4.53067 36.2155 5.128C35.4048 5.72533 34.5515 6.17333 33.6555 6.472C32.8448 6.77066 32.9302 7.752 33.9115 9.416C34.5942 10.568 34.8502 11.6347 34.6795 12.616C34.5088 13.5547 33.9968 14.024 33.1435 14.024C32.8875 14.024 32.5462 13.7467 32.1195 13.192C31.6928 12.5947 31.2875 11.8907 30.9035 11.08C30.3062 9.75733 29.8155 9.032 29.4315 8.904C29.0475 8.776 28.2368 9.096 26.9995 9.864C25.2502 10.9733 23.8848 11.2293 22.9035 10.632C22.3488 10.2907 22.1782 9.90667 22.3915 9.48C22.6475 9.05333 23.3515 8.47733 24.5035 7.752C25.6555 7.02666 26.4022 6.344 26.7435 5.704C27.0848 5.064 27.1275 4.232 26.8715 3.208ZM43.989 12.68C43.989 10.1627 44.0957 8.456 44.309 7.56C44.565 6.62133 45.013 6.152 45.653 6.152C47.1463 6.152 47.765 7.304 47.509 9.608C47.509 9.608 47.4663 9.94933 47.381 10.632C47.2957 11.3147 47.1677 12.1893 46.997 13.256C46.869 14.3227 46.7197 15.5813 46.549 17.032C46.3783 18.44 46.1863 19.912 45.973 21.448C45.8023 22.984 45.6103 24.5413 45.397 26.12C45.1837 27.6987 44.9917 29.192 44.821 30.6C44.693 32.008 44.565 33.288 44.437 34.44C44.3517 35.592 44.2877 36.488 44.245 37.128C44.2023 37.768 44.2237 38.152 44.309 38.28C44.5223 38.4933 46.0797 38.0667 48.981 37C51.8823 35.8907 53.461 35.4853 53.717 35.784C54.3143 36.3813 54.2503 37.2133 53.525 38.28C52.7997 39.304 51.925 39.816 50.901 39.816C50.3037 39.816 49.493 40.0507 48.469 40.52C47.4877 40.9893 46.5917 41.5653 45.781 42.248C43.9463 43.656 42.325 44.168 40.917 43.784C39.8077 43.4853 39.4877 42.696 39.957 41.416C40.6397 39.624 41.4717 35.1653 42.453 28.04C43.477 20.9147 43.989 15.7947 43.989 12.68Z" fill="white"/>
</svg>
