<svg width="79" height="79" viewBox="0 0 79 79" fill="none" xmlns="http://www.w3.org/2000/svg">
<g filter="url(#filter0_d)">
<path d="M69.863 35.3972C68.904 34.9568 67.79 35.4158 67.3727 36.4276C67.3012 36.5962 66.0497 39.456 63.115 41.0777C63.9909 39.772 64.6837 38.4988 65.2267 37.3191C67.8086 31.7111 67.7142 26.9659 67.7089 26.7665C67.6797 25.6633 66.8098 24.788 65.7627 24.8249C64.7172 24.8558 63.8933 25.775 63.9226 26.8784C63.9258 26.9947 64.032 35.4198 56.9939 42.4098C54.195 38.8915 54.539 34.0114 54.5445 33.9391C54.636 32.8429 53.8698 31.8742 52.8304 31.7737C51.787 31.6726 50.867 32.4825 50.7718 33.5819C50.748 33.857 50.2599 40.1053 54.045 44.9169C52.2337 46.2347 50.0883 47.4424 47.5522 48.4607C47.2945 44.7184 46.4186 40.6086 44.4981 36.3724C43.7253 34.668 43.0124 33.0139 42.3546 31.4147C49.1552 28.2398 52.1353 22.7459 53.4371 18.5278C53.4443 18.5041 53.4508 18.4806 53.4581 18.4571C59.7877 18.3452 63.4748 13.0416 64.3379 10.051C64.6425 8.99532 64.08 7.87381 63.0794 7.55242C62.0778 7.22969 61.0218 7.82121 60.7172 8.8767C60.6487 9.10543 59.1183 14.0118 54.3398 14.4334C54.7484 11.4941 54.5537 9.38676 54.5416 9.26299C54.434 8.16722 53.5085 7.37427 52.4679 7.48326C51.4291 7.59382 50.6714 8.57321 50.7732 9.66943C50.7766 9.70569 51.0927 13.3151 49.7928 17.4251C49.4083 18.6415 48.9225 19.7679 48.347 20.8125C46.0973 19.0596 44.9198 14.3853 44.661 12.6345C44.5011 11.5447 43.5368 10.7968 42.5022 10.9644C41.4684 11.1316 40.7586 12.1515 40.9171 13.2425C41.0477 14.1416 42.152 20.9311 46.0517 24.0024C44.6336 25.531 42.9119 26.7736 40.8935 27.7244C35.858 14.4802 34.8129 5.86109 34.801 5.75814C34.6752 4.66326 33.7334 3.88396 32.6949 4.01422C31.6563 4.14582 30.9156 5.14087 31.0401 6.23664C31.1006 6.7664 32.6145 19.4246 41.0804 38.0975C43.6299 43.7207 44.4175 49.7796 43.4209 56.1067C43.4029 56.2211 43.3845 56.3344 43.3656 56.4467C43.3176 56.2898 43.2682 56.1314 43.2171 55.9718C41.7108 51.2852 38.315 44.5461 30.6914 39.0554C30.0968 38.6272 29.5258 38.1745 28.9719 37.7038C31.1882 35.6389 32.3474 32.6101 32.3474 28.8212C32.3474 25.5406 31.4573 22.8091 31.4196 22.6945C31.0753 21.6524 29.9948 21.1025 29.0078 21.4653C28.0202 21.8288 27.4985 22.968 27.8428 24.01C27.8689 24.0892 30.2691 31.5499 26.1741 34.9541C23.2485 31.62 21.0938 27.5131 19.7443 22.6808C18.249 17.3275 18.3574 13.0487 18.3587 13.0096C18.3952 11.9064 17.577 10.9812 16.5317 10.9431C15.4849 10.9004 14.6093 11.7679 14.5732 12.8708C14.5668 13.0664 14.4345 17.7257 16.0716 23.6687C18.2514 31.5822 22.5687 38.0444 28.5562 42.3568C28.5865 42.3787 28.6151 42.4015 28.6455 42.4235C27.1628 42.3834 25.3869 42.2068 23.5342 41.735C17.3588 40.1619 13.3838 36.1342 11.7204 29.7633C11.4425 28.6995 10.3995 28.0748 9.39131 28.3674C8.38289 28.6605 7.79065 29.7608 8.06853 30.8248C10.0966 38.5914 15.137 43.7075 22.6452 45.6197C25.1298 46.2526 27.4854 46.4294 29.3419 46.4294C31.1383 46.4294 32.4647 46.2643 32.991 46.1862C34.9728 48.2441 36.6019 50.5191 37.8697 52.9978C35.1122 53.7086 27.2323 55.0676 20.9729 49.5811C20.1685 48.8761 18.9745 48.9923 18.3059 49.8414C17.6375 50.6901 17.748 51.9499 18.5526 52.6554C23.1272 56.6654 28.2673 57.7108 32.3843 57.7108C35.6351 57.7108 38.2469 57.059 39.4397 56.6998C39.4838 56.8281 39.5317 56.9541 39.5741 57.0832C41.0301 61.5162 40.8923 64.8619 40.8908 64.8886C40.8407 65.8261 41.4158 66.6741 42.2732 66.9263C42.4422 66.976 42.6132 67 42.7818 67C43.4693 67 44.1207 66.6034 44.4552 65.9371C44.5223 65.8037 44.9353 64.9627 45.4424 63.5594C56.4038 63.1498 63.4916 56.3686 63.8112 56.0568C64.578 55.3091 64.6251 54.049 63.9183 53.2382C63.2118 52.4275 62.0146 52.3745 61.2439 53.1184C61.1792 53.1809 55.4342 58.6237 46.6475 59.469C47.0978 57.5369 47.4718 55.2448 47.5944 52.695C52.3561 50.9779 55.9676 48.6611 58.7048 46.1756C58.7214 46.1756 58.7382 46.1759 58.7547 46.1759C67.384 46.1759 70.7039 38.3667 70.8417 38.0326C71.2594 37.0196 70.822 35.8374 69.863 35.3972Z" fill="#FFC94D"/>
</g>
<defs>
<filter id="filter0_d" x="0" y="0" width="79" height="79" filterUnits="userSpaceOnUse" color-interpolation-filters="sRGB">
<feFlood flood-opacity="0" result="BackgroundImageFix"/>
<feColorMatrix in="SourceAlpha" type="matrix" values="0 0 0 0 0 0 0 0 0 0 0 0 0 0 0 0 0 0 127 0"/>
<feOffset dy="4"/>
<feGaussianBlur stdDeviation="4"/>
<feColorMatrix type="matrix" values="0 0 0 0 0 0 0 0 0 0 0 0 0 0 0 0 0 0 0.12 0"/>
<feBlend mode="normal" in2="BackgroundImageFix" result="effect1_dropShadow"/>
<feBlend mode="normal" in="SourceGraphic" in2="effect1_dropShadow" result="shape"/>
</filter>
</defs>
</svg>
