<svg width="40" height="40" viewBox="0 0 40 40" fill="none" xmlns="http://www.w3.org/2000/svg">
<path d="M27.0947 4.60364C26.4603 4.22631 25.7053 4.23169 25.0742 4.61642C25.0333 4.64131 24.9957 4.6709 24.9613 4.70453L16.3712 12.9964C16.274 13.0449 16.1682 13.0697 16.0605 13.0697H10.6612C9.55136 13.0697 8.64844 14.0067 8.64844 15.1575V23.7622C8.64844 24.9123 9.55136 25.8493 10.6618 25.8493H16.0612C16.1689 25.8493 16.2746 25.8741 16.3719 25.9226L24.9613 34.2145C24.9957 34.2481 25.034 34.2777 25.0742 34.3026C25.3933 34.497 25.7442 34.5945 26.0951 34.5945C26.4383 34.5945 26.7814 34.5017 27.0954 34.3154C27.7291 33.9387 28.1079 33.2621 28.1079 32.504V6.41497C28.1079 5.65694 27.7291 4.9803 27.0947 4.60364ZM26.8106 32.504C26.8106 32.8921 26.5583 33.0838 26.45 33.1484C26.3475 33.2089 26.0854 33.3246 25.7851 33.1733L17.1944 24.88C17.1594 24.8457 17.1211 24.8161 17.0802 24.7919C16.7708 24.6029 16.4186 24.504 16.0605 24.504H10.6612C10.2668 24.504 9.94573 24.1711 9.94573 23.7615V15.1575C9.94573 14.7479 10.2668 14.415 10.6618 14.415H16.0612C16.4186 14.415 16.7715 14.3161 17.0809 14.1271C17.1217 14.1029 17.16 14.0733 17.195 14.039L25.7857 5.74573C26.0874 5.59372 26.3488 5.71008 26.4506 5.77062C26.5583 5.83519 26.8106 6.02688 26.8106 6.41497V32.504Z" fill="white"/>
<path d="M20 0C8.972 0 0 8.972 0 20C0 31.028 8.972 40 20 40C31.028 40 40 31.028 40 20C40 8.972 31.028 0 20 0ZM20 38.6667C9.70733 38.6667 1.33333 30.2927 1.33333 20C1.33333 9.70733 9.70733 1.33333 20 1.33333C30.2927 1.33333 38.6667 9.70733 38.6667 20C38.6667 30.2927 30.2927 38.6667 20 38.6667Z" fill="white"/>
</svg>
