<svg width="41" height="49" viewBox="0 0 41 49" fill="none" xmlns="http://www.w3.org/2000/svg">
<path fill-rule="evenodd" clip-rule="evenodd" d="M35.9208 0.394623C36.5535 0.140146 39.1957 0.0376467 40.6356 0.000130752C40.9644 -0.00838691 41.126 0.401322 40.8824 0.62259C39.8132 1.59447 37.8278 3.35379 37.1951 3.60827C36.649 3.82801 35.8147 3.84284 35.1755 3.61114L31.8915 4.93234C30.9381 4.33897 29.7799 4.04009 28.5706 4.16125L34.4551 1.79382C34.7599 1.18236 35.3747 0.614264 35.9208 0.394623ZM26.3049 6.94542C27.0044 6.16725 28.0115 5.69744 29.0899 5.69744C30.2211 5.69744 31.325 6.2085 32.059 7.15855C32.059 7.15855 25.2205 8.04458 24.9675 8.04458C24.7175 8.04458 24.5497 8.02467 24.2831 7.8881C23.8214 7.62463 22.7352 6.19136 22.5334 5.45607C22.4952 5.35855 22.5969 5.28629 22.6763 5.35214C23.1439 5.81343 24.2472 6.35483 24.7756 6.59208C24.7235 6.45656 24.6908 6.31999 24.6871 6.18706C24.5694 5.53541 25.3807 3.24311 26.0266 2.4814C26.1035 2.36789 26.2566 2.42512 26.2438 2.56141C26.0617 3.56687 26.4111 5.62595 26.5089 6.08896C26.5106 6.31568 26.4188 6.63448 26.3049 6.94542ZM32.8137 8.93599L25.3587 9.90298C25.5355 11.5096 26.7288 12.8823 28.3875 13.2026C30.4265 13.5961 32.3956 12.2502 32.7861 10.1973C32.8676 9.76909 32.8731 9.34426 32.8137 8.93599ZM38.8025 19.4272C39.6607 19.2191 40.5292 19.7069 40.8109 20.535C41.141 21.5006 40.5697 22.5265 39.601 22.7617L32.9875 24.3682C32.4415 24.5009 31.8511 24.3515 31.4305 23.9586L26.1863 19.0611L30.3358 25.1808L29.4382 29.898L32.0994 35.829C32.1558 35.9547 32.1995 36.0857 32.2298 36.2203L34.5469 46.4849C34.7972 47.5933 34.1079 48.6962 33.0074 48.9481C31.9122 49.1998 30.813 48.51 30.5619 47.3975L28.2905 37.3351L24.9512 29.8925L23.9081 29.6912L25.1123 37.4173C25.1671 37.7693 25.1304 38.1295 25.0055 38.4628L21.5587 47.6675C21.1603 48.7312 19.9813 49.2677 18.9258 48.8668C17.8698 48.4657 17.3367 47.2785 17.735 46.2149L20.9914 37.5187L19.8934 30.4503C19.7921 29.7985 19.8033 29.1337 19.9266 28.4857L21.9772 17.7083L19.2336 17.5604C18.8794 17.5413 18.54 17.4111 18.2629 17.1879L12.6542 12.6702L1.49837 17.1581C1.00048 17.3584 0.435214 17.1145 0.236055 16.6124C0.0370866 16.1107 0.279574 15.5415 0.777755 15.341L11.7573 10.924C11.7916 10.6133 11.9092 10.308 12.1174 10.0458C12.7038 9.30744 13.7734 9.18743 14.5067 9.77802L14.5397 9.80472L21.5343 6.99083C21.8489 7.53462 22.3012 8.16464 22.7317 8.61617L16.2842 11.2099L19.9599 14.1706L23.4118 14.3569C23.942 14.011 24.6 13.8621 25.2694 13.9913L29.7162 14.8496C31.0934 15.1154 31.9958 16.4553 31.7319 17.8424L31.6662 18.1874L28.3274 16.383L33.0765 20.8181L38.8025 19.4272Z" fill="white"/>
</svg>
