<svg width="72" height="60" viewBox="0 0 72 60" fill="none" xmlns="http://www.w3.org/2000/svg">
<path d="M42.9779 8.23C43.2561 8.29522 43.5104 8.33276 43.7449 8.34676C44.3808 8.38414 44.8298 8.23461 45.132 7.96404C45.434 7.69791 45.6328 7.27764 45.7639 6.78294C45.8712 6.36267 45.9308 5.89135 45.9507 5.40586C45.9785 4.72424 46.4674 4.20154 47.0475 4.23415C47.294 4.24815 47.445 4.33691 47.6398 4.48611C47.755 4.57026 48.2439 4.89699 48.987 4.80362V3.90264C48.987 3.51053 48.8518 3.15581 48.6293 2.89429C48.4067 2.63294 48.1006 2.47419 47.7669 2.47419H44.1941C43.8603 2.47419 43.5583 2.63294 43.3357 2.89429C43.1132 3.15581 42.978 3.51053 42.978 3.90264L42.9779 8.23ZM48.9868 7.26381C48.5655 7.29181 48.184 7.24504 47.8503 7.16566C47.6158 8.25322 47.1706 9.23835 46.3997 9.92458C45.5213 10.704 44.4603 10.9048 43.3871 10.7882C43.5184 11.0495 43.6774 11.2923 43.8602 11.5024C44.4046 12.1466 45.1558 12.5434 45.9824 12.5434C46.8091 12.5434 47.5603 12.1466 48.1047 11.5024C48.6492 10.8628 48.987 9.98057 48.987 9.00961L48.9868 7.26381ZM18.6672 8.23C18.9453 8.29522 19.2037 8.33276 19.4381 8.34676C20.0741 8.38414 20.5191 8.23461 20.8253 7.96404C21.1232 7.69791 21.326 7.27764 21.4533 6.78294C21.5644 6.36267 21.6201 5.89135 21.64 5.40586C21.6678 4.72424 22.1606 4.20154 22.7409 4.23415C22.9635 4.24353 23.1384 4.32752 23.3171 4.47228C23.4007 4.53749 23.8974 4.90161 24.6804 4.80362V3.90264C24.6804 3.51053 24.5414 3.15581 24.3187 2.89429C24.1001 2.63294 23.7941 2.47419 23.4603 2.47419H19.8875C19.5537 2.47419 19.2476 2.63294 19.0251 2.89429C18.8065 3.15581 18.6675 3.51053 18.6675 3.90264L18.6672 8.23ZM24.6803 7.26381C24.259 7.29181 23.8734 7.24504 23.5396 7.16566C23.309 8.25322 22.8599 9.23835 22.0889 9.92458C21.2146 10.704 20.1535 10.9048 19.0805 10.7882C19.2117 11.0495 19.3706 11.2923 19.5495 11.5024C20.0979 12.1466 20.849 12.5434 21.6717 12.5434C22.4983 12.5434 23.2495 12.1466 23.7939 11.5024C24.3385 10.8628 24.6803 9.98057 24.6803 9.00961V7.26381ZM41.6066 12.1046C41.1417 11.1991 40.8714 10.1393 40.8714 9.00977V3.90264C40.8714 2.82891 41.245 1.8535 41.8493 1.14833C42.4493 0.438714 43.28 0 44.1941 0H47.7668C48.6848 0 49.5155 0.438714 50.1156 1.14833C50.7197 1.85334 51.0932 2.82891 51.0932 3.90264V9.00977C51.0932 10.0787 50.8508 11.0869 50.4296 11.9599C50.7476 12.1934 51.0377 12.4968 51.2762 12.875L55.0001 18.6635H56.8838L61.025 4.122C61.2078 3.47793 61.8039 3.13242 62.3524 3.34717C62.9009 3.56191 63.1989 4.26214 63.0122 4.90638L59.0935 18.6635H59.6539C60.5362 18.6635 61.335 19.0836 61.9112 19.7604C62.4874 20.4372 62.8452 21.3756 62.8452 22.4118C62.8452 23.4435 62.4874 24.3819 61.9112 25.0587C61.335 25.7354 60.5361 26.1557 59.6539 26.1557H56.9594L55.7075 30.5624C58.0681 30.441 60.2421 29.4655 62.0026 27.8969C63.9301 26.1743 65.3726 23.7375 66.0406 20.918C66.1955 20.2643 66.7718 19.877 67.3322 20.059C67.5348 20.1242 67.7176 20.2597 67.8528 20.4511C68.0596 20.7406 68.1985 20.9273 68.3296 21.1047C70.4956 24.0645 71.7834 25.8243 71.7834 33.0366C71.7834 37.2707 69.6412 42.6111 66.2472 46.6023C63.3261 50.0289 59.4672 52.5075 55.2067 52.5075H53.3308L52.3134 56.0739C51.9001 57.5257 51.0217 58.646 49.9407 59.2763C48.8596 59.9109 47.5681 60.0605 46.336 59.575C45.1001 59.0895 44.1463 58.0578 43.6057 56.7879C43.0334 55.4342 42.958 53.9358 43.3672 52.5073H29.0201L28.0027 56.0737C27.5893 57.5255 26.711 58.6459 25.63 59.2761C24.5491 59.9108 23.2613 60.0603 22.0254 59.5748C20.7894 59.0893 19.8395 58.0576 19.2991 56.7877C18.7228 55.4341 18.6513 53.9356 19.0607 52.5072H16.5766C13.6356 52.5072 10.8856 51.3214 8.501 49.4587C5.81025 47.358 3.58468 44.3845 2.09434 41.2709C1.81225 40.6779 1.99115 39.9264 2.49573 39.5903C3.00453 39.2588 3.64427 39.4689 3.92649 40.0618C5.26584 42.8579 7.25699 45.5281 9.65739 47.4048C11.72 49.0106 14.0767 50.033 16.5766 50.033H19.764L21.4412 44.1418C21.8545 42.6901 22.7328 41.5696 23.8138 40.9348C24.5967 40.4773 25.487 40.2719 26.3891 40.3791L28.4756 33.0455H16.5766C13.5522 33.0455 10.7623 31.8599 8.51698 29.8572C6.72072 28.2514 5.27776 26.1227 4.35986 23.6673C2.93302 25.7119 2.10653 27.5606 2.10653 33.0363C2.10653 33.7693 2.18196 34.4975 2.30912 35.2163C2.42844 35.884 2.06265 36.5374 1.49834 36.6774C0.930099 36.8128 0.373778 36.388 0.254466 35.7206C0.0994031 34.8433 0 33.9331 0 33.0366C0 25.8243 1.28775 24.0645 3.45373 21.1049C3.58875 20.9275 3.7239 20.7408 3.93463 20.4512C4.30812 19.9284 4.96791 19.8678 5.41305 20.3065C5.59181 20.4839 5.7072 20.7128 5.75487 20.9601C6.42671 23.761 7.86532 26.1838 9.78483 27.897C11.4063 29.3441 13.3775 30.2823 15.5237 30.5158V26.6505C15.5237 25.9689 15.9966 25.4182 16.5769 25.4182C17.1572 25.4182 17.6301 25.9691 17.6301 26.6505V30.5718H25.7179V23.3455L23.4367 19.793C23.087 19.2515 23.1783 18.4767 23.6435 18.066C24.1045 17.6551 24.7641 17.7625 25.1138 18.3087L27.5739 22.1366L28.2455 23.1776C28.4562 23.5043 28.7582 23.6864 29.1079 23.6864H35.3476C35.6456 23.6864 35.9199 23.5417 36.1147 23.3129C36.3095 23.0794 36.4327 22.7619 36.4327 22.4118C36.4327 22.0571 36.3095 21.7397 36.1147 21.5062C35.9199 21.2775 35.6456 21.1327 35.3476 21.1327H30.6501C30.2844 21.1327 29.9822 21.0487 29.704 20.876C29.4298 20.7032 29.2231 20.4791 29.0404 20.1943L25.2928 14.359C25.1379 14.1162 24.9073 13.9437 24.653 13.8829C23.8145 14.5925 22.7852 15.0124 21.6723 15.0124C20.6072 15.0124 19.6176 14.6251 18.799 13.9667C18.497 14.0881 18.2347 14.3074 18.036 14.5876C17.7814 14.9378 17.6304 15.3952 17.6304 15.8994V21.0578C17.6304 21.7394 17.1575 22.2949 16.5772 22.2949C15.9969 22.2949 15.524 21.7394 15.524 21.0578V15.8994C15.524 14.8025 15.8658 13.7895 16.4301 13.0004C16.6805 12.6549 16.9747 12.3517 17.2966 12.1042C16.8317 11.1986 16.5653 10.1388 16.5653 9.00928V3.90264C16.5653 2.82891 16.9388 1.8535 17.5388 1.14833C18.1392 0.438714 18.9737 0 19.8878 0H23.4605C24.3747 0 25.2052 0.438714 25.8093 1.14833C26.4094 1.85334 26.783 2.82891 26.783 3.90264V9.00977C26.783 10.0787 26.5446 11.0869 26.1233 11.9599C26.4412 12.1934 26.7274 12.4968 26.9698 12.875L30.6898 18.6635H32.5737L36.7147 4.122C36.9015 3.47793 37.4938 3.13242 38.0422 3.34717C38.5945 3.56191 38.8886 4.26214 38.7058 4.90638L34.7873 18.6635H35.3476C36.2259 18.6635 37.0248 19.0836 37.601 19.7604C38.1813 20.4372 38.5349 21.3756 38.5349 22.4118C38.5349 23.4435 38.1813 24.3819 37.601 25.0587C37.0248 25.7354 36.2258 26.1557 35.3476 26.1557H32.653L31.3933 30.5716H39.8346V26.6504C39.8346 25.9688 40.3035 25.4181 40.8837 25.4181C41.4679 25.4181 41.9369 25.9689 41.9369 26.6504V30.5716H50.0246V23.3454L47.7434 19.7928C47.3937 19.2514 47.4889 18.4765 47.95 18.0658C48.4149 17.6549 49.0708 17.7623 49.4205 18.3086L51.8806 22.1364L52.5521 23.1774C52.7629 23.5041 53.0649 23.6863 53.4186 23.6863H59.6544C59.9563 23.6863 60.2267 23.5415 60.4214 23.3128C60.6202 23.0792 60.7394 22.7617 60.7394 22.4116C60.7394 22.0569 60.6202 21.7396 60.4214 21.506C60.2267 21.2773 59.9565 21.1325 59.6544 21.1325H54.9563C54.5907 21.1325 54.2885 21.0485 54.0143 20.8758C53.7399 20.703 53.5333 20.4789 53.3506 20.1942L49.5988 14.3588C49.4439 14.1161 49.2134 13.9435 48.963 13.8827C48.1204 14.5923 47.0911 15.0123 45.9823 15.0123C44.9172 15.0123 43.9276 14.6249 43.1051 13.9665C42.815 14.0879 42.5566 14.2981 42.3578 14.5686C42.0956 14.9234 41.9365 15.3902 41.9365 15.8991V21.0574C41.9365 21.7391 41.4675 22.2945 40.8833 22.2945C40.303 22.2945 39.8342 21.7391 39.8342 21.0574V15.8991C39.8342 14.7788 40.1879 13.7518 40.7721 12.9582C41.0104 12.6275 41.2925 12.3382 41.6066 12.1046ZM44.0708 50.0335L45.7519 44.1423C46.1651 42.6906 47.0435 41.5701 48.1244 40.9353C48.9075 40.4778 49.7976 40.2724 50.6959 40.3796L52.7863 33.046H30.6895L28.3763 41.1594C29.1513 41.7149 29.7555 42.5085 30.149 43.4281C30.6856 44.6978 30.8127 46.2104 30.3994 47.662L29.7236 50.0335H44.0708ZM52.6869 41.1592C53.4578 41.7147 54.0662 42.5083 54.4555 43.4279C54.996 44.6976 55.1232 46.2102 54.7099 47.6619L54.0341 50.0333H55.2066C58.8471 50.0333 62.1972 47.8625 64.7567 44.8563C67.7772 41.3086 69.6809 36.6591 69.6809 33.0366C69.6809 27.5609 68.8541 25.7122 67.4276 23.6677C66.5055 26.1231 65.0667 28.2518 63.2662 29.8576C61.8594 31.1133 60.2379 32.047 58.4774 32.5699C57.305 32.9154 56.2041 33.046 54.996 33.046L52.6869 41.1592ZM53.4897 30.5718L54.7497 26.1558H53.4182C52.9771 26.1558 52.5359 26.0437 52.1304 25.8291V30.572L53.4897 30.5718ZM29.183 30.5718L30.4389 26.1558H29.1074C28.6664 26.1558 28.2291 26.0437 27.8198 25.8291V30.572L29.183 30.5718Z" fill="white"/>
</svg>
