<svg width="20" height="24" viewBox="0 0 20 24" fill="none" xmlns="http://www.w3.org/2000/svg">
<path fill-rule="evenodd" clip-rule="evenodd" d="M17.5124 0.193284C17.8222 0.0686427 19.1164 0.0184392 19.8216 6.40415e-05C19.9827 -0.00410786 20.0618 0.196565 19.9425 0.304941C19.4188 0.78096 18.4464 1.64267 18.1365 1.76731C17.869 1.87494 17.4604 1.8822 17.1473 1.76872L15.5388 2.41583C15.0718 2.1252 14.5046 1.97881 13.9123 2.03816L16.7944 0.878602C16.9437 0.579115 17.2449 0.300863 17.5124 0.193284ZM12.8024 3.40205C13.145 3.0209 13.6383 2.79079 14.1665 2.79079C14.7206 2.79079 15.2612 3.04111 15.6207 3.50644C15.6207 3.50644 12.2713 3.94041 12.1474 3.94041C12.0249 3.94041 11.9427 3.93066 11.8122 3.86377C11.586 3.73472 11.054 3.03272 10.9551 2.67257C10.9364 2.62481 10.9863 2.58942 11.0251 2.62167C11.2542 2.84761 11.7946 3.11278 12.0534 3.22898C12.0278 3.16261 12.0118 3.09572 12.01 3.03061C11.9524 2.71143 12.3498 1.58868 12.6661 1.2156C12.7038 1.16 12.7788 1.18803 12.7725 1.25478C12.6833 1.74726 12.8544 2.75578 12.9023 2.98256C12.9032 3.09361 12.8582 3.24975 12.8024 3.40205ZM15.9905 4.37653L12.3391 4.85016C12.4257 5.63706 13.0102 6.30944 13.8226 6.46628C14.8213 6.65903 15.7857 5.99982 15.977 4.9943C16.0169 4.78458 16.0196 4.5765 15.9905 4.37653ZM18.9237 9.51547C19.344 9.41356 19.7694 9.65249 19.9074 10.0581C20.0691 10.531 19.7893 11.0335 19.3148 11.1487L16.0755 11.9356C15.8081 12.0006 15.519 11.9273 15.3129 11.7349L12.7444 9.33617L14.7767 12.3336L14.3371 14.644L15.6406 17.549C15.6682 17.6106 15.6896 17.6747 15.7044 17.7406L16.8393 22.7682C16.9619 23.3111 16.6243 23.8513 16.0853 23.9746C15.5489 24.0979 15.0105 23.7601 14.8875 23.2152L13.775 18.2866L12.1394 14.6413L11.6285 14.5427L12.2183 18.3269C12.2451 18.4993 12.2272 18.6758 12.166 18.839L10.4778 23.3474C10.2827 23.8684 9.70516 24.1312 9.18819 23.9348C8.671 23.7384 8.40987 23.1569 8.60496 22.6359L10.1999 18.3766L9.66211 14.9145C9.6125 14.5953 9.61799 14.2697 9.6784 13.9523L10.6828 8.67359L9.33898 8.60112C9.16548 8.59179 8.99924 8.52799 8.86354 8.41868L6.1164 6.20593L0.652343 8.40406C0.408476 8.50217 0.131613 8.38273 0.0340658 8.13682C-0.0633879 7.89105 0.0553809 7.61228 0.299387 7.51408L5.67712 5.35064C5.69392 5.19849 5.75149 5.04895 5.8535 4.92052C6.1407 4.55887 6.66459 4.50009 7.02374 4.78936L7.03993 4.80244L10.4658 3.42421C10.6199 3.69055 10.8415 3.99913 11.0523 4.22029L7.89435 5.49071L9.69468 6.94084L11.3854 7.03206C11.6451 6.86265 11.9674 6.78972 12.2953 6.853L14.4733 7.27338C15.1478 7.4036 15.5898 8.05985 15.4606 8.73926L15.4284 8.90825L13.793 8.02446L16.1191 10.1967L18.9237 9.51547Z" fill="white"/>
</svg>
