<svg width="55" height="55" viewBox="0 0 55 55" fill="none" xmlns="http://www.w3.org/2000/svg">
<path d="M23.9727 34.6422L18.6559 29.3254L43.4 29.3254L43.9 29.3254L43.9 28.8254L43.9 26.1754L43.9 25.6754L43.4 25.6754L18.6559 25.6754L23.9727 20.3586C24.6854 19.6459 24.6854 18.4904 23.9727 17.7777C23.26 17.065 22.1045 17.065 21.3918 17.7777L12.9595 26.2099C12.2468 26.9226 12.2468 28.0782 12.9595 28.7909L21.3918 37.2231C22.1045 37.9358 23.26 37.9358 23.9727 37.2231C24.6854 36.5104 24.6854 35.3549 23.9727 34.6422ZM43.4 50.85L11.6 50.85C7.48548 50.85 4.15 47.5145 4.15 43.4L4.15001 11.6C4.15001 7.48547 7.48548 4.15 11.6 4.15L43.4 4.15C47.5145 4.15 50.85 7.48548 50.85 11.6L50.85 43.4C50.85 47.5145 47.5145 50.85 43.4 50.85ZM43.4 54.5C49.5304 54.5 54.5 49.5304 54.5 43.4L54.5 11.6C54.5 5.46964 49.5304 0.5 43.4 0.499999L11.6 0.499996C5.46965 0.499996 0.500004 5.46964 0.500004 11.6L0.500001 43.4C0.5 49.5304 5.46964 54.5 11.6 54.5L43.4 54.5Z" fill="white" stroke="white"/>
</svg>
