<svg width="55" height="55" viewBox="0 0 55 55" fill="none" xmlns="http://www.w3.org/2000/svg">
<path d="M31.0273 20.3578L36.3441 25.6746H11.6H11.1V26.1746V28.8246V29.3246H11.6H36.3441L31.0273 34.6414C30.3146 35.3541 30.3146 36.5096 31.0273 37.2223C31.74 37.935 32.8955 37.935 33.6082 37.2223L42.0405 28.7901C42.7532 28.0774 42.7532 26.9218 42.0405 26.2091L33.6082 17.7769C32.8955 17.0642 31.74 17.0642 31.0273 17.7769C30.3146 18.4896 30.3146 19.6451 31.0273 20.3578ZM11.6 4.15H43.4C47.5145 4.15 50.85 7.48548 50.85 11.6V43.4C50.85 47.5145 47.5145 50.85 43.4 50.85H11.6C7.48548 50.85 4.15 47.5145 4.15 43.4V11.6C4.15 7.48548 7.48548 4.15 11.6 4.15ZM11.6 0.5C5.46964 0.5 0.5 5.46964 0.5 11.6V43.4C0.5 49.5304 5.46964 54.5 11.6 54.5H43.4C49.5304 54.5 54.5 49.5304 54.5 43.4V11.6C54.5 5.46964 49.5304 0.5 43.4 0.5H11.6Z" fill="white" stroke="white"/>
</svg>
