<svg width="47" height="59" viewBox="0 0 47 59" fill="none" xmlns="http://www.w3.org/2000/svg">
<path d="M20.6345 5.82982C16.0632 5.82982 13.7371 6.32244 11.5959 7.47675C9.8102 8.42453 8.35133 9.89619 7.41178 11.6975C6.26751 13.8546 5.77917 16.204 5.77917 20.8125V37.4799C5.77917 42.0913 6.26751 44.4378 7.41178 46.5978C8.38557 48.4342 9.77546 49.8362 11.5959 50.8186C13.7342 51.9729 16.0632 52.4655 20.6345 52.4655H25.5988C30.1701 52.4655 32.4963 51.9729 34.6374 50.8186C36.4231 49.8708 37.882 48.3991 38.8216 46.5978C39.9658 44.4407 40.4542 42.0913 40.4542 37.4799V20.8125C40.4542 16.2011 39.9658 13.8546 38.8216 11.6946C37.882 9.89328 36.4231 8.42161 34.6374 7.47383C32.4992 6.32244 30.1701 5.82982 25.6017 5.82982H20.6316H20.6345ZM20.6345 0H25.5988C31.4184 0 34.5392 0.810346 37.3652 2.33484C40.1574 3.82579 42.4408 6.12916 43.9188 8.94586C45.43 11.7966 46.2333 14.9447 46.2333 20.8154V37.4828C46.2333 43.3535 45.43 46.5016 43.9188 49.3524C42.4408 52.1691 40.1574 54.4724 37.3652 55.9634C34.5392 57.4879 31.4184 58.2982 25.5988 58.2982H20.6316C14.812 58.2982 11.6913 57.4879 8.86524 55.9634C6.07301 54.4724 3.78966 52.1691 2.31167 49.3524C0.803305 46.5016 0 43.3535 0 37.4828V20.8125C0 14.9418 0.803305 11.7937 2.31456 8.94295C3.79378 6.1269 6.07814 3.82455 8.87102 2.33484C11.6941 0.810346 14.8149 0 20.6345 0ZM20.2271 11.6596H26.0063V26.2342H20.2271V11.6596Z" fill="white"/>
</svg>
