<svg width="72" height="72" viewBox="0 0 72 72" fill="none" xmlns="http://www.w3.org/2000/svg">
<path d="M55.1858 33.6965C55.356 34.5031 55.4719 35.3285 55.5298 36.1692L55.031 36.2035C55.0587 36.6051 55.0727 37.0104 55.0727 37.4188C55.0727 37.8273 55.0587 38.2325 55.031 38.6341L55.5298 38.6685C55.4719 39.5091 55.356 40.3346 55.1858 41.1412L54.6966 41.038C54.5281 41.8365 54.305 42.616 54.0311 43.3729L54.5013 43.5431C54.2167 44.3296 53.8788 45.0922 53.4917 45.827L53.0494 45.594C52.6713 46.3118 52.2448 47.0025 51.7741 47.6622L52.1811 47.9527C51.6976 48.6302 51.1689 49.2756 50.5989 49.8849L50.2338 49.5434C49.6811 50.1343 49.0885 50.6905 48.4601 51.2081L48.778 51.594C48.1376 52.1215 47.4611 52.6098 46.7524 53.055L46.4864 52.6316C45.8027 53.0612 45.0883 53.4497 44.347 53.7934L44.5573 54.247C43.8071 54.5948 43.0302 54.8978 42.2303 55.1526L42.0786 54.6761C41.3118 54.9203 40.5233 55.119 39.7164 55.2688L39.8077 55.7604C38.9981 55.9107 38.1707 56.013 37.3288 56.064L37.2985 55.5649C36.8953 55.5894 36.4887 55.6018 36.0789 55.6018C35.6692 55.6018 35.2625 55.5894 34.8593 55.5649L34.8291 56.064C33.9871 56.013 33.1597 55.9107 32.3502 55.7604L32.4414 55.2688C31.6346 55.119 30.846 54.9203 30.0792 54.6761L29.9275 55.1526C29.1276 54.8978 28.3507 54.5948 27.6006 54.247L27.8109 53.7934C27.0695 53.4497 26.3551 53.0612 25.6714 52.6316L25.4054 53.055C24.6968 52.6098 24.0202 52.1215 23.3798 51.594L23.6977 51.2081C23.0693 50.6905 22.4768 50.1343 21.9241 49.5434L21.5589 49.8849C20.989 49.2756 20.4602 48.6302 19.9767 47.9527L20.3837 47.6622C19.913 47.0025 19.4866 46.3118 19.1085 45.594L18.6661 45.827C18.279 45.0922 17.9412 44.3296 17.6565 43.5431L18.1267 43.3729C17.8528 42.616 17.6297 41.8365 17.4612 41.038L16.972 41.1412C16.8019 40.3346 16.6859 39.5091 16.628 38.6685L17.1268 38.6341C17.0991 38.2325 17.0851 37.8273 17.0851 37.4188C17.0851 37.0104 17.0991 36.6051 17.1268 36.2035L16.628 36.1692C16.6859 35.3285 16.8019 34.5031 16.972 33.6965L17.4612 33.7997C17.6297 33.0012 17.8528 32.2216 18.1267 31.4647L17.6565 31.2946C17.9412 30.5081 18.279 29.7454 18.6661 29.0106L19.1085 29.2437C19.4866 28.5258 19.913 27.8351 20.3837 27.1754L19.9767 26.885C20.4602 26.2075 20.989 25.5621 21.5589 24.9527L21.9241 25.2943C22.4768 24.7034 23.0693 24.1472 23.6977 23.6296L23.3798 23.2436C24.0202 22.7162 24.6968 22.2279 25.4054 21.7827L25.6714 22.206C26.3551 21.7765 27.0695 21.388 27.8109 21.0443L27.6006 20.5907C28.3507 20.2429 29.1276 19.9398 29.9275 19.6851L30.0792 20.1615C30.846 19.9173 31.6345 19.7186 32.4414 19.5689L32.3501 19.0773C33.1597 18.927 33.9871 18.8247 34.8291 18.7736L34.8593 19.2727C35.2625 19.2483 35.6692 19.2358 36.0789 19.2358C36.4887 19.2358 36.8953 19.2483 37.2985 19.2727L37.3288 18.7736C38.1707 18.8247 38.9981 18.927 39.8077 19.0773L39.7164 19.5689C40.5233 19.7186 41.3118 19.9173 42.0786 20.1615L42.2303 19.6851C43.0302 19.9398 43.8071 20.2429 44.5573 20.5907L44.347 21.0443C45.0883 21.388 45.8027 21.7765 46.4864 22.206L46.7524 21.7827C47.4611 22.2279 48.1376 22.7162 48.778 23.2436L48.4601 23.6296C49.0885 24.1472 49.6811 24.7034 50.2337 25.2943L50.5989 24.9527C51.1689 25.5621 51.6976 26.2075 52.1811 26.885L51.7741 27.1754C52.2448 27.8351 52.6713 28.5258 53.0494 29.2437L53.4917 29.0106C53.8788 29.7454 54.2167 30.5081 54.5013 31.2946L54.0311 31.4647C54.305 32.2216 54.5281 33.0012 54.6966 33.7997L55.1858 33.6965Z" stroke="white" stroke-dasharray="2.5 2.5"/>
<path d="M35.2415 29.9457C33.6996 29.9457 32.9149 30.1036 32.1927 30.4735C31.5904 30.7772 31.0983 31.2488 30.7813 31.8261C30.3954 32.5174 30.2306 33.2703 30.2306 34.7472V40.0887C30.2306 41.5665 30.3954 42.3185 30.7813 43.0107C31.1098 43.5992 31.5786 44.0485 32.1927 44.3633C32.914 44.7333 33.6996 44.8911 35.2415 44.8911H36.916C38.458 44.8911 39.2426 44.7333 39.9649 44.3633C40.5672 44.0596 41.0593 43.588 41.3762 43.0107C41.7622 42.3194 41.9269 41.5665 41.9269 40.0887V34.7472C41.9269 33.2694 41.7622 32.5174 41.3762 31.8252C41.0593 31.2479 40.5672 30.7763 39.9649 30.4725C39.2436 30.1036 38.458 29.9457 36.917 29.9457H35.2405H35.2415ZM35.2415 28.0774H36.916C38.8791 28.0774 39.9317 28.3371 40.885 28.8256C41.8268 29.3034 42.597 30.0416 43.0956 30.9443C43.6054 31.8579 43.8763 32.8668 43.8763 34.7481V40.0896C43.8763 41.971 43.6054 42.9799 43.0956 43.8935C42.597 44.7961 41.8268 45.5343 40.885 46.0121C39.9317 46.5007 38.8791 46.7604 36.916 46.7604H35.2405C33.2775 46.7604 32.2249 46.5007 31.2716 46.0121C30.3298 45.5343 29.5595 44.7961 29.061 43.8935C28.5522 42.9799 28.2812 41.971 28.2812 40.0896V34.7472C28.2812 32.8658 28.5522 31.857 29.062 30.9434C29.5609 30.0409 30.3315 29.303 31.2736 28.8256C32.2258 28.3371 33.2785 28.0774 35.2415 28.0774ZM35.1041 31.814H37.0535V36.4847H35.1041V31.814Z" fill="white"/>
<path d="M29.0621 64.1768C29.9077 64.7042 30.4828 65.22 30.7875 65.7242C31.0872 66.231 31.1484 66.7678 30.9712 67.3345C30.7707 67.9757 30.3477 68.4323 29.7021 68.7041C29.0517 68.9786 28.313 68.9989 27.4861 68.7649C26.9223 68.6054 26.4543 68.3553 26.0822 68.0146C25.7063 67.6729 25.4575 67.2778 25.3359 66.8295C25.2105 66.3801 25.2183 65.9298 25.3594 65.4787L26.4476 65.7866C26.2937 66.2787 26.3309 66.7093 26.5591 67.0782C26.7863 67.4509 27.1874 67.7186 27.7624 67.8813C28.2962 68.0324 28.7501 68.033 29.1243 67.8832C29.4935 67.7361 29.7428 67.4556 29.8722 67.0417C29.976 66.7099 29.923 66.3886 29.7134 66.0777C29.4989 65.7694 29.0812 65.424 28.4603 65.0413C27.8357 64.6576 27.3678 64.2959 27.0567 63.9563C26.7407 63.6193 26.5384 63.2719 26.4499 62.9141C26.3575 62.5552 26.3761 62.1689 26.5055 61.755C26.7118 61.0951 27.1367 60.6391 27.7802 60.387C28.4225 60.1386 29.1777 60.1372 30.046 60.3829C30.6098 60.5424 31.1028 60.7976 31.525 61.1483C31.946 61.5028 32.2316 61.9042 32.3819 62.3526C32.5284 62.7998 32.5276 63.2602 32.3796 63.7337L31.2914 63.4258C31.4453 62.9337 31.3849 62.4925 31.11 62.1023C30.8303 61.7147 30.3841 61.4342 29.7714 61.2609C29.2001 61.0992 28.7261 61.0909 28.3493 61.2359C27.9726 61.3809 27.7219 61.6528 27.5971 62.0518C27.4724 62.4507 27.5171 62.7981 27.7314 63.0941C27.9445 63.3939 28.3881 63.7547 29.0621 64.1768Z" fill="#FFC94D"/>
<path d="M23.2051 59.1761C22.8802 58.9663 22.5283 58.8783 22.1493 58.9122C21.7704 58.9462 21.4656 59.0977 21.2351 59.3669L20.3738 58.8105C20.6012 58.5255 20.9071 58.3119 21.2913 58.1699C21.6756 58.0279 22.0868 57.9823 22.5252 58.0332C22.9602 58.0819 23.3582 58.2228 23.7191 58.456C24.4443 58.9244 24.855 59.5311 24.9512 60.2761C25.0419 61.0221 24.7968 61.8021 24.2158 62.616L24.1102 62.7639C23.7516 63.2662 23.3376 63.6514 22.8681 63.9195C22.3987 64.1877 21.9096 64.3154 21.4009 64.3027C20.8889 64.2879 20.3901 64.1236 19.9045 63.8099C19.3073 63.4242 18.9355 62.9309 18.7891 62.33C18.6394 61.727 18.7489 61.1405 19.1176 60.5703L19.9789 61.1266C19.7669 61.4774 19.7029 61.8356 19.7871 62.2012C19.8658 62.5679 20.0774 62.8625 20.4219 63.0851C20.8846 63.3839 21.3596 63.4538 21.847 63.2949C22.3289 63.1369 22.7877 62.7528 23.2235 62.1423L23.3426 61.9754C23.767 61.3809 23.9675 60.8415 23.9441 60.3572C23.9207 59.8729 23.6743 59.4792 23.2051 59.1761Z" fill="#FFC94D"/>
<path d="M13.3617 56.6714C13.4496 56.811 13.5573 56.9522 13.6848 57.095C14.1581 57.6255 14.7148 57.7953 15.355 57.6044L18.8562 54.7775L19.5779 55.5863L14.6452 59.5689L13.943 58.782L14.5011 58.3088C13.8238 58.3994 13.2679 58.2013 12.8336 57.7146C12.6932 57.5572 12.6078 57.4205 12.5775 57.3045L13.3617 56.6714Z" fill="#FFC94D"/>
<path d="M14.0336 54.5105C13.5014 54.8307 12.9557 55.0178 12.3965 55.072C11.8351 55.1228 11.3189 55.0372 10.8478 54.8152C10.3745 54.5898 9.98322 54.2446 9.67384 53.7795C9.19571 53.0608 9.06558 52.3261 9.28346 51.5757C9.49917 50.822 10.0321 50.1894 10.8823 49.6779L10.9475 49.6386C11.4764 49.3204 12.0177 49.1337 12.5714 49.0783C13.1196 49.0217 13.6331 49.1067 14.1118 49.3333C14.5884 49.5566 14.9847 49.9056 15.3006 50.3805C15.7765 51.096 15.9066 51.8306 15.6909 52.5843C15.4731 53.3348 14.9424 53.9637 14.0989 54.4712L14.0336 54.5105ZM13.5405 53.5366C14.143 53.1741 14.5368 52.7481 14.7221 52.2587C14.9052 51.766 14.8453 51.292 14.5424 50.8366C14.2374 50.378 13.811 50.1245 13.2632 50.0761C12.7121 50.0297 12.1035 50.2069 11.4375 50.6076C10.8417 50.9661 10.4516 51.3943 10.2673 51.8923C10.0776 52.389 10.1341 52.865 10.437 53.3204C10.7334 53.766 11.1549 54.0156 11.7014 54.0693C12.248 54.123 12.861 53.9454 13.5405 53.5366Z" fill="#FFC94D"/>
<path d="M13.4891 46.1385L13.8406 47.1639L5.24367 49.8273L4.89225 48.8018L13.4891 46.1385Z" fill="#FFC94D"/>
<path d="M12.6137 43.3384L12.9145 44.3798L4.20563 46.6504L3.9048 45.609L12.6137 43.3384Z" fill="#FFC94D"/>
<path d="M13.1378 20.4877C13.9845 20.9502 14.5527 21.5117 14.8422 22.1723C15.1316 22.8329 15.0815 23.4859 14.6918 24.1313C14.294 24.79 13.7668 25.1913 13.1101 25.3351L15.7893 26.7984L15.2289 27.7264L7.52573 23.5189L8.0376 22.6712L8.68194 22.9631C8.43016 22.3231 8.5072 21.6671 8.91306 20.995C9.30681 20.3429 9.86974 19.9656 10.6019 19.863C11.336 19.757 12.1522 19.9493 13.0504 20.4399L13.1378 20.4877ZM12.4695 21.3566C11.8421 21.0139 11.268 20.8738 10.7471 20.9361C10.2262 20.9985 9.82844 21.257 9.55382 21.7118C9.21459 22.2736 9.21558 22.8344 9.55676 23.3943L12.2153 24.8464C12.8903 24.846 13.4004 24.5599 13.7457 23.9881C14.0143 23.5433 14.0473 23.0922 13.8449 22.6348C13.641 22.1721 13.1825 21.7461 12.4695 21.3566Z" fill="#FFC94D"/>
<path d="M14.0595 19.2871C13.6071 18.8616 13.2874 18.3949 13.1006 17.8872C12.9166 17.3767 12.8826 16.8788 12.9988 16.3935C13.1177 15.9056 13.3785 15.4679 13.781 15.0807C14.4032 14.4822 15.1233 14.2035 15.9415 14.2446C16.7626 14.2831 17.5345 14.6422 18.2572 15.3219L18.3127 15.3741C18.7623 15.797 19.0805 16.2596 19.2673 16.762C19.4541 17.259 19.488 17.7542 19.3691 18.2475C19.253 18.7382 18.9894 19.1812 18.5784 19.5766C17.9591 20.1724 17.2389 20.4511 16.4179 20.4126C15.5997 20.3715 14.8321 20.0137 14.115 19.3393L14.0595 19.2871ZM14.9388 18.6198C15.451 19.1016 15.979 19.3759 16.5228 19.4428C17.0694 19.507 17.5398 19.3496 17.9339 18.9704C18.3308 18.5886 18.4896 18.1381 18.4103 17.6189C18.3281 17.0971 18.0039 16.5699 17.4376 16.0373C16.9311 15.561 16.4017 15.2907 15.8494 15.2265C15.2971 15.1569 14.8239 15.3117 14.4298 15.6908C14.0441 16.0619 13.8881 16.507 13.9618 17.0262C14.0355 17.5454 14.3612 18.0766 14.9388 18.6198Z" fill="#FFC94D"/>
<path d="M25.9628 14.8052C25.7988 15.4226 25.3445 15.8987 24.5999 16.2336C23.9836 16.5108 23.4265 16.5474 22.9285 16.3433C22.4323 16.1342 22.0113 15.6859 21.6653 14.9983L19.8301 11.304L20.8187 10.8594L22.6409 14.5274C23.0684 15.388 23.6384 15.6581 24.3509 15.3376C25.1062 14.9979 25.4712 14.4956 25.446 13.8307L23.3944 9.7009L24.383 9.25626L27.2036 14.9341L26.2631 15.3571L25.9628 14.8052Z" fill="#FFC94D"/>
<path d="M31.7771 8.43465C31.6103 8.44144 31.4333 8.46435 31.2459 8.50336C30.5499 8.64829 30.1454 9.04168 30.0323 9.68353L31.0398 14.0693L29.9786 14.2903L28.5592 8.11136L29.5918 7.89636L29.7729 8.60661C29.9941 7.98212 30.4241 7.60339 31.0627 7.47041C31.2692 7.42741 31.4321 7.42141 31.5515 7.45241L31.7771 8.43465Z" fill="#FFC94D"/>
<path d="M42.5419 12.6803C42.586 12.3907 42.5097 12.1516 42.3132 11.963C42.1212 11.7711 41.7611 11.5798 41.2331 11.3892C40.7089 11.199 40.2985 11.0009 40.002 10.7947C39.7093 10.589 39.5026 10.3635 39.3819 10.1183C39.265 9.87364 39.2301 9.59683 39.2771 9.28789C39.3552 8.77426 39.6381 8.36951 40.1256 8.07364C40.6169 7.77829 41.2012 7.67703 41.8785 7.76985C42.5906 7.86746 43.1393 8.12993 43.5247 8.55727C43.914 8.98514 44.0651 9.48485 43.9782 10.0564L42.8984 9.90841C42.9431 9.61491 42.8558 9.34472 42.6365 9.09785C42.4211 8.8515 42.1238 8.70233 41.7446 8.65035C41.3537 8.59677 41.035 8.63983 40.7886 8.77952C40.5421 8.9192 40.3981 9.12614 40.3563 9.40033C40.317 9.65907 40.3899 9.86815 40.575 10.0276C40.7601 10.187 41.1106 10.3631 41.6265 10.5561C42.1462 10.7495 42.5599 10.9521 42.8674 11.1637C43.175 11.3754 43.3902 11.6099 43.513 11.8672C43.6403 12.1212 43.6784 12.4162 43.6273 12.7522C43.5421 13.3121 43.2492 13.7313 42.7486 14.0096C42.2485 14.284 41.6405 14.3722 40.9246 14.2741C40.4215 14.2051 39.9899 14.0553 39.6299 13.8246C39.27 13.5939 39.0038 13.3051 38.8313 12.9582C38.6634 12.608 38.6076 12.2475 38.664 11.8768L39.7379 12.024C39.7027 12.3858 39.8024 12.6912 40.0371 12.9402C40.2763 13.1858 40.6165 13.3389 41.0576 13.3994C41.464 13.4551 41.8014 13.4185 42.0699 13.2897C42.3429 13.1576 42.5002 12.9545 42.5419 12.6803Z" fill="#FFC94D"/>
<path d="M46.8669 8.096L46.4683 7.47436C47.0099 7.1622 47.4054 6.74718 47.6547 6.22931L47.9856 5.5044L48.9815 5.9173L48.6993 6.53561C48.5338 6.89806 48.2834 7.22106 47.9479 7.5046C47.6089 7.78664 47.2485 7.98378 46.8669 8.096Z" fill="#FFC94D"/>
<path d="M48.504 16.1522C47.7164 15.8083 47.1978 15.2752 46.9483 14.5529C46.7004 13.8271 46.7819 13.0385 47.1927 12.1871L47.2793 12.0077C47.5526 11.4413 47.9054 10.9841 48.3377 10.6362C48.7753 10.2863 49.2512 10.0724 49.7655 9.99459C50.2851 9.91479 50.7758 9.97571 51.2376 10.1774C51.993 10.5072 52.4621 11.008 52.645 11.6799C52.8278 12.3518 52.6994 13.1433 52.2597 14.0545L52.0637 14.4609L48.1276 12.7422C47.8703 13.3114 47.8169 13.8397 47.9674 14.3271C48.1233 14.8125 48.4482 15.1631 48.9422 15.3788C49.293 15.532 49.6241 15.5913 49.9354 15.5569C50.2468 15.5225 50.5498 15.429 50.8444 15.2765L51.2271 16.0059C50.3854 16.5286 49.4777 16.5773 48.504 16.1522ZM50.8506 10.9795C50.4496 10.8044 50.0435 10.8017 49.6322 10.9714C49.2226 11.1376 48.8609 11.4652 48.5469 11.9542L51.4573 13.225L51.493 13.1511C51.7037 12.6425 51.7527 12.1997 51.64 11.8225C51.529 11.4418 51.2658 11.1608 50.8506 10.9795ZM52.8261 8.09811L54.0289 8.62331L51.8411 9.54641L51.041 9.19706L52.8261 8.09811Z" fill="#FFC94D"/>
<path d="M58.2652 15.564L57.7095 15.9936C58.4423 16.0434 59.052 16.3789 59.5385 17.0001C60.0852 17.6983 60.18 18.3699 59.823 19.0151C60.2016 19.005 60.571 19.078 60.9311 19.234C61.2936 19.3932 61.617 19.6542 61.9012 20.0171C62.7586 21.112 62.5938 22.0943 61.4067 22.9643L57.9406 25.4204L57.2723 24.567L60.6857 22.1481C61.0554 21.8861 61.2673 21.6092 61.3213 21.3175C61.3785 21.0235 61.2566 20.6843 60.9555 20.2999C60.7075 19.9831 60.4027 19.7902 60.0414 19.7211C59.6832 19.6497 59.3251 19.7146 58.9671 19.9156L55.5346 22.3481L54.8626 21.49L58.2522 19.0881C59.0043 18.5551 59.1022 17.9334 58.5459 17.2229C58.1075 16.6632 57.5607 16.4554 56.9053 16.5994L53.1286 19.2757L52.4602 18.4223L57.6329 14.7567L58.2652 15.564Z" fill="#FFC94D"/>
<path d="M58.8743 29.3823C58.5975 28.5688 58.641 27.824 59.0049 27.1481C59.3725 26.471 60.008 25.9933 60.9114 25.715L61.1018 25.6564C61.7029 25.4712 62.2769 25.419 62.8241 25.4997C63.3762 25.5829 63.854 25.787 64.2575 26.1122C64.666 26.4398 64.9514 26.8422 65.1138 27.3192C65.3793 28.0995 65.3262 28.7859 64.9546 29.3784C64.5829 29.9709 63.9137 30.4161 62.9468 30.714L62.5156 30.8468L61.1319 26.7809C60.5396 26.9797 60.1147 27.3006 59.8571 27.7436C59.6045 28.1891 59.5651 28.667 59.7388 29.1773C59.8621 29.5397 60.0412 29.8236 60.2761 30.0291C60.511 30.2346 60.7838 30.3936 61.0943 30.5063L60.8149 31.2849C59.8635 31.0224 59.2166 30.3882 58.8743 29.3823ZM64.2626 27.5814C64.1216 27.1673 63.8503 26.8668 63.4485 26.6801C63.0505 26.4922 62.5658 26.4495 61.9944 26.552L63.0175 29.5584L63.0959 29.5343C63.6122 29.3425 63.9713 29.0766 64.1732 28.7366C64.3788 28.3955 64.4086 28.0104 64.2626 27.5814Z" fill="#FFC94D"/>
<path d="M66.0266 36.3585C66.0362 36.1927 66.0307 36.0147 66.0102 35.8244C65.9338 35.1176 65.5807 34.6674 64.9508 34.4739L60.4722 34.912L60.3558 33.8343L66.6655 33.2171L66.7788 34.2657L66.0517 34.3544C66.6536 34.6527 66.9896 35.1261 67.0597 35.7747C67.0823 35.9844 67.0723 36.1463 67.0296 36.2604L66.0266 36.3585Z" fill="#FFC94D"/>
<path d="M62.0894 40.9719L66.6329 43.271L66.4445 44.3623L60.5675 41.1433L60.7081 40.3291L67.3628 39.0445L67.1744 40.1358L62.0894 40.9719Z" fill="#FFC94D"/>
<path d="M59.3004 47.6929C59.6493 46.9076 60.1941 46.3735 60.9348 46.0908C61.6792 45.8095 62.4899 45.8452 63.3669 46.1979L63.5518 46.2722C64.1353 46.5069 64.607 46.8249 64.9669 47.2263C65.3288 47.6328 65.5512 48.0841 65.6341 48.5802C65.719 49.0814 65.6591 49.5623 65.4545 50.0228C65.1199 50.776 64.6079 51.2601 63.9186 51.4752C63.2293 51.6903 62.4153 51.6091 61.4767 51.2316L61.0581 51.0632L62.8018 47.1382C62.2156 46.9193 61.6725 46.8966 61.1726 47.07C60.6747 47.2484 60.3163 47.584 60.0974 48.0766C59.942 48.4264 59.8829 48.7519 59.92 49.0529C59.9571 49.354 60.0548 49.6436 60.2131 49.9219L59.4659 50.3346C58.9242 49.5445 58.869 48.6639 59.3004 47.6929ZM64.6282 49.6904C64.8058 49.2906 64.8063 48.8953 64.6297 48.5045C64.4567 48.1151 64.118 47.7812 63.6138 47.5027L62.3245 50.4049L62.4006 50.4355C62.9243 50.6125 63.3796 50.6357 63.7665 50.5052C64.157 50.3761 64.4442 50.1045 64.6282 49.6904Z" fill="#FFC94D"/>
<path d="M56.762 53.0233L57.4617 52.1954L62.4978 56.0465L61.7982 56.8744L56.762 53.0233ZM63.8904 57.0008C64.03 57.1076 64.1139 57.238 64.142 57.3922C64.1676 57.5493 64.1123 57.7084 63.9762 57.8695C63.84 58.0306 63.6886 58.1161 63.5218 58.1261C63.355 58.1361 63.2018 58.0877 63.0621 57.9809C62.9225 57.8741 62.8414 57.7434 62.8189 57.5887C62.7965 57.4339 62.8533 57.276 62.9894 57.1149C63.1256 56.9538 63.2755 56.8671 63.4392 56.8547C63.6004 56.8453 63.7508 56.894 63.8904 57.0008Z" fill="#FFC94D"/>
<path d="M54.1406 55.466L54.9147 54.7072L61.5287 60.8109L60.7546 61.5697L54.1406 55.466Z" fill="#FFC94D"/>
<path d="M51.5696 56.9607L52.4807 56.3733L57.7068 63.7005L56.7957 64.2879L51.5696 56.9607Z" fill="#FFC94D"/>
<path d="M47.2366 58.5047C48.0451 58.2137 48.8072 58.2381 49.5228 58.5779C50.2398 58.9215 50.7734 59.5322 51.1236 60.4103L51.1974 60.5953C51.4304 61.1795 51.5259 61.7405 51.4841 62.2784C51.44 62.8212 51.2672 63.2942 50.9656 63.6974C50.6619 64.1055 50.2729 64.3949 49.7988 64.5656C49.0233 64.8447 48.32 64.8096 47.6888 64.46C47.0576 64.1105 46.5547 63.4659 46.1799 62.5261L46.0127 62.1071L50.0538 60.6523C49.8075 60.077 49.4492 59.6687 48.9789 59.4273C48.5063 59.1908 48.0164 59.1638 47.5092 59.3464C47.149 59.4761 46.8729 59.6585 46.6809 59.8936C46.4888 60.1287 46.3468 60.3997 46.2549 60.7066L45.4409 60.452C45.6383 59.5137 46.2369 58.8646 47.2366 58.5047ZM49.4689 63.7383C49.8805 63.5901 50.1666 63.317 50.3273 62.9189C50.4894 62.5244 50.4972 62.0486 50.3506 61.4914L47.3626 62.5672L47.393 62.6434C47.6264 63.1444 47.9238 63.4896 48.2852 63.679C48.648 63.872 49.0425 63.8918 49.4689 63.7383Z" fill="#FFC94D"/>
<path d="M11.3134 39.634C11.348 40.4927 11.095 41.2016 10.5546 41.7607C10.0103 42.3199 9.26574 42.6166 8.32106 42.651L8.12197 42.6582C7.49348 42.681 6.92851 42.5824 6.42706 42.3622C5.92154 42.1382 5.52156 41.8166 5.22711 41.3973C4.9286 40.9743 4.76921 40.511 4.74893 40.0075C4.71576 39.184 4.96129 38.534 5.48551 38.0576C6.00973 37.5812 6.77737 37.3247 7.78842 37.2879L8.23929 37.2715L8.41211 41.563C9.03607 41.5246 9.53429 41.3248 9.90676 40.9634C10.2752 40.5982 10.4485 40.1463 10.4268 39.6076C10.4114 39.2251 10.3203 38.904 10.1535 38.6443C9.98665 38.3846 9.77041 38.1598 9.50475 37.9701L9.99339 37.2898C10.8306 37.791 11.2706 38.5724 11.3134 39.634ZM5.63897 39.9752C5.65657 40.4123 5.8314 40.7734 6.16344 41.0584C6.49159 41.3435 6.94399 41.5108 7.52066 41.5602L7.39287 38.387L7.3109 38.39C6.76174 38.4412 6.34221 38.605 6.05231 38.8813C5.75852 39.1578 5.62073 39.5224 5.63897 39.9752Z" fill="#FFC94D"/>
<path d="M41.0508 66.3225C41.2175 66.3259 41.3956 66.314 41.585 66.2865C42.2886 66.1846 42.7181 65.8166 42.8735 65.1824L42.1607 60.7392L43.2334 60.5838L44.2377 66.8436L43.1939 66.9948L43.0605 66.2741C42.7984 66.8843 42.3446 67.2362 41.699 67.3297C41.4902 67.3599 41.3274 67.3559 41.2105 67.3175L41.0508 66.3225Z" fill="#FFC94D"/>
<path d="M5.94189 31.7577C5.90089 31.9191 5.87238 32.0952 5.85635 32.2859C5.79684 32.9943 6.05832 33.498 6.6408 33.7968L11.1279 34.137L11.0372 35.2172L4.71549 34.7378L4.80377 33.6868L5.53557 33.7247C5.00054 33.3277 4.76033 32.8041 4.81494 32.1541C4.8326 31.9439 4.87327 31.7863 4.93696 31.6815L5.94189 31.7577Z" fill="#FFC94D"/>
</svg>
