<svg width="17" height="17" viewBox="0 0 17 17" fill="none" xmlns="http://www.w3.org/2000/svg">
<path fill-rule="evenodd" clip-rule="evenodd" d="M8.50026 11.3333C8.33876 11.3333 8.17797 11.2788 8.04693 11.169L3.79693 7.62734C3.49659 7.3773 3.45551 6.93034 3.70626 6.63001C3.9563 6.32968 4.40255 6.2893 4.70359 6.53934L8.50805 9.70984L12.3061 6.65338C12.6107 6.4083 13.057 6.45647 13.3021 6.76105C13.5471 7.06563 13.499 7.51118 13.1944 7.75697L8.94439 11.1768C8.81476 11.2809 8.65751 11.3333 8.50026 11.3333" fill="white"/>
<mask id="mask0" mask-type="alpha" maskUnits="userSpaceOnUse" x="3" y="6" width="11" height="6">
<path fill-rule="evenodd" clip-rule="evenodd" d="M8.50026 11.3333C8.33876 11.3333 8.17797 11.2788 8.04693 11.169L3.79693 7.62734C3.49659 7.3773 3.45551 6.93034 3.70626 6.63001C3.9563 6.32968 4.40255 6.2893 4.70359 6.53934L8.50805 9.70984L12.3061 6.65338C12.6107 6.4083 13.057 6.45647 13.3021 6.76105C13.5471 7.06563 13.499 7.51118 13.1944 7.75697L8.94439 11.1768C8.81476 11.2809 8.65751 11.3333 8.50026 11.3333" fill="white"/>
</mask>
<g mask="url(#mask0)">
</g>
</svg>
