<svg width="95" height="18" viewBox="0 0 95 18" fill="none" xmlns="http://www.w3.org/2000/svg">
<path d="M6.688 15.096C5.57867 15.096 4.576 14.8507 3.68 14.36C2.79467 13.8693 2.096 13.192 1.584 12.328C1.08267 11.4533 0.832 10.4773 0.832 9.4C0.832 8.32267 1.08267 7.352 1.584 6.488C2.096 5.61333 2.8 4.93067 3.696 4.44C4.592 3.94933 5.59467 3.704 6.704 3.704C7.536 3.704 8.304 3.84267 9.008 4.12C9.712 4.39733 10.3093 4.80267 10.8 5.336L10.048 6.088C9.17333 5.20267 8.06933 4.76 6.736 4.76C5.85067 4.76 5.04533 4.96267 4.32 5.368C3.59467 5.77333 3.024 6.328 2.608 7.032C2.20267 7.736 2 8.52533 2 9.4C2 10.2747 2.20267 11.064 2.608 11.768C3.024 12.472 3.59467 13.0267 4.32 13.432C5.04533 13.8373 5.85067 14.04 6.736 14.04C8.08 14.04 9.184 13.592 10.048 12.696L10.8 13.448C10.3093 13.9813 9.70667 14.392 8.992 14.68C8.288 14.9573 7.52 15.096 6.688 15.096ZM16.149 15.08C15.3383 15.08 14.6077 14.8987 13.957 14.536C13.3063 14.1627 12.7943 13.6507 12.421 13C12.0477 12.3493 11.861 11.6133 11.861 10.792C11.861 9.97067 12.0477 9.23467 12.421 8.584C12.7943 7.93333 13.3063 7.42667 13.957 7.064C14.6077 6.70133 15.3383 6.52 16.149 6.52C16.9597 6.52 17.6903 6.70133 18.341 7.064C18.9917 7.42667 19.4983 7.93333 19.861 8.584C20.2343 9.23467 20.421 9.97067 20.421 10.792C20.421 11.6133 20.2343 12.3493 19.861 13C19.4983 13.6507 18.9917 14.1627 18.341 14.536C17.6903 14.8987 16.9597 15.08 16.149 15.08ZM16.149 14.072C16.7463 14.072 17.2797 13.9387 17.749 13.672C18.229 13.3947 18.6023 13.0053 18.869 12.504C19.1357 12.0027 19.269 11.432 19.269 10.792C19.269 10.152 19.1357 9.58133 18.869 9.08C18.6023 8.57867 18.229 8.19467 17.749 7.928C17.2797 7.65067 16.7463 7.512 16.149 7.512C15.5517 7.512 15.013 7.65067 14.533 7.928C14.0637 8.19467 13.6903 8.57867 13.413 9.08C13.1463 9.58133 13.013 10.152 13.013 10.792C13.013 11.432 13.1463 12.0027 13.413 12.504C13.6903 13.0053 14.0637 13.3947 14.533 13.672C15.013 13.9387 15.5517 14.072 16.149 14.072ZM27.0283 6.52C28.0843 6.52 28.9216 6.82933 29.5403 7.448C30.1696 8.056 30.4843 8.94667 30.4843 10.12V15H29.3483V10.232C29.3483 9.35733 29.1296 8.69067 28.6923 8.232C28.2549 7.77333 27.6309 7.544 26.8203 7.544C25.9136 7.544 25.1936 7.816 24.6603 8.36C24.1376 8.89333 23.8763 9.63467 23.8763 10.584V15H22.7403V6.584H23.8283V8.136C24.1376 7.624 24.5643 7.22933 25.1083 6.952C25.6629 6.664 26.3029 6.52 27.0283 6.52ZM38.0004 14.488C37.787 14.68 37.5204 14.8293 37.2004 14.936C36.891 15.032 36.5657 15.08 36.2244 15.08C35.435 15.08 34.827 14.8667 34.4004 14.44C33.9737 14.0133 33.7604 13.4107 33.7604 12.632V7.544H32.2564V6.584H33.7604V4.744H34.8964V6.584H37.4564V7.544H34.8964V12.568C34.8964 13.0693 35.019 13.4533 35.2644 13.72C35.5204 13.976 35.883 14.104 36.3524 14.104C36.587 14.104 36.811 14.0667 37.0244 13.992C37.2484 13.9173 37.4404 13.8107 37.6004 13.672L38.0004 14.488ZM41.1564 8.232C41.423 7.66667 41.8177 7.24 42.3404 6.952C42.8737 6.664 43.5297 6.52 44.3084 6.52V7.624L44.0364 7.608C43.151 7.608 42.4577 7.88 41.9564 8.424C41.455 8.968 41.2044 9.73067 41.2044 10.712V15H40.0684V6.584H41.1564V8.232ZM49.7271 15.08C48.9165 15.08 48.1858 14.8987 47.5351 14.536C46.8845 14.1627 46.3725 13.6507 45.9991 13C45.6258 12.3493 45.4391 11.6133 45.4391 10.792C45.4391 9.97067 45.6258 9.23467 45.9991 8.584C46.3725 7.93333 46.8845 7.42667 47.5351 7.064C48.1858 6.70133 48.9165 6.52 49.7271 6.52C50.5378 6.52 51.2685 6.70133 51.9191 7.064C52.5698 7.42667 53.0765 7.93333 53.4391 8.584C53.8125 9.23467 53.9991 9.97067 53.9991 10.792C53.9991 11.6133 53.8125 12.3493 53.4391 13C53.0765 13.6507 52.5698 14.1627 51.9191 14.536C51.2685 14.8987 50.5378 15.08 49.7271 15.08ZM49.7271 14.072C50.3245 14.072 50.8578 13.9387 51.3271 13.672C51.8071 13.3947 52.1805 13.0053 52.4471 12.504C52.7138 12.0027 52.8471 11.432 52.8471 10.792C52.8471 10.152 52.7138 9.58133 52.4471 9.08C52.1805 8.57867 51.8071 8.19467 51.3271 7.928C50.8578 7.65067 50.3245 7.512 49.7271 7.512C49.1298 7.512 48.5911 7.65067 48.1111 7.928C47.6418 8.19467 47.2685 8.57867 46.9911 9.08C46.7245 9.58133 46.5911 10.152 46.5911 10.792C46.5911 11.432 46.7245 12.0027 46.9911 12.504C47.2685 13.0053 47.6418 13.3947 48.1111 13.672C48.5911 13.9387 49.1298 14.072 49.7271 14.072ZM51.2951 5.272L49.7111 3.944L48.1271 5.272H47.0711L49.1351 3.288H50.2871L52.3511 5.272H51.2951ZM56.3184 3.128H57.4544V15H56.3184V3.128ZM67.9433 11.144H60.9033C60.9673 12.0187 61.3033 12.728 61.9113 13.272C62.5193 13.8053 63.2873 14.072 64.2153 14.072C64.7379 14.072 65.2179 13.9813 65.6553 13.8C66.0926 13.608 66.4713 13.3307 66.7913 12.968L67.4313 13.704C67.0579 14.152 66.5886 14.4933 66.0233 14.728C65.4686 14.9627 64.8553 15.08 64.1833 15.08C63.3193 15.08 62.5513 14.8987 61.8793 14.536C61.2179 14.1627 60.7006 13.6507 60.3273 13C59.9539 12.3493 59.7673 11.6133 59.7673 10.792C59.7673 9.97067 59.9433 9.23467 60.2953 8.584C60.6579 7.93333 61.1486 7.42667 61.7673 7.064C62.3966 6.70133 63.1006 6.52 63.8793 6.52C64.6579 6.52 65.3566 6.70133 65.9753 7.064C66.5939 7.42667 67.0793 7.93333 67.4313 8.584C67.7833 9.224 67.9593 9.96 67.9593 10.792L67.9433 11.144ZM63.8793 7.496C63.0686 7.496 62.3859 7.75733 61.8313 8.28C61.2873 8.792 60.9779 9.464 60.9033 10.296H66.8713C66.7966 9.464 66.4819 8.792 65.9273 8.28C65.3833 7.75733 64.7006 7.496 63.8793 7.496ZM72.5275 15.08C71.8448 15.08 71.1888 14.984 70.5595 14.792C69.9408 14.5893 69.4555 14.3387 69.1035 14.04L69.6155 13.144C69.9675 13.4213 70.4102 13.6507 70.9435 13.832C71.4768 14.0027 72.0315 14.088 72.6075 14.088C73.3755 14.088 73.9408 13.9707 74.3035 13.736C74.6768 13.4907 74.8635 13.1493 74.8635 12.712C74.8635 12.4027 74.7622 12.1627 74.5595 11.992C74.3568 11.8107 74.1008 11.6773 73.7915 11.592C73.4822 11.496 73.0715 11.4053 72.5595 11.32C71.8768 11.192 71.3275 11.064 70.9115 10.936C70.4955 10.7973 70.1382 10.568 69.8395 10.248C69.5515 9.928 69.4075 9.48533 69.4075 8.92C69.4075 8.216 69.7008 7.64 70.2875 7.192C70.8742 6.744 71.6902 6.52 72.7355 6.52C73.2795 6.52 73.8235 6.59467 74.3675 6.744C74.9115 6.88267 75.3595 7.06933 75.7115 7.304L75.2155 8.216C74.5222 7.736 73.6955 7.496 72.7355 7.496C72.0102 7.496 71.4608 7.624 71.0875 7.88C70.7248 8.136 70.5435 8.472 70.5435 8.888C70.5435 9.208 70.6448 9.464 70.8475 9.656C71.0608 9.848 71.3222 9.992 71.6315 10.088C71.9408 10.1733 72.3675 10.264 72.9115 10.36C73.5835 10.488 74.1222 10.616 74.5275 10.744C74.9328 10.872 75.2795 11.0907 75.5675 11.4C75.8555 11.7093 75.9995 12.136 75.9995 12.68C75.9995 13.416 75.6902 14.0027 75.0715 14.44C74.4635 14.8667 73.6155 15.08 72.5275 15.08Z" fill="white"/>
<path fill-rule="evenodd" clip-rule="evenodd" d="M89.5003 14.3333C89.3388 14.3333 89.178 14.2788 89.0469 14.169L84.7969 10.6273C84.4966 10.3773 84.4555 9.93034 84.7063 9.63001C84.9563 9.32968 85.4026 9.2893 85.7036 9.53934L89.5081 12.7098L93.3061 9.65338C93.6107 9.4083 94.057 9.45647 94.3021 9.76105C94.5471 10.0656 94.499 10.5112 94.1944 10.757L89.9444 14.1768C89.8148 14.2809 89.6575 14.3333 89.5003 14.3333" fill="white"/>
<mask id="mask0" mask-type="alpha" maskUnits="userSpaceOnUse" x="84" y="9" width="11" height="6">
<path fill-rule="evenodd" clip-rule="evenodd" d="M89.5003 14.3333C89.3388 14.3333 89.178 14.2788 89.0469 14.169L84.7969 10.6273C84.4966 10.3773 84.4555 9.93034 84.7063 9.63001C84.9563 9.32968 85.4026 9.2893 85.7036 9.53934L89.5081 12.7098L93.3061 9.65338C93.6107 9.4083 94.057 9.45647 94.3021 9.76105C94.5471 10.0656 94.499 10.5112 94.1944 10.757L89.9444 14.1768C89.8148 14.2809 89.6575 14.3333 89.5003 14.3333" fill="white"/>
</mask>
<g mask="url(#mask0)">
</g>
</svg>
