<svg width="155" height="58" viewBox="0 0 155 58" fill="none" xmlns="http://www.w3.org/2000/svg">
<rect x="0.25" y="0.25" width="154.5" height="57.5" rx="2.75" fill="black" fill-opacity="0.5"/>
<path d="M23.8035 22.28C23.8035 23.288 24.478 23.96 25.4898 23.96C26.3329 23.96 27.176 23.12 27.176 22.28V17.24C27.176 16.232 26.5015 15.56 25.4898 15.56C24.478 15.56 23.8035 16.232 23.8035 17.24V22.28Z" fill="white"/>
<path fill-rule="evenodd" clip-rule="evenodd" d="M12 21.44C12 13.9602 17.9822 8 25.4898 8C32.9973 8 38.9795 13.9602 38.9795 21.44V36.56C38.9795 44.0554 32.813 50 25.4898 50C17.9822 50 12 44.0398 12 36.56V21.44ZM25.4898 11.36C19.8448 11.36 15.3724 15.8158 15.3724 21.44V36.56C15.3724 42.1842 19.8448 46.64 25.4898 46.64C30.9818 46.64 35.6071 42.1686 35.6071 36.56V21.44C35.6071 15.8158 31.1347 11.36 25.4898 11.36Z" fill="white"/>
<path d="M75.5003 24.3266L72.4159 27.3997L89.3727 27.3997V30.6013L72.4159 30.6013L75.5003 33.6744C76.1278 34.2995 76.1278 35.3131 75.5003 35.9383C74.8728 36.5634 73.8555 36.5634 73.228 35.9383L67.4007 30.1325C66.7732 29.5073 66.7732 28.4937 67.4007 27.8686L73.228 22.0627C73.8555 21.4376 74.8728 21.4376 75.5003 22.0628C76.1278 22.6879 76.1278 23.7015 75.5003 24.3266Z" fill="white"/>
<path fill-rule="evenodd" clip-rule="evenodd" d="M88.6816 47.9347C93.109 47.9347 96.6981 44.3588 96.6981 39.9478L96.6981 18.0527C96.6981 13.6417 93.109 10.0658 88.6816 10.0658L66.7055 10.0658C62.2781 10.0658 58.689 13.6417 58.689 18.0527L58.689 39.9478C58.689 44.3588 62.2781 47.9347 66.7055 47.9347L88.6816 47.9347ZM88.6816 44.733H66.7055C64.0529 44.733 61.9025 42.5906 61.9025 39.9478L61.9025 18.0527C61.9025 15.4099 64.0529 13.2675 66.7055 13.2675L88.6816 13.2675C91.3342 13.2675 93.4846 15.4099 93.4846 18.0527V39.9478C93.4846 42.5906 91.3342 44.733 88.6816 44.733Z" fill="white"/>
<path d="M126.189 33.6738L129.273 30.6008L112.316 30.6008V27.3991L129.273 27.3991L126.189 24.3261C125.561 23.7009 125.561 22.6874 126.189 22.0622C126.816 21.437 127.834 21.437 128.461 22.0622L134.288 27.868C134.916 28.4932 134.916 29.5068 134.288 30.1319L128.461 35.9377C127.834 36.5629 126.816 36.5629 126.189 35.9377C125.561 35.3126 125.561 34.299 126.189 33.6738Z" fill="white"/>
<path fill-rule="evenodd" clip-rule="evenodd" d="M113.007 10.0658C108.58 10.0658 104.991 13.6417 104.991 18.0527L104.991 39.9478C104.991 44.3588 108.58 47.9347 113.007 47.9347L134.984 47.9347C139.411 47.9347 143 44.3588 143 39.9478L143 18.0527C143 13.6417 139.411 10.0658 134.984 10.0658L113.007 10.0658ZM113.007 13.2674L134.984 13.2674C137.636 13.2675 139.787 15.4099 139.787 18.0527V39.9478C139.787 42.5906 137.636 44.733 134.984 44.733L113.007 44.733C110.355 44.733 108.204 42.5906 108.204 39.9478V18.0527C108.204 15.4099 110.355 13.2674 113.007 13.2674Z" fill="white"/>
<rect x="0.25" y="0.25" width="154.5" height="57.5" rx="2.75" stroke="white" stroke-width="0.5"/>
</svg>
