<svg width="73" height="133" viewBox="0 0 73 133" fill="none" xmlns="http://www.w3.org/2000/svg">
<path fill-rule="evenodd" clip-rule="evenodd" d="M67.067 71.9781C67.1052 71.9402 67.1666 71.9401 67.2049 71.9778V71.9778C67.2436 72.0157 67.3057 72.0152 67.3437 71.9765L71.4802 67.7669C72.2544 66.979 72.2433 65.7127 71.4554 64.9385L6.94892 1.55391C6.16105 0.779738 4.89476 0.790845 4.1206 1.57871L1.31709 4.43184C0.542921 5.21971 0.554029 6.48599 1.3419 7.26016L59.9841 64.8825C60.7791 65.6637 60.7822 66.9441 59.9908 67.729L1.42013 125.827C0.63592 126.605 0.630793 127.871 1.40867 128.656L4.22562 131.496C5.0035 132.28 6.26982 132.285 7.05403 131.507L67.067 71.9781Z" fill="black"/>
</svg>
