<svg width="63" height="63" viewBox="0 0 63 63" fill="none" xmlns="http://www.w3.org/2000/svg">
<g filter="url(#filter0_d)">
<circle cx="31.5" cy="27.5" r="27.5" fill="#E4E4E4"/>
</g>
<path d="M31.5 31C33.433 31 35 29.433 35 27.5C35 25.567 33.433 24 31.5 24C29.567 24 28 25.567 28 27.5C28 29.433 29.567 31 31.5 31Z" fill="#FF0404"/>
<path d="M28.05 16L25.9455 18.3333H22.3C21.035 18.3333 20 19.3833 20 20.6667V34.6667C20 35.95 21.035 37 22.3 37H40.7C41.965 37 43 35.95 43 34.6667V20.6667C43 19.3833 41.965 18.3333 40.7 18.3333H37.0545L34.95 16H28.05ZM31.5 33.5C28.326 33.5 25.75 30.8867 25.75 27.6667C25.75 24.4467 28.326 21.8333 31.5 21.8333C34.674 21.8333 37.25 24.4467 37.25 27.6667C37.25 30.8867 34.674 33.5 31.5 33.5Z" fill="#FF0404"/>
<defs>
<filter id="filter0_d" x="0" y="0" width="63" height="63" filterUnits="userSpaceOnUse" color-interpolation-filters="sRGB">
<feFlood flood-opacity="0" result="BackgroundImageFix"/>
<feColorMatrix in="SourceAlpha" type="matrix" values="0 0 0 0 0 0 0 0 0 0 0 0 0 0 0 0 0 0 127 0"/>
<feOffset dy="4"/>
<feGaussianBlur stdDeviation="2"/>
<feColorMatrix type="matrix" values="0 0 0 0 0 0 0 0 0 0 0 0 0 0 0 0 0 0 0.25 0"/>
<feBlend mode="normal" in2="BackgroundImageFix" result="effect1_dropShadow"/>
<feBlend mode="normal" in="SourceGraphic" in2="effect1_dropShadow" result="shape"/>
</filter>
</defs>
</svg>
