<svg width="25" height="25" viewBox="0 0 25 25" fill="none" xmlns="http://www.w3.org/2000/svg">
<path d="M12.4999 12.5392C12.4999 12.7892 12.4251 13.0391 12.2875 13.2265L6.03745 22.6015C5.81245 22.9391 5.43755 23.1641 4.99992 23.1641H1.24992C0.562592 23.1641 0 22.6015 0 21.9142C0 21.664 0.0750732 21.4141 0.212402 21.2267L5.99991 12.5392L0.212402 3.85155C0.0750732 3.66409 0 3.41415 0 3.16421C0 2.47665 0.562592 1.91406 1.24992 1.91406H4.99992C5.43755 1.91406 5.81245 2.13905 6.03745 2.47665L12.2875 11.8517C12.4251 12.0391 12.4999 12.289 12.4999 12.5392Z" fill="white"/>
<path d="M25.0002 12.5392C25.0002 12.7892 24.9251 13.0391 24.7875 13.2265L18.5377 22.6015C18.3127 22.9391 17.9375 23.1641 17.5002 23.1641H13.7502C13.0626 23.1641 12.5 22.6015 12.5 21.9142C12.5 21.664 12.5751 21.4141 12.7126 21.2267L18.5001 12.5392L12.7126 3.85155C12.5751 3.66409 12.5 3.41415 12.5 3.16421C12.5 2.47665 13.0626 1.91406 13.7502 1.91406H17.5002C17.9375 1.91406 18.3127 2.13905 18.5377 2.47665L24.7875 11.8517C24.9251 12.0391 25.0002 12.289 25.0002 12.5392Z" fill="white"/>
</svg>
