<svg width="25" height="25" viewBox="0 0 25 25" fill="none" xmlns="http://www.w3.org/2000/svg">
<path d="M12.5001 12.4608C12.5001 12.2108 12.5749 11.9609 12.7125 11.7735L18.9626 2.39845C19.1875 2.06085 19.5625 1.83586 20.0001 1.83586H23.7501C24.4374 1.83586 25 2.39845 25 3.08579C25 3.33595 24.9249 3.58589 24.7876 3.77335L19.0001 12.4608L24.7876 21.1485C24.9249 21.3359 25 21.5858 25 21.8358C25 22.5233 24.4374 23.0859 23.7501 23.0859H20.0001C19.5625 23.0859 19.1875 22.8609 18.9626 22.5233L12.7125 13.1483C12.5749 12.9609 12.5001 12.711 12.5001 12.4608V12.4608Z" fill="white"/>
<path d="M-0.000151793 12.4608C-0.000151793 12.2108 0.0749214 11.9609 0.212479 11.7735L6.46233 2.39845C6.68732 2.06085 7.06245 1.83586 7.49985 1.83586H11.2498C11.9374 1.83586 12.5 2.39845 12.5 3.08579C12.5 3.33595 12.4249 3.58589 12.2874 3.77335L6.49986 12.4608L12.2874 21.1485C12.4249 21.3359 12.5 21.5858 12.5 21.8358C12.5 22.5233 11.9374 23.0859 11.2498 23.0859H7.49985C7.06245 23.0859 6.68732 22.8609 6.46233 22.5233L0.212479 13.1483C0.0749214 12.9609 -0.000151793 12.711 -0.000151793 12.4608V12.4608Z" fill="white"/>
</svg>
