<svg width="21" height="23" viewBox="0 0 21 23" fill="none" xmlns="http://www.w3.org/2000/svg">
<path d="M2.81623 20.267L10.4271 11.8751C10.6172 11.6656 10.6173 11.346 10.4273 11.1364L2.81471 2.73428C2.80431 2.7228 2.80067 2.71473 2.79932 2.71097C2.79796 2.70716 2.79764 2.70409 2.79783 2.70096C2.79828 2.69372 2.80243 2.68009 2.81546 2.66633C2.82849 2.65256 2.84187 2.64768 2.84909 2.64684C2.8522 2.64648 2.85529 2.64664 2.85916 2.64779C2.86299 2.64892 2.87124 2.65212 2.88327 2.66188L13.7328 11.4668C13.7575 11.4868 13.7575 11.5245 13.7328 11.5445L2.88476 20.3394C2.87273 20.3491 2.86448 20.3523 2.86064 20.3535C2.85677 20.3546 2.85368 20.3548 2.85057 20.3544C2.84336 20.3536 2.82997 20.3487 2.81695 20.3349C2.80392 20.3212 2.79978 20.3075 2.79934 20.3003C2.79914 20.2971 2.79947 20.2941 2.80083 20.2903C2.80218 20.2865 2.80583 20.2784 2.81623 20.267ZM9.07101 20.267L16.6819 11.8751C16.872 11.6656 16.872 11.346 16.6821 11.1364L9.06949 2.73428C9.05909 2.7228 9.05545 2.71473 9.05411 2.71097C9.05275 2.70716 9.05242 2.70409 9.05261 2.70096C9.05306 2.69372 9.05721 2.68009 9.07024 2.66633C9.08327 2.65256 9.09666 2.64768 9.10387 2.64684C9.10699 2.64648 9.11007 2.64664 9.11394 2.64779C9.11778 2.64893 9.12603 2.65212 9.13805 2.66188L19.9876 11.4668C20.0123 11.4868 20.0122 11.5245 19.9876 11.5445L13.1861 17.0587L9.13954 20.3394C9.12751 20.3492 9.11926 20.3523 9.11542 20.3535C9.11155 20.3546 9.10846 20.3548 9.10535 20.3544C9.09814 20.3536 9.08475 20.3487 9.07173 20.3349C9.0587 20.3212 9.05456 20.3075 9.05412 20.3003C9.05393 20.2971 9.05425 20.2941 9.05562 20.2903C9.05696 20.2865 9.06061 20.2784 9.07101 20.267Z" fill="white" stroke="white" stroke-width="0.5"/>
</svg>
