<svg width="25" height="25" viewBox="0 0 25 25" fill="none" xmlns="http://www.w3.org/2000/svg">
<path fill-rule="evenodd" clip-rule="evenodd" d="M16.32 15.411C16.32 15.976 15.861 16.4384 15.3 16.4384C14.739 16.4384 14.28 15.976 14.28 15.411V9.24659C14.28 8.68152 14.739 8.21919 15.3 8.21919C15.861 8.21919 16.32 8.68152 16.32 9.24659V15.411ZM10.1998 15.411C10.1998 15.976 9.74081 16.4384 9.17979 16.4384C8.61877 16.4384 8.15975 15.976 8.15975 15.411V9.24659C8.15975 8.68152 8.61877 8.21919 9.17979 8.21919C9.74081 8.21919 10.1998 8.68152 10.1998 9.24659V15.411ZM12.2399 2.05481C6.61542 2.05481 2.03955 6.66371 2.03955 12.3288C2.03955 17.9938 6.61542 22.6028 12.2399 22.6028C17.8654 22.6028 22.4402 17.9938 22.4402 12.3288C22.4402 6.66371 17.8654 2.05481 12.2399 2.05481V2.05481Z" fill="white"/>
<mask id="mask0" mask-type="alpha" maskUnits="userSpaceOnUse" x="2" y="2" width="21" height="21">
<path fill-rule="evenodd" clip-rule="evenodd" d="M16.32 15.411C16.32 15.976 15.861 16.4384 15.3 16.4384C14.739 16.4384 14.28 15.976 14.28 15.411V9.24659C14.28 8.68152 14.739 8.21919 15.3 8.21919C15.861 8.21919 16.32 8.68152 16.32 9.24659V15.411ZM10.1998 15.411C10.1998 15.976 9.74081 16.4384 9.17979 16.4384C8.61877 16.4384 8.15975 15.976 8.15975 15.411V9.24659C8.15975 8.68152 8.61877 8.21919 9.17979 8.21919C9.74081 8.21919 10.1998 8.68152 10.1998 9.24659V15.411ZM12.2399 2.05481C6.61542 2.05481 2.03955 6.66371 2.03955 12.3288C2.03955 17.9938 6.61542 22.6028 12.2399 22.6028C17.8654 22.6028 22.4402 17.9938 22.4402 12.3288C22.4402 6.66371 17.8654 2.05481 12.2399 2.05481V2.05481Z" fill="white"/>
</mask>
<g mask="url(#mask0)">
</g>
</svg>
