<svg width="16" height="16" viewBox="0 0 16 16" fill="none" xmlns="http://www.w3.org/2000/svg">
<path fill-rule="evenodd" clip-rule="evenodd" d="M13.4805 14C13.1732 14 12.9058 13.79 12.8325 13.4913C12.2398 11.0587 10.1525 9.30133 7.63584 9.03533V9.78266C7.63584 10.2533 7.3565 10.6727 6.90784 10.876C6.41984 11.098 5.85184 11.018 5.4565 10.6733L2.0785 7.724C1.81717 7.49467 1.6665 7.17 1.6665 6.83333C1.6665 6.49667 1.81717 6.172 2.0785 5.94267L5.4565 2.99333C5.85184 2.64867 6.41984 2.56867 6.90784 2.79067C7.3565 2.994 7.63584 3.41333 7.63584 3.884V4.696C11.3852 5.02467 14.3332 8.1 14.3332 11.8333C14.3332 12.3733 14.2645 12.9307 14.1285 13.4907C14.0558 13.79 13.7885 14 13.4805 14" fill="white"/>
<mask id="mask0" mask-type="alpha" maskUnits="userSpaceOnUse" x="1" y="2" width="14" height="12">
<path fill-rule="evenodd" clip-rule="evenodd" d="M13.4805 14C13.1732 14 12.9058 13.79 12.8325 13.4913C12.2398 11.0587 10.1525 9.30133 7.63584 9.03533V9.78266C7.63584 10.2533 7.3565 10.6727 6.90784 10.876C6.41984 11.098 5.85184 11.018 5.4565 10.6733L2.0785 7.724C1.81717 7.49467 1.6665 7.17 1.6665 6.83333C1.6665 6.49667 1.81717 6.172 2.0785 5.94267L5.4565 2.99333C5.85184 2.64867 6.41984 2.56867 6.90784 2.79067C7.3565 2.994 7.63584 3.41333 7.63584 3.884V4.696C11.3852 5.02467 14.3332 8.1 14.3332 11.8333C14.3332 12.3733 14.2645 12.9307 14.1285 13.4907C14.0558 13.79 13.7885 14 13.4805 14" fill="white"/>
</mask>
<g mask="url(#mask0)">
</g>
</svg>
