<svg width="24" height="24" viewBox="0 0 24 24" fill="none" xmlns="http://www.w3.org/2000/svg">
<path fill-rule="evenodd" clip-rule="evenodd" d="M15 3.99991V12.1719L9.02602 6.19791L13.435 3.17491C13.74 2.96491 14.137 2.94191 14.466 3.11491C14.794 3.28791 15 3.62891 15 3.99991ZM21 12.0001C21 13.5991 20.37 15.1211 19.222 16.3941L20.637 17.8091C22.163 16.1551 23 14.1371 23 12.0001C23 9.43111 21.806 7.02511 19.638 5.22911C19.212 4.87811 18.582 4.93711 18.23 5.36211C17.877 5.78711 17.937 6.41811 18.362 6.77111C20.063 8.18011 21 10.0361 21 12.0001ZM16.9106 14.0821L18.3486 15.5211C19.9066 13.4831 19.8886 10.3741 18.2796 8.37311C17.9326 7.94311 17.3036 7.87611 16.8726 8.22111C16.4426 8.56711 16.3746 9.19611 16.7206 9.62711C17.6836 10.8231 17.7386 12.7781 16.9106 14.0821ZM4.74312 7.57141H2.00012C1.44812 7.57141 1.00012 8.01841 1.00012 8.57141V15.4284C1.00012 15.9814 1.44812 16.4284 2.00012 16.4284H7.02312L13.4341 20.8254C13.6041 20.9414 13.8021 21.0004 14.0001 21.0004C14.1601 21.0004 14.3201 20.9624 14.4661 20.8844C14.7941 20.7124 15.0001 20.3714 15.0001 20.0004V17.8284L4.74312 7.57141ZM3.29302 3.29301C3.68402 2.90201 4.31602 2.90201 4.70702 3.29301L20.707 19.293C21.098 19.684 21.098 20.316 20.707 20.707C20.512 20.902 20.256 21 20 21C19.744 21 19.488 20.902 19.293 20.707L3.29302 4.70701C2.90202 4.31601 2.90202 3.68401 3.29302 3.29301Z" fill="white"/>
<mask id="mask0" mask-type="alpha" maskUnits="userSpaceOnUse" x="1" y="2" width="22" height="20">
<path fill-rule="evenodd" clip-rule="evenodd" d="M15 3.99991V12.1719L9.02602 6.19791L13.435 3.17491C13.74 2.96491 14.137 2.94191 14.466 3.11491C14.794 3.28791 15 3.62891 15 3.99991ZM21 12.0001C21 13.5991 20.37 15.1211 19.222 16.3941L20.637 17.8091C22.163 16.1551 23 14.1371 23 12.0001C23 9.43111 21.806 7.02511 19.638 5.22911C19.212 4.87811 18.582 4.93711 18.23 5.36211C17.877 5.78711 17.937 6.41811 18.362 6.77111C20.063 8.18011 21 10.0361 21 12.0001ZM16.9106 14.0821L18.3486 15.5211C19.9066 13.4831 19.8886 10.3741 18.2796 8.37311C17.9326 7.94311 17.3036 7.87611 16.8726 8.22111C16.4426 8.56711 16.3746 9.19611 16.7206 9.62711C17.6836 10.8231 17.7386 12.7781 16.9106 14.0821ZM4.74312 7.57141H2.00012C1.44812 7.57141 1.00012 8.01841 1.00012 8.57141V15.4284C1.00012 15.9814 1.44812 16.4284 2.00012 16.4284H7.02312L13.4341 20.8254C13.6041 20.9414 13.8021 21.0004 14.0001 21.0004C14.1601 21.0004 14.3201 20.9624 14.4661 20.8844C14.7941 20.7124 15.0001 20.3714 15.0001 20.0004V17.8284L4.74312 7.57141ZM3.29302 3.29301C3.68402 2.90201 4.31602 2.90201 4.70702 3.29301L20.707 19.293C21.098 19.684 21.098 20.316 20.707 20.707C20.512 20.902 20.256 21 20 21C19.744 21 19.488 20.902 19.293 20.707L3.29302 4.70701C2.90202 4.31601 2.90202 3.68401 3.29302 3.29301Z" fill="white"/>
</mask>
<g mask="url(#mask0)">
</g>
</svg>
