<svg width="25" height="24" viewBox="0 0 25 24" fill="none" xmlns="http://www.w3.org/2000/svg">
<path fill-rule="evenodd" clip-rule="evenodd" d="M17.3398 20.9999C17.1378 20.9999 16.9359 20.9409 16.7635 20.8249L10.223 16.4289H5.09938C4.53632 16.4289 4.07935 15.9809 4.07935 15.4289V8.5709C4.07935 8.0189 4.53632 7.5709 5.09938 7.5709H10.223L16.7635 3.1749C17.0746 2.9649 17.4795 2.9409 17.8151 3.1149C18.1497 3.2879 18.3598 3.6289 18.3598 3.9999V19.9999C18.3598 20.3709 18.1497 20.7119 17.8151 20.8849C17.6662 20.9619 17.503 20.9999 17.3398 20.9999" fill="white"/>
<mask id="mask0" mask-type="alpha" maskUnits="userSpaceOnUse" x="4" y="2" width="15" height="19">
<path fill-rule="evenodd" clip-rule="evenodd" d="M17.3398 20.9999C17.1378 20.9999 16.9359 20.9409 16.7635 20.8249L10.223 16.4289H5.09938C4.53632 16.4289 4.07935 15.9809 4.07935 15.4289V8.5709C4.07935 8.0189 4.53632 7.5709 5.09938 7.5709H10.223L16.7635 3.1749C17.0746 2.9649 17.4795 2.9409 17.8151 3.1149C18.1497 3.2879 18.3598 3.6289 18.3598 3.9999V19.9999C18.3598 20.3709 18.1497 20.7119 17.8151 20.8849C17.6662 20.9619 17.503 20.9999 17.3398 20.9999" fill="white"/>
</mask>
<g mask="url(#mask0)">
</g>
</svg>
