<svg width="69" height="128" viewBox="0 0 69 128" fill="none" xmlns="http://www.w3.org/2000/svg">
<path d="M52.1506 0.578724C52.0035 0.561 51.8573 0.587479 51.7212 0.656432C51.5851 0.725384 51.462 0.835301 51.3599 0.979244C51.2577 1.12319 51.1787 1.298 51.1279 1.49254C51.077 1.68708 51.0555 1.89712 51.0645 2.10929C51.164 2.72225 51.3077 3.32199 51.4932 3.89852C51.8996 5.03949 52.3442 6.14798 52.8085 7.24514C55.9769 14.7542 57.7835 22.9383 59.2063 31.26C60.1992 37.4413 60.4053 43.7682 59.8144 49.9255C59.5376 53.1572 59.158 56.377 58.6725 59.5458C57.8341 65.0362 56.0703 69.9767 54.1715 74.6616C51.5654 80.78 48.3841 86.3218 44.712 91.1404C40.8434 96.3275 36.6166 100.937 32.0895 104.906C28.1578 108.496 24.0496 111.692 19.7923 114.471C19.1272 114.93 18.4861 115.452 17.873 116.035C17.7319 116.261 17.6489 116.551 17.637 116.862C17.6251 117.172 17.6848 117.486 17.807 117.754C18.0157 118.106 18.2886 118.366 18.5911 118.502C18.9101 118.6 19.2366 118.575 19.537 118.43C20.1469 118.148 20.7406 117.807 21.3142 117.408C26.3465 113.804 31.3773 110.18 35.9941 105.583C38.1689 103.448 40.3459 101.253 42.4149 98.8889C44.2312 96.8021 45.9666 94.5759 47.6143 92.219C51.1283 87.3613 54.1669 81.8335 56.655 75.7722C59.7304 68.0776 61.6182 59.4468 62.1975 50.4331C62.4194 46.2412 62.481 42.0217 62.382 37.7935C62.345 34.4577 61.5979 31.2549 61.0475 28.0469C59.5761 19.2576 57.1262 10.7941 53.7958 2.99415C53.5185 2.32108 53.1969 1.68578 52.8357 1.0977C52.6336 0.856392 52.3997 0.679203 52.1506 0.578724Z" fill="white"/>
<path d="M20.2982 127.167C21.7906 126.866 23.2755 126.556 24.7687 126.265C26.1545 125.992 27.5433 125.758 28.9291 125.485C34.5189 124.379 39.8695 122.365 44.5659 117.92C45.0051 117.496 45.4235 117.03 45.8185 116.525C45.9432 116.281 46.0123 115.985 46.0168 115.675C46.0213 115.365 45.9611 115.054 45.844 114.783C45.7268 114.512 45.5581 114.294 45.3595 114.156C45.1609 114.017 44.9415 113.966 44.7296 114.008C44.3138 114.143 43.9206 114.379 43.5666 114.707C39.055 118.991 33.9212 120.997 28.5461 122.067C23.8602 122.995 19.178 123.973 14.3463 123.435C13.915 123.391 13.486 123.272 13.0688 123.08C12.9801 123.006 12.9048 122.901 12.85 122.776C12.7952 122.651 12.7629 122.509 12.7561 122.365C12.9404 121.668 13.1591 120.993 13.4107 120.345C17.0584 110.347 21.046 100.618 24.0116 90.051C24.6745 87.9599 25.0722 85.6966 25.1868 83.363C25.1954 82.9016 25.16 82.4371 25.0815 81.9824C25.0311 81.6692 24.9073 81.3851 24.7315 81.1791C24.5557 80.9731 24.339 80.8582 24.1189 80.8543C23.8064 80.8733 23.516 81.0565 23.3019 81.3697C23.0821 81.6955 22.9389 82.1146 22.8908 82.573C22.4769 87.1249 21.0453 91.0749 19.7684 95.092C17.9908 100.654 16.0175 106.054 13.9157 111.374C12.5542 114.817 11.3779 118.462 9.95412 121.801C9.64755 122.598 9.39322 123.438 9.19421 124.311C9.13266 124.694 9.176 125.105 9.31543 125.46C9.45485 125.815 9.67989 126.088 9.94483 126.223C10.249 126.415 10.5678 126.546 10.892 126.614C13.9914 126.712 17.1161 127.41 20.2982 127.167Z" fill="white"/>
</svg>
