<svg width="38" height="38" viewBox="0 0 38 38" fill="none" xmlns="http://www.w3.org/2000/svg">
<rect x="2" y="2" width="33.7967" height="33.7967" rx="16.8984" fill="white" stroke="#00A0FB" stroke-width="4"/>
<path d="M29.9124 18.863C29.5645 18.7094 29.1604 18.8695 29.009 19.2225C28.9831 19.2812 28.5291 20.2788 27.4645 20.8444C27.7822 20.389 28.0335 19.9449 28.2305 19.5334C29.1671 17.5773 29.1329 15.9221 29.131 15.8526C29.1203 15.4678 28.8048 15.1625 28.425 15.1753C28.0457 15.1861 27.7468 15.5067 27.7574 15.8916C27.7586 15.9322 27.7971 18.8709 25.244 21.3091C24.2287 20.0819 24.3535 18.3796 24.3555 18.3544C24.3886 17.9721 24.1107 17.6342 23.7336 17.5991C23.3551 17.5639 23.0214 17.8464 22.9869 18.2298C22.9782 18.3258 22.8012 20.5052 24.1742 22.1836C23.5172 22.6432 22.7389 23.0645 21.8189 23.4197C21.7254 22.1143 21.4077 20.6808 20.711 19.2032C20.4307 18.6087 20.1721 18.0317 19.9335 17.4739C22.4004 16.3665 23.4815 14.4502 23.9537 12.9789C23.9563 12.9706 23.9587 12.9624 23.9613 12.9542C26.2575 12.9152 27.595 11.0652 27.9081 10.0221C28.0186 9.65387 27.8145 9.26268 27.4516 9.15058C27.0882 9.03801 26.7052 9.24433 26.5947 9.61249C26.5698 9.69228 26.0146 11.4036 24.2812 11.5507C24.4294 10.5255 24.3588 9.79041 24.3544 9.74724C24.3154 9.36502 23.9796 9.08844 23.6021 9.12645C23.2253 9.16502 22.9505 9.50664 22.9874 9.88901C22.9886 9.90165 23.1033 11.1606 22.6317 12.5942C22.4922 13.0185 22.316 13.4114 22.1073 13.7758C21.2911 13.1644 20.864 11.5339 20.7701 10.9232C20.7121 10.5431 20.3623 10.2822 19.987 10.3407C19.612 10.399 19.3545 10.7548 19.412 11.1353C19.4594 11.4489 19.86 13.8171 21.2746 14.8884C20.7602 15.4216 20.1356 15.8551 19.4034 16.1867C17.5768 11.567 17.1976 8.56063 17.1933 8.52472C17.1477 8.14282 16.806 7.87099 16.4293 7.91643C16.0526 7.96233 15.7838 8.30941 15.829 8.69163C15.8509 8.87641 16.4001 13.2917 19.4712 19.8049C20.3961 21.7663 20.6818 23.8797 20.3203 26.0867C20.3137 26.1266 20.307 26.1661 20.3002 26.2052C20.2828 26.1505 20.2649 26.0952 20.2463 26.0396C19.6999 24.4049 18.468 22.0542 15.7025 20.139C15.4868 19.9897 15.2797 19.8318 15.0788 19.6676C15.8827 18.9473 16.3033 17.8909 16.3033 16.5693C16.3033 15.425 15.9804 14.4722 15.9667 14.4322C15.8418 14.0687 15.4498 13.8769 15.0918 14.0035C14.7335 14.1303 14.5443 14.5276 14.6692 14.8911C14.6786 14.9187 15.5493 17.5211 14.0638 18.7085C13.0025 17.5455 12.2209 16.113 11.7314 14.4275C11.1889 12.5602 11.2283 11.0677 11.2287 11.0541C11.242 10.6693 10.9452 10.3466 10.566 10.3333C10.1862 10.3184 9.86858 10.621 9.8555 11.0057C9.85319 11.0739 9.80517 12.6991 10.3991 14.772C11.1898 17.5323 12.7559 19.7864 14.9279 21.2906C14.939 21.2982 14.9493 21.3062 14.9603 21.3138C14.4225 21.2999 13.7783 21.2383 13.1062 21.0737C10.866 20.525 9.42405 19.1201 8.82062 16.8979C8.71981 16.5268 8.34146 16.3089 7.97572 16.411C7.60991 16.5132 7.39507 16.897 7.49587 17.2681C8.23157 19.9772 10.06 21.7617 12.7837 22.4287C13.685 22.6495 14.5395 22.7112 15.213 22.7112C15.8646 22.7112 16.3458 22.6535 16.5367 22.6263C17.2556 23.3441 17.8466 24.1377 18.3065 25.0022C17.3062 25.2502 14.4477 25.7242 12.177 23.8105C11.8852 23.5646 11.4521 23.6051 11.2096 23.9013C10.9671 24.1973 11.0072 24.6367 11.2991 24.8828C12.9585 26.2815 14.8231 26.6462 16.3166 26.6462C17.4959 26.6462 18.4433 26.4188 18.876 26.2935C18.892 26.3383 18.9094 26.3822 18.9248 26.4273C19.453 27.9735 19.403 29.1405 19.4024 29.1498C19.3843 29.4768 19.5929 29.7726 19.9039 29.8606C19.9652 29.8779 20.0273 29.8863 20.0884 29.8863C20.3378 29.8863 20.5741 29.748 20.6955 29.5156C20.7198 29.469 20.8696 29.1757 21.0536 28.6862C25.0299 28.5433 27.6011 26.178 27.717 26.0693C27.9952 25.8084 28.0123 25.3689 27.7559 25.0861C27.4996 24.8033 27.0653 24.7848 26.7857 25.0443C26.7623 25.0661 24.6782 26.9646 21.4907 27.2594C21.6541 26.5855 21.7898 25.786 21.8342 24.8966C23.5616 24.2977 24.8717 23.4896 25.8647 22.6226C25.8707 22.6226 25.8767 22.6227 25.8827 22.6227C29.0131 22.6227 30.2174 19.8988 30.2674 19.7823C30.4189 19.4289 30.2603 19.0166 29.9124 18.863Z" fill="#00A0FB"/>
</svg>
