<svg width="65" height="27" viewBox="0 0 65 27" fill="none" xmlns="http://www.w3.org/2000/svg">
<path d="M8.7921 18.4252C9.34858 18.8336 9.67192 19.3378 9.76213 19.9376C9.8539 20.535 9.70029 21.1513 9.3013 21.7863C8.86491 22.4809 8.28806 22.8814 7.57076 22.9878C6.85253 23.0902 6.08534 22.885 5.26918 22.3722L4.938 22.1641C4.41705 21.8368 4.01578 21.4567 3.7342 21.0238C3.45261 20.5908 3.31315 20.1382 3.31581 19.6659C3.31754 19.1895 3.46024 18.7256 3.74389 18.2741C4.13665 17.6489 4.62048 17.2505 5.19539 17.0789C5.77031 16.9073 6.37912 16.9818 7.02182 17.3026L6.32047 18.4189C5.95355 18.2264 5.63895 18.1655 5.37668 18.236C5.1135 18.3024 4.87436 18.5068 4.65928 18.8492C4.4255 19.2213 4.38413 19.5845 4.53515 19.9389C4.68526 20.2892 5.03908 20.643 5.5966 21.0002L6.00592 21.2574C6.59138 21.6252 7.07463 21.806 7.45569 21.7997C7.8383 21.791 8.14962 21.5956 8.38963 21.2136C8.60627 20.8687 8.68943 20.5629 8.63913 20.296C8.5879 20.0251 8.40511 19.7736 8.09076 19.5415L8.7921 18.4252Z" fill="#FFC94D"/>
<path d="M12.6463 18.0048L11.7965 18.9546L6.76601 14.4539L7.61575 13.5041L12.6463 18.0048Z" fill="#FFC94D"/>
<path d="M15.3164 14.8606L14.3783 15.7232L11.1599 12.2231L12.098 11.3605L15.3164 14.8606ZM10.272 11.3679C10.1431 11.2277 10.0834 11.0697 10.0928 10.8939C10.1044 10.716 10.1911 10.5528 10.3529 10.404C10.5124 10.2573 10.6813 10.1856 10.8595 10.1889C11.0377 10.1922 11.1912 10.264 11.3201 10.4042C11.451 10.5465 11.5095 10.7076 11.4958 10.8874C11.4842 11.0652 11.3997 11.2265 11.2422 11.3712C11.0848 11.516 10.9159 11.5877 10.7356 11.5864C10.5574 11.5831 10.4029 11.5102 10.272 11.3679Z" fill="#FFC94D"/>
<path d="M16.2576 11.8449C15.8728 11.2046 15.7106 10.6133 15.771 10.0712C15.834 9.52749 16.114 9.10625 16.6112 8.80745C17.0482 8.54487 17.4963 8.50286 17.9557 8.6814L17.7715 8.21276L18.7282 7.6378L22.1191 13.2803L21.0267 13.9368L19.8746 12.0195C19.794 12.4542 19.5503 12.7937 19.1435 13.0382C18.6588 13.3295 18.1589 13.3735 17.6438 13.1704C17.1287 12.9673 16.6666 12.5254 16.2576 11.8449ZM17.3938 11.2699C17.6277 11.6591 17.8735 11.9146 18.1314 12.0366C18.3917 12.157 18.6462 12.1425 18.8948 11.9931C19.2288 11.7924 19.3848 11.5174 19.363 11.1682L18.3512 9.48452C18.0616 9.30988 17.7511 9.32215 17.4197 9.52135C17.1685 9.67226 17.0351 9.89091 17.0192 10.1773C17.0033 10.4637 17.1282 10.8279 17.3938 11.2699Z" fill="#FFC94D"/>
<path d="M26.6299 9.57775C26.4222 10.0252 26.0504 10.3185 25.5145 10.4577C25.0211 10.5858 24.6071 10.542 24.2726 10.3262C23.9409 10.1096 23.7012 9.72848 23.5533 9.18268L22.7701 6.16701L23.9994 5.84775L24.7715 8.82088C24.896 9.3001 25.1766 9.483 25.6133 9.36959C26.0301 9.26133 26.2789 9.04233 26.3598 8.71259L25.5136 5.45447L26.7471 5.13411L27.9423 9.73631L26.7854 10.0368L26.6299 9.57775Z" fill="#FFC94D"/>
<path d="M32.5986 9.08789C31.9014 9.08789 31.333 8.87402 30.8936 8.44629C30.457 8.01855 30.2388 7.44873 30.2388 6.73682V6.61377C30.2388 6.13623 30.3311 5.70996 30.5156 5.33496C30.7002 4.95703 30.9609 4.66699 31.2979 4.46484C31.6377 4.25977 32.0244 4.15723 32.458 4.15723C33.1084 4.15723 33.6196 4.3623 33.9917 4.77246C34.3667 5.18262 34.5542 5.76416 34.5542 6.51709V7.03564H31.5264C31.5674 7.34619 31.6904 7.59521 31.8955 7.78271C32.1035 7.97021 32.3657 8.06396 32.6821 8.06396C33.1714 8.06396 33.5537 7.88672 33.8291 7.53223L34.4531 8.23096C34.2627 8.50049 34.0049 8.71143 33.6797 8.86377C33.3545 9.01318 32.9941 9.08789 32.5986 9.08789ZM32.4536 5.18555C32.2017 5.18555 31.9966 5.27051 31.8384 5.44043C31.6831 5.61035 31.5835 5.85352 31.5396 6.16992H33.3062V6.06885C33.3003 5.7876 33.2241 5.5708 33.0776 5.41846C32.9312 5.26318 32.7231 5.18555 32.4536 5.18555Z" fill="#FFC94D"/>
<path d="M38.7111 8.95718L40.9544 9.56719L40.6857 10.5552L36.8777 9.51971L37.0806 8.77338L40.014 6.51069L37.9192 5.94103L38.189 4.94875L41.8656 5.94852L41.6684 6.67366L38.7111 8.95718Z" fill="#FFC94D"/>
<path d="M50.2433 15.766L49.3778 14.8306L52.8679 11.6013L53.7334 12.5367L50.2433 15.766ZM53.7203 10.7108C53.8601 10.5815 54.0179 10.5213 54.1938 10.5302C54.3716 10.5412 54.5352 10.6274 54.6844 10.7887C54.8316 10.9478 54.9039 11.1164 54.9011 11.2946C54.8983 11.4728 54.8271 11.6266 54.6873 11.7559C54.5454 11.8872 54.3845 11.9463 54.2046 11.9331C54.0268 11.922 53.8652 11.838 53.7199 11.681C53.5747 11.5241 53.5025 11.3554 53.5032 11.1751C53.506 10.9969 53.5784 10.8421 53.7203 10.7108Z" fill="#FFC94D"/>
<path d="M54.188 19.0958C54.3032 19.2999 54.4529 19.434 54.6372 19.4982C54.8215 19.5624 55.0082 19.5445 55.1973 19.4445L55.7827 20.4816C55.5006 20.6374 55.1997 20.7064 54.88 20.6883C54.5629 20.6688 54.2651 20.5644 53.9867 20.3751C53.7122 20.1869 53.4857 19.9346 53.3071 19.6182C52.973 19.0263 52.897 18.4536 53.0791 17.9C53.2637 17.345 53.6877 16.8803 54.351 16.5058L54.4237 16.4648C55.0615 16.1048 55.6663 15.9871 56.238 16.1119C56.8096 16.2366 57.2625 16.5949 57.5966 17.1868C57.889 17.7048 57.975 18.2029 57.8548 18.6812C57.7385 19.1606 57.4369 19.5411 56.9499 19.8227L56.3645 18.7856C56.5759 18.6596 56.712 18.4953 56.7726 18.2928C56.8359 18.0889 56.8084 17.8824 56.6903 17.6732C56.5449 17.4155 56.3403 17.2736 56.0766 17.2475C55.8169 17.2225 55.4766 17.3289 55.0556 17.5665L54.9408 17.6313C54.5148 17.8718 54.2453 18.1096 54.1325 18.3449C54.0197 18.5801 54.0382 18.8304 54.188 19.0958Z" fill="#FFC94D"/>
<path d="M56.0643 24.3808L55.6439 23.1778L60.1325 21.609L60.553 22.8121L56.0643 24.3808ZM61.2695 21.1326C61.4492 21.0697 61.618 21.0775 61.7757 21.1558C61.9344 21.2369 62.05 21.3812 62.1224 21.5886C62.194 21.7932 62.1929 21.9767 62.1193 22.139C62.0457 22.3013 61.919 22.4138 61.7392 22.4767C61.5567 22.5405 61.3856 22.5304 61.2259 22.4466C61.0672 22.3655 60.9526 22.224 60.8821 22.0221C60.8115 21.8202 60.8125 21.6367 60.8852 21.4717C60.9588 21.3094 61.0869 21.1964 61.2695 21.1326Z" fill="#FFC94D"/>
</svg>
