<svg width="65" height="29" viewBox="0 0 65 29" fill="none" xmlns="http://www.w3.org/2000/svg">
<path d="M7.47863 21.5385C8.09868 21.7762 8.6009 22.0838 8.9853 22.4613C9.36665 22.8376 9.62953 23.2573 9.77394 23.7206L11.0503 22.9445L11.4971 24.1146L9.83653 25.0989C9.80401 25.2712 9.75555 25.4443 9.69115 25.6183C9.48666 26.1709 9.17198 26.6132 8.74712 26.9454C8.32225 27.2775 7.82108 27.4688 7.2436 27.5193C6.66309 27.5686 6.05312 27.4725 5.4137 27.2308L5.08544 27.105C4.43195 26.8544 3.90099 26.5166 3.49255 26.0916C3.0822 25.6624 2.82446 25.1818 2.71933 24.65C2.61228 24.1139 2.66157 23.5681 2.86719 23.0125C3.07281 22.4568 3.38901 22.0151 3.81578 21.6872C4.24065 21.3551 4.74581 21.167 5.33128 21.1231C5.91484 21.0749 6.53184 21.1755 7.18228 21.4249L7.47863 21.5385ZM6.66254 22.8152C5.9665 22.5484 5.39131 22.4708 4.93697 22.5824C4.48264 22.6941 4.1696 22.9819 3.99788 23.446C3.82728 23.907 3.87499 24.3314 4.141 24.7192C4.40398 25.1059 4.87988 25.433 5.56871 25.7006L5.89241 25.8247C6.57021 26.0846 7.14236 26.161 7.60886 26.054C8.07536 25.947 8.3956 25.6585 8.56958 25.1883C8.74018 24.7273 8.69191 24.3045 8.42476 23.9197C8.15458 23.5337 7.67507 23.2069 6.98624 22.9393L6.66254 22.8152Z" fill="#FFC94D"/>
<path d="M12.7076 18.8817C12.8466 19.4162 12.7378 19.9342 12.3812 20.4355C12.0528 20.897 11.6707 21.1534 11.2349 21.2045C10.8009 21.2531 10.329 21.0939 9.81909 20.727L7.03013 18.676L7.84813 17.5262L10.5978 19.5482C11.0409 19.8741 11.4078 19.8328 11.6984 19.4244C11.9758 19.0344 12.0327 18.6682 11.869 18.3256L8.85577 16.1097L9.6766 14.9559L13.9328 18.0859L13.1629 19.1681L12.7076 18.8817Z" fill="#FFC94D"/>
<path d="M16.2178 15.2192L15.2293 16.233L11.512 12.4789L12.5005 11.465L16.2178 15.2192ZM10.4921 11.5668C10.3432 11.4164 10.2695 11.2426 10.271 11.0452C10.2748 10.8455 10.3619 10.6583 10.5324 10.4835C10.7005 10.311 10.8827 10.2221 11.0789 10.2167C11.2751 10.2113 11.4476 10.2837 11.5965 10.4341C11.7477 10.5868 11.8202 10.7641 11.8142 10.9661C11.8104 11.1658 11.7255 11.3508 11.5596 11.5209C11.3937 11.691 11.2115 11.78 11.0131 11.7877C10.8169 11.7931 10.6432 11.7195 10.4921 11.5668Z" fill="#FFC94D"/>
<path d="M18.8426 12.231L21.046 10.8832L21.6245 11.8629L17.884 14.1509L17.447 13.4109L17.899 9.28848L15.8413 10.5471L15.2604 9.56324L18.8718 7.35424L19.2963 8.07323L18.8426 12.231Z" fill="#FFC94D"/>
<path d="M24.4979 9.15082L26.9952 8.49066L27.2764 9.59304L23.0373 10.7137L22.8248 9.88099L24.4164 6.06641L22.0844 6.68289L21.8019 5.57579L25.8947 4.49383L26.1011 5.30287L24.4979 9.15082Z" fill="#FFC94D"/>
<path d="M41.8586 7.19918C41.6796 7.83868 41.4207 8.36519 41.0819 8.77872C40.744 9.18911 40.3522 9.48391 39.9066 9.66313L40.7915 10.8856L39.6734 11.4205L38.5472 9.82822C38.3736 9.80839 38.1977 9.77265 38.0195 9.72098C37.4536 9.55692 36.9868 9.27417 36.6192 8.87273C36.2516 8.47129 36.0164 7.98287 35.9138 7.40747C35.812 6.82894 35.8517 6.21006 36.0328 5.55085L36.1276 5.2123C36.3162 4.53832 36.6023 3.98075 36.9861 3.53957C37.3738 3.09617 37.8262 2.80201 38.3434 2.65709C38.8645 2.50994 39.4096 2.51885 39.9786 2.68382C40.5477 2.84879 41.014 3.13311 41.3776 3.53677C41.7453 3.93821 41.9775 4.43088 42.0744 5.01478C42.1753 5.59645 42.1318 6.2227 41.9441 6.89354L41.8586 7.19918ZM40.5197 6.47551C40.7206 5.75765 40.7451 5.17503 40.5931 4.72767C40.4411 4.2803 40.1275 3.98773 39.6523 3.84996C39.1802 3.71309 38.7642 3.79244 38.4043 4.08802C38.0453 4.38046 37.7647 4.88202 37.5624 5.59271L37.469 5.92657C37.2734 6.62562 37.2498 7.2051 37.3983 7.66501C37.5467 8.12491 37.8617 8.42466 38.3432 8.56425C38.8153 8.70112 39.2297 8.62131 39.5865 8.32483C39.9441 8.02521 40.2241 7.52005 40.4263 6.80937L40.5197 6.47551Z" fill="#FFC94D"/>
<path d="M45.3319 12.147C44.8107 12.3042 44.2958 12.2097 43.7872 11.8636C43.319 11.5449 43.0507 11.1655 42.9825 10.7254C42.917 10.2871 43.0547 9.80397 43.3955 9.27606L45.3033 6.38722L46.4699 7.18115L44.589 10.0292C44.2859 10.4883 44.3415 10.8588 44.7559 11.1409C45.1515 11.4101 45.5148 11.4565 45.8458 11.2802L47.9069 8.15913L49.0776 8.9558L46.1662 13.3644L45.0682 12.6172L45.3319 12.147Z" fill="#FFC94D"/>
<path d="M48.6025 15.6734L47.65 14.6256L51.4961 11.0035L52.4485 12.0513L48.6025 15.6734ZM52.4355 10.0047C52.5895 9.85965 52.7634 9.79204 52.9571 9.80188C53.1529 9.81413 53.333 9.91058 53.4972 10.0912C53.6592 10.2695 53.7387 10.4585 53.7355 10.6582C53.7323 10.8579 53.6537 11.0303 53.4997 11.1754C53.3433 11.3226 53.166 11.389 52.968 11.3743C52.7721 11.3621 52.5942 11.268 52.4344 11.0922C52.2746 10.9163 52.1951 10.7274 52.1961 10.5252C52.1993 10.3255 52.2791 10.152 52.4355 10.0047Z" fill="#FFC94D"/>
<path d="M52.4718 17.8084L53.7245 20.0673L52.738 20.6341L50.6115 16.7995L51.3567 16.3714L55.4071 16.9103L54.2373 14.8008L55.228 14.2316L57.2811 17.9339L56.5571 18.3498L52.4718 17.8084Z" fill="#FFC94D"/>
<path d="M55.6053 23.581L56.3133 26.0651L55.2221 26.3873L54.0204 22.1704L54.8446 21.9271L58.6727 23.3881L58.0116 21.0684L59.1074 20.7448L60.2677 24.8161L59.4669 25.0525L55.6053 23.581Z" fill="#FFC94D"/>
</svg>
