<svg width="65" height="66" viewBox="0 0 65 66" fill="none" xmlns="http://www.w3.org/2000/svg">
<rect x="16.3857" y="15.6463" width="32.3782" height="33.0275" rx="16.1891" fill="white" stroke="#00A0FB" stroke-width="4"/>
<path d="M43.1758 32.1249C42.841 31.9744 42.452 32.1313 42.3063 32.477C42.2814 32.5346 41.8444 33.5118 40.8198 34.066C41.1256 33.6198 41.3675 33.1848 41.5571 32.7816C42.4585 30.8653 42.4256 29.2439 42.4237 29.1757C42.4135 28.7988 42.1098 28.4997 41.7442 28.5123C41.3792 28.5228 41.0915 28.8369 41.1017 29.214C41.1029 29.2537 41.14 32.1326 38.6826 34.5212C37.7054 33.319 37.8255 31.6514 37.8274 31.6267C37.8594 31.2521 37.5919 30.9211 37.229 30.8868C36.8647 30.8522 36.5435 31.129 36.5102 31.5046C36.5019 31.5986 36.3315 33.7337 37.653 35.3779C37.0206 35.8282 36.2716 36.2409 35.3861 36.5888C35.2961 35.3101 34.9903 33.9057 34.3198 32.4581C34.05 31.8758 33.8011 31.3105 33.5714 30.7641C35.9458 29.6792 36.9863 27.8019 37.4408 26.3605C37.4433 26.3524 37.4456 26.3444 37.4481 26.3363C39.6581 26.2981 40.9454 24.4858 41.2468 23.4639C41.3531 23.1032 41.1567 22.72 40.8074 22.6101C40.4576 22.4999 40.089 22.702 39.9826 23.0626C39.9587 23.1408 39.4243 24.8173 37.756 24.9614C37.8986 23.9571 37.8306 23.2369 37.8264 23.1946C37.7889 22.8202 37.4657 22.5493 37.1024 22.5865C36.7397 22.6243 36.4752 22.9589 36.5107 23.3335C36.5119 23.3459 36.6223 24.5793 36.1684 25.9837C36.0341 26.3994 35.8645 26.7843 35.6636 27.1412C34.8781 26.5422 34.467 24.945 34.3767 24.3467C34.3208 23.9743 33.9841 23.7187 33.6229 23.776C33.262 23.8332 33.0142 24.1817 33.0695 24.5545C33.1151 24.8617 33.5007 27.1817 34.8622 28.2312C34.3671 28.7536 33.766 29.1782 33.0613 29.503C31.3031 24.9774 30.9382 22.0322 30.9341 21.997C30.8902 21.6229 30.5613 21.3566 30.1987 21.4011C29.8361 21.4461 29.5775 21.7861 29.621 22.1605C29.6421 22.3415 30.1707 26.667 33.1265 33.0476C34.0167 34.9691 34.2916 37.0395 33.9437 39.2015C33.9374 39.2406 33.931 39.2793 33.9244 39.3177C33.9076 39.2641 33.8904 39.21 33.8725 39.1554C33.3466 37.554 32.161 35.2512 29.4992 33.3749C29.2916 33.2286 29.0923 33.0739 28.8989 32.9131C29.6727 32.2075 30.0774 31.1726 30.0774 29.8779C30.0774 28.7569 29.7667 27.8234 29.7535 27.7843C29.6333 27.4282 29.256 27.2403 28.9114 27.3643C28.5666 27.4885 28.3845 27.8777 28.5047 28.2338C28.5138 28.2609 29.3518 30.8103 27.922 31.9735C26.9006 30.8342 26.1483 29.4309 25.6771 27.7796C25.1551 25.9504 25.1929 24.4883 25.1933 24.4749C25.2061 24.0979 24.9204 23.7818 24.5555 23.7688C24.19 23.7542 23.8843 24.0506 23.8717 24.4275C23.8694 24.4943 23.8232 26.0864 24.3948 28.1172C25.1559 30.8213 26.6632 33.0295 28.7537 34.5031C28.7643 34.5106 28.7743 34.5184 28.7849 34.5259C28.2672 34.5122 27.6472 34.4518 27.0004 34.2906C24.8442 33.7531 23.4564 32.3768 22.8756 30.1998C22.7786 29.8363 22.4144 29.6228 22.0624 29.7228C21.7103 29.823 21.5036 30.1989 21.6006 30.5625C22.3087 33.2164 24.0685 34.9646 26.69 35.618C27.5574 35.8343 28.3799 35.8947 29.0281 35.8947C29.6553 35.8947 30.1184 35.8383 30.3021 35.8116C30.9941 36.5148 31.5629 37.2922 32.0055 38.1392C31.0427 38.3821 28.2915 38.8465 26.1061 36.9717C25.8252 36.7308 25.4083 36.7705 25.1749 37.0606C24.9415 37.3506 24.9801 37.7811 25.261 38.0222C26.8582 39.3924 28.6529 39.7497 30.0903 39.7497C31.2253 39.7497 32.1372 39.527 32.5537 39.4042C32.5691 39.448 32.5858 39.4911 32.6006 39.5352C33.109 41.05 33.0608 42.1933 33.0603 42.2024C33.0428 42.5227 33.2436 42.8125 33.543 42.8987C33.602 42.9157 33.6617 42.9239 33.7206 42.9239C33.9606 42.9239 34.188 42.7883 34.3048 42.5607C34.3282 42.5151 34.4724 42.2277 34.6495 41.7482C38.4766 41.6082 40.9513 39.291 41.0629 39.1845C41.3306 38.929 41.347 38.4984 41.1003 38.2213C40.8536 37.9443 40.4356 37.9262 40.1665 38.1804C40.1439 38.2017 38.1381 40.0616 35.0702 40.3505C35.2275 39.6902 35.358 38.907 35.4008 38.0357C37.0634 37.449 38.3243 36.6573 39.28 35.808C39.2858 35.808 39.2916 35.8081 39.2974 35.8081C42.3103 35.8081 43.4694 33.1396 43.5175 33.0254C43.6634 32.6793 43.5106 32.2754 43.1758 32.1249Z" fill="#00A0FB"/>
<path d="M7.46923 21.6342C8.0984 21.8755 8.6067 22.1854 8.99413 22.564C9.37966 22.9384 9.64102 23.3576 9.77821 23.8216L11.0909 23.0176L11.4878 24.0273L9.84541 25.0186C9.816 25.22 9.76176 25.4275 9.68267 25.6412C9.48383 26.1785 9.17519 26.6092 8.75676 26.9334C8.33641 27.2533 7.84015 27.436 7.26797 27.4816C6.69693 27.5241 6.09321 27.4251 5.45683 27.1846L5.08298 27.0413C4.43557 26.793 3.90652 26.4595 3.49582 26.0406C3.08625 25.6186 2.82816 25.1484 2.72155 24.6299C2.61302 24.1072 2.65875 23.5757 2.85872 23.0354C3.06208 22.4859 3.37185 22.0521 3.78802 21.7341C4.20229 21.4118 4.69647 21.23 5.27055 21.1887C5.8416 21.1462 6.4514 21.2475 7.09993 21.4927L7.46923 21.6342ZM6.69228 22.6645C5.94457 22.3779 5.32574 22.301 4.83579 22.4338C4.34583 22.5667 4.00596 22.8896 3.81615 23.4024C3.632 23.9001 3.68343 24.366 3.97045 24.8002C4.25556 25.2303 4.75261 25.5847 5.46158 25.8635L5.84911 26.0121C6.56643 26.2871 7.17918 26.3616 7.68737 26.2358C8.19669 26.1068 8.54569 25.7875 8.73436 25.2776C8.92529 24.7617 8.87708 24.2918 8.5897 23.8679C8.30346 23.4409 7.78649 23.0841 7.03878 22.7974L6.69228 22.6645Z" fill="#FFC94D"/>
<path d="M12.7828 18.8097C12.9113 19.3365 12.7897 19.8612 12.418 20.3838C12.0858 20.8506 11.6989 21.1054 11.2571 21.1481C10.8171 21.1882 10.3415 21.0202 9.83008 20.6442L7.07258 18.6163L7.76038 17.6495L10.5061 19.6687C11.0463 20.0659 11.4777 20.0378 11.8004 19.5842C12.1344 19.1147 12.1934 18.6753 11.9773 18.2659L8.92087 16.0182L9.60867 15.0514L13.8649 18.1814L13.2167 19.0925L12.7828 18.8097Z" fill="#FFC94D"/>
<path d="M16.1053 15.3346L15.277 16.1841L11.5597 12.4299L12.388 11.5804L16.1053 15.3346ZM10.5432 11.5074C10.4149 11.3779 10.3482 11.2295 10.343 11.0624C10.34 10.8929 10.4135 10.7312 10.5635 10.5774C10.7135 10.4236 10.8718 10.3475 11.0384 10.3492C11.2049 10.3509 11.3523 10.4165 11.4806 10.546C11.6065 10.6732 11.671 10.8216 11.6739 10.9911C11.6746 11.1582 11.5999 11.3187 11.4499 11.4726C11.2999 11.6264 11.1428 11.7036 10.9785 11.7042C10.8143 11.7002 10.6691 11.6346 10.5432 11.5074Z" fill="#FFC94D"/>
<path d="M18.6936 12.5453L21.0929 11.0778L21.5745 11.8935L17.9173 14.1305L17.5226 13.462L18.0046 9.00641L15.7595 10.3797L15.2729 9.55559L18.8009 7.39755L19.1833 8.04507L18.6936 12.5453Z" fill="#FFC94D"/>
<path d="M24.2665 9.40897L26.9856 8.69016L27.2198 9.60801L23.0751 10.7037L22.8831 9.95143L24.5971 5.82672L22.0526 6.49936L21.816 5.57204L25.8144 4.51504L26.0003 5.24365L24.2665 9.40897Z" fill="#FFC94D"/>
<path d="M41.7629 7.19686C41.5813 7.84576 41.3207 8.37854 40.981 8.7952C40.6453 9.20964 40.2539 9.50287 39.8069 9.67491L40.7228 10.9317L39.7589 11.4047L38.6275 9.83117C38.4254 9.81663 38.2149 9.77763 37.996 9.71418C37.4458 9.55465 36.9911 9.27709 36.632 8.88151C36.2768 8.4837 36.0506 7.99957 35.9534 7.42911C35.8592 6.85957 35.9023 6.24676 36.0825 5.59068L36.1904 5.2051C36.3773 4.5374 36.6594 3.98205 37.0369 3.53906C37.4175 3.09698 37.8597 2.80323 38.3635 2.65782C38.8712 2.51018 39.4018 2.51658 39.9552 2.67702C40.518 2.84018 40.9758 3.11864 41.3287 3.51241C41.6855 3.90395 41.9106 4.38607 42.0039 4.95875C42.098 5.52829 42.0532 6.14737 41.8695 6.81599L41.7629 7.19686ZM40.6717 6.49415C40.8875 5.723 40.9073 5.09666 40.7311 4.61516C40.5548 4.13365 40.2041 3.81675 39.6789 3.66448C39.1692 3.51673 38.7125 3.6029 38.3086 3.92299C37.9086 4.24085 37.6029 4.76564 37.3914 5.49737L37.2795 5.89705C37.0725 6.63686 37.0545 7.25692 37.2254 7.75724C37.3995 8.25846 37.7476 8.58476 38.2697 8.73613C38.7981 8.88932 39.2591 8.80607 39.6528 8.4864C40.0496 8.16763 40.3559 7.62267 40.5717 6.85152L40.6717 6.49415Z" fill="#FFC94D"/>
<path d="M45.4059 12.221C44.8919 12.3673 44.3698 12.2601 43.8397 11.8993C43.3661 11.5769 43.0992 11.1926 43.039 10.7461C42.9816 10.3015 43.1278 9.81435 43.4776 9.28467L45.3638 6.42843L46.3447 7.09599L44.4666 9.94C44.097 10.4996 44.1424 10.9359 44.6026 11.2491C45.0789 11.5733 45.5144 11.6196 45.9091 11.3882L47.9998 8.22232L48.9807 8.88987L46.0693 13.2985L45.1449 12.6694L45.4059 12.221Z" fill="#FFC94D"/>
<path d="M48.4941 15.5542L47.696 14.6762L51.542 11.0541L52.3402 11.932L48.4941 15.5542ZM52.4916 10.0592C52.6243 9.9342 52.7728 9.87257 52.9371 9.8743C53.1036 9.87844 53.2592 9.96 53.4037 10.119C53.5482 10.2779 53.616 10.4421 53.6072 10.6114C53.5983 10.7807 53.5275 10.9278 53.3948 11.0528C53.2645 11.1755 53.1161 11.2348 52.9496 11.2307C52.7854 11.2243 52.6311 11.1416 52.4866 10.9827C52.3421 10.8237 52.2731 10.6607 52.2795 10.4936C52.2906 10.3267 52.3613 10.1819 52.4916 10.0592Z" fill="#FFC94D"/>
<path d="M52.167 17.6514L53.531 20.111L52.7096 20.5829L50.6305 16.8337L51.3036 16.4469L55.6817 17.0228L54.4053 14.7212L55.2351 14.2444L57.2409 17.8613L56.5888 18.2359L52.167 17.6514Z" fill="#FFC94D"/>
<path d="M55.3437 23.3579L56.1146 26.0627L55.2061 26.3309L54.0311 22.208L54.7757 21.9881L58.9149 23.561L58.1936 21.0299L59.1114 20.7589L60.2449 24.7363L59.5238 24.9492L55.3437 23.3579Z" fill="#FFC94D"/>
<path d="M56.7729 43.5758C56.1437 43.3345 55.6354 43.0246 55.248 42.646C54.8625 42.2716 54.6011 41.8524 54.4639 41.3885L53.1512 42.1924L52.7544 41.1827L54.3967 40.1914C54.4261 39.99 54.4804 39.7825 54.5595 39.5688C54.7583 39.0315 55.0669 38.6008 55.4854 38.2766C55.9057 37.9567 56.402 37.774 56.9742 37.7284C57.5452 37.6859 58.1489 37.7849 58.7853 38.0254L59.1591 38.1688C59.8066 38.417 60.3356 38.7505 60.7463 39.1695C61.1559 39.5914 61.414 40.0616 61.5206 40.5801C61.6291 41.1028 61.5834 41.6343 61.3834 42.1747C61.18 42.7242 60.8703 43.1579 60.4541 43.476C60.0398 43.7982 59.5457 43.98 58.9716 44.0213C58.4005 44.0639 57.7907 43.9625 57.1422 43.7174L56.7729 43.5758ZM57.5498 42.5455C58.2976 42.8322 58.9164 42.9091 59.4063 42.7762C59.8963 42.6433 60.2362 42.3205 60.426 41.8076C60.6101 41.31 60.5587 40.844 60.2717 40.4098C59.9866 39.9798 59.4895 39.6253 58.7805 39.3465L58.393 39.198C57.6757 38.9229 57.0629 38.8484 56.5548 38.9742C56.0454 39.1032 55.6964 39.4226 55.5078 39.9324C55.3168 40.4483 55.3651 40.9182 55.6524 41.3422C55.9387 41.7691 56.4556 42.126 57.2033 42.4126L57.5498 42.5455Z" fill="#FFC94D"/>
<path d="M51.4593 46.4003C51.3308 45.8735 51.4524 45.3488 51.8241 44.8263C52.1562 44.3594 52.5432 44.1046 52.985 44.0619C53.425 44.0218 53.9006 44.1898 54.412 44.5659L57.1695 46.5937L56.4817 47.5605L53.736 45.5414C53.1958 45.1441 52.7643 45.1722 52.4416 45.6258C52.1077 46.0953 52.0487 46.5348 52.2647 46.9441L55.3212 49.1918L54.6334 50.1586L50.3772 47.0287L51.0253 46.1175L51.4593 46.4003Z" fill="#FFC94D"/>
<path d="M48.1367 49.8754L48.9651 49.0259L52.6824 52.7801L51.854 53.6296L48.1367 49.8754ZM53.6989 53.7026C53.8272 53.8322 53.8939 53.9805 53.8991 54.1477C53.902 54.3172 53.8285 54.4788 53.6785 54.6326C53.5285 54.7865 53.3703 54.8625 53.2037 54.8608C53.0372 54.8592 52.8898 54.7936 52.7615 54.664C52.6355 54.5368 52.5711 54.3885 52.5681 54.219C52.5675 54.0518 52.6422 53.8913 52.7921 53.7375C52.9421 53.5836 53.0993 53.5064 53.2635 53.5058C53.4278 53.5098 53.5729 53.5754 53.6989 53.7026Z" fill="#FFC94D"/>
<path d="M45.5486 52.6647L43.1493 54.1322L42.6677 53.3165L46.3249 51.0795L46.7196 51.7481L46.2376 56.2036L48.4827 54.8303L48.9693 55.6544L45.4412 57.8125L45.0589 57.165L45.5486 52.6647Z" fill="#FFC94D"/>
<path d="M39.9757 55.8011L37.2566 56.5199L37.0224 55.602L41.1671 54.5063L41.3591 55.2586L39.6451 59.3833L42.1895 58.7107L42.4262 59.638L38.4278 60.695L38.2419 59.9664L39.9757 55.8011Z" fill="#FFC94D"/>
<path d="M22.4792 58.0132C22.6608 57.3643 22.9214 56.8315 23.2611 56.4148C23.5968 56.0004 23.9881 55.7071 24.4351 55.5351L23.5193 54.2783L24.4831 53.8053L25.6146 55.3789C25.8167 55.3934 26.0272 55.4324 26.246 55.4958C26.7963 55.6554 27.251 55.9329 27.6101 56.3285C27.9652 56.7263 28.1914 57.2105 28.2887 57.7809C28.3828 58.3505 28.3398 58.9633 28.1596 59.6193L28.0517 60.0049C27.8648 60.6726 27.5826 61.228 27.2052 61.671C26.8246 62.113 26.3824 62.4068 25.8786 62.5522C25.3708 62.6998 24.8403 62.6934 24.2869 62.533C23.7241 62.3698 23.2663 62.0914 22.9134 61.6976C22.5565 61.3061 22.3315 60.824 22.2382 60.2513C22.1441 59.6817 22.1889 59.0626 22.3726 58.394L22.4792 58.0132ZM23.5704 58.7159C23.3546 59.487 23.3348 60.1134 23.511 60.5949C23.6872 61.0764 24.038 61.3933 24.5632 61.5455C25.0728 61.6933 25.5296 61.6071 25.9335 61.287C26.3334 60.9692 26.6392 60.4444 26.8507 59.7127L26.9625 59.313C27.1696 58.5732 27.1876 57.9531 27.0166 57.4528C26.8425 56.9516 26.4944 56.6253 25.9723 56.4739C25.444 56.3207 24.9829 56.4039 24.5893 56.7236C24.1925 57.0424 23.8862 57.5874 23.6704 58.3585L23.5704 58.7159Z" fill="#FFC94D"/>
<path d="M18.8363 52.989C19.3503 52.8427 19.8723 52.95 20.4025 53.3107C20.8761 53.6331 21.143 54.0175 21.2031 54.4639C21.2606 54.9085 21.1144 55.3957 20.7646 55.9254L18.8784 58.7816L17.8975 58.114L19.7756 55.27C20.1451 54.7105 20.0998 54.2741 19.6396 53.9609C19.1633 53.6367 18.7278 53.5904 18.3331 53.8218L16.2424 56.9877L15.2615 56.3202L18.1729 51.9115L19.0973 52.5406L18.8363 52.989Z" fill="#FFC94D"/>
<path d="M15.748 49.6558L16.5461 50.5338L12.7 54.156L11.9019 53.278L15.748 49.6558ZM11.7505 55.1508C11.6178 55.2758 11.4692 55.3374 11.3049 55.3357C11.1384 55.3316 10.9829 55.25 10.8384 55.091C10.6939 54.9321 10.626 54.7679 10.6349 54.5987C10.6438 54.4294 10.7145 54.2822 10.8472 54.1573C10.9776 54.0345 11.126 53.9752 11.2925 53.9793C11.4566 53.9857 11.611 54.0684 11.7555 54.2274C11.9 54.3863 11.969 54.5493 11.9625 54.7164C11.9515 54.8833 11.8808 55.0281 11.7505 55.1508Z" fill="#FFC94D"/>
<path d="M12.0752 47.5587L10.7112 45.0991L11.5326 44.6272L13.6117 48.3763L12.9386 48.7631L8.56053 48.1872L9.83692 50.4888L9.00709 50.9656L7.00134 47.3488L7.65334 46.9742L12.0752 47.5587Z" fill="#FFC94D"/>
<path d="M8.89833 41.8521L8.12749 39.1473L9.03599 38.8791L10.211 43.002L9.46639 43.2219L5.32717 41.6491L6.0485 44.1801L5.13064 44.4511L3.99713 40.4737L4.7183 40.2608L8.89833 41.8521Z" fill="#FFC94D"/>
</svg>
